G04 #@! TF.GenerationSoftware,KiCad,Pcbnew,(5.1.2-1)-1*
G04 #@! TF.CreationDate,2019-05-31T08:15:57+01:00*
G04 #@! TF.ProjectId,A500 Expansion Blinkenlights,41353030-2045-4787-9061-6e73696f6e20,rev?*
G04 #@! TF.SameCoordinates,Original*
G04 #@! TF.FileFunction,Soldermask,Bot*
G04 #@! TF.FilePolarity,Negative*
%FSLAX46Y46*%
G04 Gerber Fmt 4.6, Leading zero omitted, Abs format (unit mm)*
G04 Created by KiCad (PCBNEW (5.1.2-1)-1) date 2019-05-31 08:15:57*
%MOMM*%
%LPD*%
G04 APERTURE LIST*
%ADD10C,0.100000*%
G04 APERTURE END LIST*
D10*
G36*
X152677395Y-148564546D02*
G01*
X152850466Y-148636234D01*
X152850467Y-148636235D01*
X153006227Y-148740310D01*
X153138690Y-148872773D01*
X153138691Y-148872775D01*
X153242766Y-149028534D01*
X153314454Y-149201605D01*
X153351000Y-149385333D01*
X153351000Y-149572667D01*
X153314454Y-149756395D01*
X153242766Y-149929466D01*
X153242765Y-149929467D01*
X153138690Y-150085227D01*
X153006227Y-150217690D01*
X152927818Y-150270081D01*
X152850466Y-150321766D01*
X152677395Y-150393454D01*
X152493667Y-150430000D01*
X152306333Y-150430000D01*
X152122605Y-150393454D01*
X151949534Y-150321766D01*
X151872182Y-150270081D01*
X151793773Y-150217690D01*
X151661310Y-150085227D01*
X151557235Y-149929467D01*
X151557234Y-149929466D01*
X151485546Y-149756395D01*
X151449000Y-149572667D01*
X151449000Y-149385333D01*
X151485546Y-149201605D01*
X151557234Y-149028534D01*
X151661309Y-148872775D01*
X151661310Y-148872773D01*
X151793773Y-148740310D01*
X151949533Y-148636235D01*
X151949534Y-148636234D01*
X152122605Y-148564546D01*
X152306333Y-148528000D01*
X152493667Y-148528000D01*
X152677395Y-148564546D01*
X152677395Y-148564546D01*
G37*
G36*
X150811000Y-150430000D02*
G01*
X148909000Y-150430000D01*
X148909000Y-148528000D01*
X150811000Y-148528000D01*
X150811000Y-150430000D01*
X150811000Y-150430000D01*
G37*
G36*
X142517395Y-148564546D02*
G01*
X142690466Y-148636234D01*
X142690467Y-148636235D01*
X142846227Y-148740310D01*
X142978690Y-148872773D01*
X142978691Y-148872775D01*
X143082766Y-149028534D01*
X143154454Y-149201605D01*
X143191000Y-149385333D01*
X143191000Y-149572667D01*
X143154454Y-149756395D01*
X143082766Y-149929466D01*
X143082765Y-149929467D01*
X142978690Y-150085227D01*
X142846227Y-150217690D01*
X142767818Y-150270081D01*
X142690466Y-150321766D01*
X142517395Y-150393454D01*
X142333667Y-150430000D01*
X142146333Y-150430000D01*
X141962605Y-150393454D01*
X141789534Y-150321766D01*
X141712182Y-150270081D01*
X141633773Y-150217690D01*
X141501310Y-150085227D01*
X141397235Y-149929467D01*
X141397234Y-149929466D01*
X141325546Y-149756395D01*
X141289000Y-149572667D01*
X141289000Y-149385333D01*
X141325546Y-149201605D01*
X141397234Y-149028534D01*
X141501309Y-148872775D01*
X141501310Y-148872773D01*
X141633773Y-148740310D01*
X141789533Y-148636235D01*
X141789534Y-148636234D01*
X141962605Y-148564546D01*
X142146333Y-148528000D01*
X142333667Y-148528000D01*
X142517395Y-148564546D01*
X142517395Y-148564546D01*
G37*
G36*
X140651000Y-150430000D02*
G01*
X138749000Y-150430000D01*
X138749000Y-148528000D01*
X140651000Y-148528000D01*
X140651000Y-150430000D01*
X140651000Y-150430000D01*
G37*
G36*
X152677395Y-145516546D02*
G01*
X152850466Y-145588234D01*
X152850467Y-145588235D01*
X153006227Y-145692310D01*
X153138690Y-145824773D01*
X153138691Y-145824775D01*
X153242766Y-145980534D01*
X153314454Y-146153605D01*
X153351000Y-146337333D01*
X153351000Y-146524667D01*
X153314454Y-146708395D01*
X153242766Y-146881466D01*
X153242765Y-146881467D01*
X153138690Y-147037227D01*
X153006227Y-147169690D01*
X152927818Y-147222081D01*
X152850466Y-147273766D01*
X152677395Y-147345454D01*
X152493667Y-147382000D01*
X152306333Y-147382000D01*
X152122605Y-147345454D01*
X151949534Y-147273766D01*
X151872182Y-147222081D01*
X151793773Y-147169690D01*
X151661310Y-147037227D01*
X151557235Y-146881467D01*
X151557234Y-146881466D01*
X151485546Y-146708395D01*
X151449000Y-146524667D01*
X151449000Y-146337333D01*
X151485546Y-146153605D01*
X151557234Y-145980534D01*
X151661309Y-145824775D01*
X151661310Y-145824773D01*
X151793773Y-145692310D01*
X151949533Y-145588235D01*
X151949534Y-145588234D01*
X152122605Y-145516546D01*
X152306333Y-145480000D01*
X152493667Y-145480000D01*
X152677395Y-145516546D01*
X152677395Y-145516546D01*
G37*
G36*
X150811000Y-147382000D02*
G01*
X148909000Y-147382000D01*
X148909000Y-145480000D01*
X150811000Y-145480000D01*
X150811000Y-147382000D01*
X150811000Y-147382000D01*
G37*
G36*
X142517395Y-145516546D02*
G01*
X142690466Y-145588234D01*
X142690467Y-145588235D01*
X142846227Y-145692310D01*
X142978690Y-145824773D01*
X142978691Y-145824775D01*
X143082766Y-145980534D01*
X143154454Y-146153605D01*
X143191000Y-146337333D01*
X143191000Y-146524667D01*
X143154454Y-146708395D01*
X143082766Y-146881466D01*
X143082765Y-146881467D01*
X142978690Y-147037227D01*
X142846227Y-147169690D01*
X142767818Y-147222081D01*
X142690466Y-147273766D01*
X142517395Y-147345454D01*
X142333667Y-147382000D01*
X142146333Y-147382000D01*
X141962605Y-147345454D01*
X141789534Y-147273766D01*
X141712182Y-147222081D01*
X141633773Y-147169690D01*
X141501310Y-147037227D01*
X141397235Y-146881467D01*
X141397234Y-146881466D01*
X141325546Y-146708395D01*
X141289000Y-146524667D01*
X141289000Y-146337333D01*
X141325546Y-146153605D01*
X141397234Y-145980534D01*
X141501309Y-145824775D01*
X141501310Y-145824773D01*
X141633773Y-145692310D01*
X141789533Y-145588235D01*
X141789534Y-145588234D01*
X141962605Y-145516546D01*
X142146333Y-145480000D01*
X142333667Y-145480000D01*
X142517395Y-145516546D01*
X142517395Y-145516546D01*
G37*
G36*
X140651000Y-147382000D02*
G01*
X138749000Y-147382000D01*
X138749000Y-145480000D01*
X140651000Y-145480000D01*
X140651000Y-147382000D01*
X140651000Y-147382000D01*
G37*
G36*
X152677395Y-142341546D02*
G01*
X152850466Y-142413234D01*
X152850467Y-142413235D01*
X153006227Y-142517310D01*
X153138690Y-142649773D01*
X153138691Y-142649775D01*
X153242766Y-142805534D01*
X153314454Y-142978605D01*
X153351000Y-143162333D01*
X153351000Y-143349667D01*
X153314454Y-143533395D01*
X153242766Y-143706466D01*
X153242765Y-143706467D01*
X153138690Y-143862227D01*
X153006227Y-143994690D01*
X152927818Y-144047081D01*
X152850466Y-144098766D01*
X152677395Y-144170454D01*
X152493667Y-144207000D01*
X152306333Y-144207000D01*
X152122605Y-144170454D01*
X151949534Y-144098766D01*
X151872182Y-144047081D01*
X151793773Y-143994690D01*
X151661310Y-143862227D01*
X151557235Y-143706467D01*
X151557234Y-143706466D01*
X151485546Y-143533395D01*
X151449000Y-143349667D01*
X151449000Y-143162333D01*
X151485546Y-142978605D01*
X151557234Y-142805534D01*
X151661309Y-142649775D01*
X151661310Y-142649773D01*
X151793773Y-142517310D01*
X151949533Y-142413235D01*
X151949534Y-142413234D01*
X152122605Y-142341546D01*
X152306333Y-142305000D01*
X152493667Y-142305000D01*
X152677395Y-142341546D01*
X152677395Y-142341546D01*
G37*
G36*
X150811000Y-144207000D02*
G01*
X148909000Y-144207000D01*
X148909000Y-142305000D01*
X150811000Y-142305000D01*
X150811000Y-144207000D01*
X150811000Y-144207000D01*
G37*
G36*
X142517395Y-142341546D02*
G01*
X142690466Y-142413234D01*
X142690467Y-142413235D01*
X142846227Y-142517310D01*
X142978690Y-142649773D01*
X142978691Y-142649775D01*
X143082766Y-142805534D01*
X143154454Y-142978605D01*
X143191000Y-143162333D01*
X143191000Y-143349667D01*
X143154454Y-143533395D01*
X143082766Y-143706466D01*
X143082765Y-143706467D01*
X142978690Y-143862227D01*
X142846227Y-143994690D01*
X142767818Y-144047081D01*
X142690466Y-144098766D01*
X142517395Y-144170454D01*
X142333667Y-144207000D01*
X142146333Y-144207000D01*
X141962605Y-144170454D01*
X141789534Y-144098766D01*
X141712182Y-144047081D01*
X141633773Y-143994690D01*
X141501310Y-143862227D01*
X141397235Y-143706467D01*
X141397234Y-143706466D01*
X141325546Y-143533395D01*
X141289000Y-143349667D01*
X141289000Y-143162333D01*
X141325546Y-142978605D01*
X141397234Y-142805534D01*
X141501309Y-142649775D01*
X141501310Y-142649773D01*
X141633773Y-142517310D01*
X141789533Y-142413235D01*
X141789534Y-142413234D01*
X141962605Y-142341546D01*
X142146333Y-142305000D01*
X142333667Y-142305000D01*
X142517395Y-142341546D01*
X142517395Y-142341546D01*
G37*
G36*
X140651000Y-144207000D02*
G01*
X138749000Y-144207000D01*
X138749000Y-142305000D01*
X140651000Y-142305000D01*
X140651000Y-144207000D01*
X140651000Y-144207000D01*
G37*
G36*
X152677395Y-139166546D02*
G01*
X152850466Y-139238234D01*
X152850467Y-139238235D01*
X153006227Y-139342310D01*
X153138690Y-139474773D01*
X153138691Y-139474775D01*
X153242766Y-139630534D01*
X153314454Y-139803605D01*
X153351000Y-139987333D01*
X153351000Y-140174667D01*
X153314454Y-140358395D01*
X153242766Y-140531466D01*
X153242765Y-140531467D01*
X153138690Y-140687227D01*
X153006227Y-140819690D01*
X152927818Y-140872081D01*
X152850466Y-140923766D01*
X152677395Y-140995454D01*
X152493667Y-141032000D01*
X152306333Y-141032000D01*
X152122605Y-140995454D01*
X151949534Y-140923766D01*
X151872182Y-140872081D01*
X151793773Y-140819690D01*
X151661310Y-140687227D01*
X151557235Y-140531467D01*
X151557234Y-140531466D01*
X151485546Y-140358395D01*
X151449000Y-140174667D01*
X151449000Y-139987333D01*
X151485546Y-139803605D01*
X151557234Y-139630534D01*
X151661309Y-139474775D01*
X151661310Y-139474773D01*
X151793773Y-139342310D01*
X151949533Y-139238235D01*
X151949534Y-139238234D01*
X152122605Y-139166546D01*
X152306333Y-139130000D01*
X152493667Y-139130000D01*
X152677395Y-139166546D01*
X152677395Y-139166546D01*
G37*
G36*
X150811000Y-141032000D02*
G01*
X148909000Y-141032000D01*
X148909000Y-139130000D01*
X150811000Y-139130000D01*
X150811000Y-141032000D01*
X150811000Y-141032000D01*
G37*
G36*
X142517395Y-139166546D02*
G01*
X142690466Y-139238234D01*
X142690467Y-139238235D01*
X142846227Y-139342310D01*
X142978690Y-139474773D01*
X142978691Y-139474775D01*
X143082766Y-139630534D01*
X143154454Y-139803605D01*
X143191000Y-139987333D01*
X143191000Y-140174667D01*
X143154454Y-140358395D01*
X143082766Y-140531466D01*
X143082765Y-140531467D01*
X142978690Y-140687227D01*
X142846227Y-140819690D01*
X142767818Y-140872081D01*
X142690466Y-140923766D01*
X142517395Y-140995454D01*
X142333667Y-141032000D01*
X142146333Y-141032000D01*
X141962605Y-140995454D01*
X141789534Y-140923766D01*
X141712182Y-140872081D01*
X141633773Y-140819690D01*
X141501310Y-140687227D01*
X141397235Y-140531467D01*
X141397234Y-140531466D01*
X141325546Y-140358395D01*
X141289000Y-140174667D01*
X141289000Y-139987333D01*
X141325546Y-139803605D01*
X141397234Y-139630534D01*
X141501309Y-139474775D01*
X141501310Y-139474773D01*
X141633773Y-139342310D01*
X141789533Y-139238235D01*
X141789534Y-139238234D01*
X141962605Y-139166546D01*
X142146333Y-139130000D01*
X142333667Y-139130000D01*
X142517395Y-139166546D01*
X142517395Y-139166546D01*
G37*
G36*
X140651000Y-141032000D02*
G01*
X138749000Y-141032000D01*
X138749000Y-139130000D01*
X140651000Y-139130000D01*
X140651000Y-141032000D01*
X140651000Y-141032000D01*
G37*
G36*
X177628855Y-138925140D02*
G01*
X177692618Y-138931420D01*
X177783404Y-138958960D01*
X177815336Y-138968646D01*
X177928425Y-139029094D01*
X178027554Y-139110446D01*
X178108906Y-139209575D01*
X178169354Y-139322664D01*
X178169355Y-139322668D01*
X178206580Y-139445382D01*
X178219149Y-139573000D01*
X178206580Y-139700618D01*
X178179040Y-139791404D01*
X178169354Y-139823336D01*
X178108906Y-139936425D01*
X178027554Y-140035554D01*
X177928425Y-140116906D01*
X177815336Y-140177354D01*
X177783404Y-140187040D01*
X177692618Y-140214580D01*
X177628855Y-140220860D01*
X177596974Y-140224000D01*
X176733026Y-140224000D01*
X176701145Y-140220860D01*
X176637382Y-140214580D01*
X176546596Y-140187040D01*
X176514664Y-140177354D01*
X176401575Y-140116906D01*
X176302446Y-140035554D01*
X176221094Y-139936425D01*
X176160646Y-139823336D01*
X176150960Y-139791404D01*
X176123420Y-139700618D01*
X176110851Y-139573000D01*
X176123420Y-139445382D01*
X176160645Y-139322668D01*
X176160646Y-139322664D01*
X176221094Y-139209575D01*
X176302446Y-139110446D01*
X176401575Y-139029094D01*
X176514664Y-138968646D01*
X176546596Y-138958960D01*
X176637382Y-138931420D01*
X176701145Y-138925140D01*
X176733026Y-138922000D01*
X177596974Y-138922000D01*
X177628855Y-138925140D01*
X177628855Y-138925140D01*
G37*
G36*
X182708855Y-138925140D02*
G01*
X182772618Y-138931420D01*
X182863404Y-138958960D01*
X182895336Y-138968646D01*
X183008425Y-139029094D01*
X183107554Y-139110446D01*
X183188906Y-139209575D01*
X183249354Y-139322664D01*
X183249355Y-139322668D01*
X183286580Y-139445382D01*
X183299149Y-139573000D01*
X183286580Y-139700618D01*
X183259040Y-139791404D01*
X183249354Y-139823336D01*
X183188906Y-139936425D01*
X183107554Y-140035554D01*
X183008425Y-140116906D01*
X182895336Y-140177354D01*
X182863404Y-140187040D01*
X182772618Y-140214580D01*
X182708855Y-140220860D01*
X182676974Y-140224000D01*
X181813026Y-140224000D01*
X181781145Y-140220860D01*
X181717382Y-140214580D01*
X181626596Y-140187040D01*
X181594664Y-140177354D01*
X181481575Y-140116906D01*
X181382446Y-140035554D01*
X181301094Y-139936425D01*
X181240646Y-139823336D01*
X181230960Y-139791404D01*
X181203420Y-139700618D01*
X181190851Y-139573000D01*
X181203420Y-139445382D01*
X181240645Y-139322668D01*
X181240646Y-139322664D01*
X181301094Y-139209575D01*
X181382446Y-139110446D01*
X181481575Y-139029094D01*
X181594664Y-138968646D01*
X181626596Y-138958960D01*
X181717382Y-138931420D01*
X181781145Y-138925140D01*
X181813026Y-138922000D01*
X182676974Y-138922000D01*
X182708855Y-138925140D01*
X182708855Y-138925140D01*
G37*
G36*
X152677395Y-135991546D02*
G01*
X152850466Y-136063234D01*
X152850467Y-136063235D01*
X153006227Y-136167310D01*
X153138690Y-136299773D01*
X153138691Y-136299775D01*
X153242766Y-136455534D01*
X153314454Y-136628605D01*
X153351000Y-136812333D01*
X153351000Y-136999667D01*
X153314454Y-137183395D01*
X153242766Y-137356466D01*
X153191081Y-137433818D01*
X153138690Y-137512227D01*
X153006227Y-137644690D01*
X152961493Y-137674580D01*
X152850466Y-137748766D01*
X152677395Y-137820454D01*
X152493667Y-137857000D01*
X152306333Y-137857000D01*
X152122605Y-137820454D01*
X151949534Y-137748766D01*
X151838507Y-137674580D01*
X151793773Y-137644690D01*
X151661310Y-137512227D01*
X151608919Y-137433818D01*
X151557234Y-137356466D01*
X151485546Y-137183395D01*
X151449000Y-136999667D01*
X151449000Y-136812333D01*
X151485546Y-136628605D01*
X151557234Y-136455534D01*
X151661309Y-136299775D01*
X151661310Y-136299773D01*
X151793773Y-136167310D01*
X151949533Y-136063235D01*
X151949534Y-136063234D01*
X152122605Y-135991546D01*
X152306333Y-135955000D01*
X152493667Y-135955000D01*
X152677395Y-135991546D01*
X152677395Y-135991546D01*
G37*
G36*
X150811000Y-137857000D02*
G01*
X148909000Y-137857000D01*
X148909000Y-135955000D01*
X150811000Y-135955000D01*
X150811000Y-137857000D01*
X150811000Y-137857000D01*
G37*
G36*
X142517395Y-135991546D02*
G01*
X142690466Y-136063234D01*
X142690467Y-136063235D01*
X142846227Y-136167310D01*
X142978690Y-136299773D01*
X142978691Y-136299775D01*
X143082766Y-136455534D01*
X143154454Y-136628605D01*
X143191000Y-136812333D01*
X143191000Y-136999667D01*
X143154454Y-137183395D01*
X143082766Y-137356466D01*
X143031081Y-137433818D01*
X142978690Y-137512227D01*
X142846227Y-137644690D01*
X142801493Y-137674580D01*
X142690466Y-137748766D01*
X142517395Y-137820454D01*
X142333667Y-137857000D01*
X142146333Y-137857000D01*
X141962605Y-137820454D01*
X141789534Y-137748766D01*
X141678507Y-137674580D01*
X141633773Y-137644690D01*
X141501310Y-137512227D01*
X141448919Y-137433818D01*
X141397234Y-137356466D01*
X141325546Y-137183395D01*
X141289000Y-136999667D01*
X141289000Y-136812333D01*
X141325546Y-136628605D01*
X141397234Y-136455534D01*
X141501309Y-136299775D01*
X141501310Y-136299773D01*
X141633773Y-136167310D01*
X141789533Y-136063235D01*
X141789534Y-136063234D01*
X141962605Y-135991546D01*
X142146333Y-135955000D01*
X142333667Y-135955000D01*
X142517395Y-135991546D01*
X142517395Y-135991546D01*
G37*
G36*
X140651000Y-137857000D02*
G01*
X138749000Y-137857000D01*
X138749000Y-135955000D01*
X140651000Y-135955000D01*
X140651000Y-137857000D01*
X140651000Y-137857000D01*
G37*
G36*
X177628855Y-136385140D02*
G01*
X177692618Y-136391420D01*
X177783404Y-136418960D01*
X177815336Y-136428646D01*
X177928425Y-136489094D01*
X178027554Y-136570446D01*
X178108906Y-136669575D01*
X178169354Y-136782664D01*
X178169355Y-136782668D01*
X178206580Y-136905382D01*
X178219149Y-137033000D01*
X178206580Y-137160618D01*
X178199670Y-137183396D01*
X178169354Y-137283336D01*
X178108906Y-137396425D01*
X178027554Y-137495554D01*
X177928425Y-137576906D01*
X177815336Y-137637354D01*
X177791152Y-137644690D01*
X177692618Y-137674580D01*
X177628855Y-137680860D01*
X177596974Y-137684000D01*
X176733026Y-137684000D01*
X176701145Y-137680860D01*
X176637382Y-137674580D01*
X176538848Y-137644690D01*
X176514664Y-137637354D01*
X176401575Y-137576906D01*
X176302446Y-137495554D01*
X176221094Y-137396425D01*
X176160646Y-137283336D01*
X176130330Y-137183396D01*
X176123420Y-137160618D01*
X176110851Y-137033000D01*
X176123420Y-136905382D01*
X176160645Y-136782668D01*
X176160646Y-136782664D01*
X176221094Y-136669575D01*
X176302446Y-136570446D01*
X176401575Y-136489094D01*
X176514664Y-136428646D01*
X176546596Y-136418960D01*
X176637382Y-136391420D01*
X176701145Y-136385140D01*
X176733026Y-136382000D01*
X177596974Y-136382000D01*
X177628855Y-136385140D01*
X177628855Y-136385140D01*
G37*
G36*
X182708855Y-136385140D02*
G01*
X182772618Y-136391420D01*
X182863404Y-136418960D01*
X182895336Y-136428646D01*
X183008425Y-136489094D01*
X183107554Y-136570446D01*
X183188906Y-136669575D01*
X183249354Y-136782664D01*
X183249355Y-136782668D01*
X183286580Y-136905382D01*
X183299149Y-137033000D01*
X183286580Y-137160618D01*
X183279670Y-137183396D01*
X183249354Y-137283336D01*
X183188906Y-137396425D01*
X183107554Y-137495554D01*
X183008425Y-137576906D01*
X182895336Y-137637354D01*
X182871152Y-137644690D01*
X182772618Y-137674580D01*
X182708855Y-137680860D01*
X182676974Y-137684000D01*
X181813026Y-137684000D01*
X181781145Y-137680860D01*
X181717382Y-137674580D01*
X181618848Y-137644690D01*
X181594664Y-137637354D01*
X181481575Y-137576906D01*
X181382446Y-137495554D01*
X181301094Y-137396425D01*
X181240646Y-137283336D01*
X181210330Y-137183396D01*
X181203420Y-137160618D01*
X181190851Y-137033000D01*
X181203420Y-136905382D01*
X181240645Y-136782668D01*
X181240646Y-136782664D01*
X181301094Y-136669575D01*
X181382446Y-136570446D01*
X181481575Y-136489094D01*
X181594664Y-136428646D01*
X181626596Y-136418960D01*
X181717382Y-136391420D01*
X181781145Y-136385140D01*
X181813026Y-136382000D01*
X182676974Y-136382000D01*
X182708855Y-136385140D01*
X182708855Y-136385140D01*
G37*
G36*
X177628855Y-133845140D02*
G01*
X177692618Y-133851420D01*
X177783404Y-133878960D01*
X177815336Y-133888646D01*
X177928425Y-133949094D01*
X178027554Y-134030446D01*
X178108906Y-134129575D01*
X178169354Y-134242664D01*
X178169355Y-134242668D01*
X178206580Y-134365382D01*
X178219149Y-134493000D01*
X178206580Y-134620618D01*
X178179040Y-134711404D01*
X178169354Y-134743336D01*
X178108906Y-134856425D01*
X178027554Y-134955554D01*
X177928425Y-135036906D01*
X177815336Y-135097354D01*
X177783404Y-135107040D01*
X177692618Y-135134580D01*
X177628855Y-135140860D01*
X177596974Y-135144000D01*
X176733026Y-135144000D01*
X176701145Y-135140860D01*
X176637382Y-135134580D01*
X176546596Y-135107040D01*
X176514664Y-135097354D01*
X176401575Y-135036906D01*
X176302446Y-134955554D01*
X176221094Y-134856425D01*
X176160646Y-134743336D01*
X176150960Y-134711404D01*
X176123420Y-134620618D01*
X176110851Y-134493000D01*
X176123420Y-134365382D01*
X176160645Y-134242668D01*
X176160646Y-134242664D01*
X176221094Y-134129575D01*
X176302446Y-134030446D01*
X176401575Y-133949094D01*
X176514664Y-133888646D01*
X176546596Y-133878960D01*
X176637382Y-133851420D01*
X176701145Y-133845140D01*
X176733026Y-133842000D01*
X177596974Y-133842000D01*
X177628855Y-133845140D01*
X177628855Y-133845140D01*
G37*
G36*
X182708855Y-133845140D02*
G01*
X182772618Y-133851420D01*
X182863404Y-133878960D01*
X182895336Y-133888646D01*
X183008425Y-133949094D01*
X183107554Y-134030446D01*
X183188906Y-134129575D01*
X183249354Y-134242664D01*
X183249355Y-134242668D01*
X183286580Y-134365382D01*
X183299149Y-134493000D01*
X183286580Y-134620618D01*
X183259040Y-134711404D01*
X183249354Y-134743336D01*
X183188906Y-134856425D01*
X183107554Y-134955554D01*
X183008425Y-135036906D01*
X182895336Y-135097354D01*
X182863404Y-135107040D01*
X182772618Y-135134580D01*
X182708855Y-135140860D01*
X182676974Y-135144000D01*
X181813026Y-135144000D01*
X181781145Y-135140860D01*
X181717382Y-135134580D01*
X181626596Y-135107040D01*
X181594664Y-135097354D01*
X181481575Y-135036906D01*
X181382446Y-134955554D01*
X181301094Y-134856425D01*
X181240646Y-134743336D01*
X181230960Y-134711404D01*
X181203420Y-134620618D01*
X181190851Y-134493000D01*
X181203420Y-134365382D01*
X181240645Y-134242668D01*
X181240646Y-134242664D01*
X181301094Y-134129575D01*
X181382446Y-134030446D01*
X181481575Y-133949094D01*
X181594664Y-133888646D01*
X181626596Y-133878960D01*
X181717382Y-133851420D01*
X181781145Y-133845140D01*
X181813026Y-133842000D01*
X182676974Y-133842000D01*
X182708855Y-133845140D01*
X182708855Y-133845140D01*
G37*
G36*
X182708855Y-131305140D02*
G01*
X182772618Y-131311420D01*
X182863404Y-131338960D01*
X182895336Y-131348646D01*
X183008425Y-131409094D01*
X183107554Y-131490446D01*
X183188906Y-131589575D01*
X183249354Y-131702664D01*
X183249355Y-131702668D01*
X183286580Y-131825382D01*
X183299149Y-131953000D01*
X183286580Y-132080618D01*
X183259040Y-132171404D01*
X183249354Y-132203336D01*
X183188906Y-132316425D01*
X183107554Y-132415554D01*
X183008425Y-132496906D01*
X182895336Y-132557354D01*
X182863404Y-132567040D01*
X182772618Y-132594580D01*
X182708855Y-132600860D01*
X182676974Y-132604000D01*
X181813026Y-132604000D01*
X181781145Y-132600860D01*
X181717382Y-132594580D01*
X181626596Y-132567040D01*
X181594664Y-132557354D01*
X181481575Y-132496906D01*
X181382446Y-132415554D01*
X181301094Y-132316425D01*
X181240646Y-132203336D01*
X181230960Y-132171404D01*
X181203420Y-132080618D01*
X181190851Y-131953000D01*
X181203420Y-131825382D01*
X181240645Y-131702668D01*
X181240646Y-131702664D01*
X181301094Y-131589575D01*
X181382446Y-131490446D01*
X181481575Y-131409094D01*
X181594664Y-131348646D01*
X181626596Y-131338960D01*
X181717382Y-131311420D01*
X181781145Y-131305140D01*
X181813026Y-131302000D01*
X182676974Y-131302000D01*
X182708855Y-131305140D01*
X182708855Y-131305140D01*
G37*
G36*
X177628855Y-131305140D02*
G01*
X177692618Y-131311420D01*
X177783404Y-131338960D01*
X177815336Y-131348646D01*
X177928425Y-131409094D01*
X178027554Y-131490446D01*
X178108906Y-131589575D01*
X178169354Y-131702664D01*
X178169355Y-131702668D01*
X178206580Y-131825382D01*
X178219149Y-131953000D01*
X178206580Y-132080618D01*
X178179040Y-132171404D01*
X178169354Y-132203336D01*
X178108906Y-132316425D01*
X178027554Y-132415554D01*
X177928425Y-132496906D01*
X177815336Y-132557354D01*
X177783404Y-132567040D01*
X177692618Y-132594580D01*
X177628855Y-132600860D01*
X177596974Y-132604000D01*
X176733026Y-132604000D01*
X176701145Y-132600860D01*
X176637382Y-132594580D01*
X176546596Y-132567040D01*
X176514664Y-132557354D01*
X176401575Y-132496906D01*
X176302446Y-132415554D01*
X176221094Y-132316425D01*
X176160646Y-132203336D01*
X176150960Y-132171404D01*
X176123420Y-132080618D01*
X176110851Y-131953000D01*
X176123420Y-131825382D01*
X176160645Y-131702668D01*
X176160646Y-131702664D01*
X176221094Y-131589575D01*
X176302446Y-131490446D01*
X176401575Y-131409094D01*
X176514664Y-131348646D01*
X176546596Y-131338960D01*
X176637382Y-131311420D01*
X176701145Y-131305140D01*
X176733026Y-131302000D01*
X177596974Y-131302000D01*
X177628855Y-131305140D01*
X177628855Y-131305140D01*
G37*
G36*
X142517395Y-129641546D02*
G01*
X142690466Y-129713234D01*
X142690467Y-129713235D01*
X142846227Y-129817310D01*
X142978690Y-129949773D01*
X142978691Y-129949775D01*
X143082766Y-130105534D01*
X143154454Y-130278605D01*
X143191000Y-130462333D01*
X143191000Y-130649667D01*
X143154454Y-130833395D01*
X143082766Y-131006466D01*
X143082765Y-131006467D01*
X142978690Y-131162227D01*
X142846227Y-131294690D01*
X142767818Y-131347081D01*
X142690466Y-131398766D01*
X142517395Y-131470454D01*
X142333667Y-131507000D01*
X142146333Y-131507000D01*
X141962605Y-131470454D01*
X141789534Y-131398766D01*
X141712182Y-131347081D01*
X141633773Y-131294690D01*
X141501310Y-131162227D01*
X141397235Y-131006467D01*
X141397234Y-131006466D01*
X141325546Y-130833395D01*
X141289000Y-130649667D01*
X141289000Y-130462333D01*
X141325546Y-130278605D01*
X141397234Y-130105534D01*
X141501309Y-129949775D01*
X141501310Y-129949773D01*
X141633773Y-129817310D01*
X141789533Y-129713235D01*
X141789534Y-129713234D01*
X141962605Y-129641546D01*
X142146333Y-129605000D01*
X142333667Y-129605000D01*
X142517395Y-129641546D01*
X142517395Y-129641546D01*
G37*
G36*
X152677395Y-129641546D02*
G01*
X152850466Y-129713234D01*
X152850467Y-129713235D01*
X153006227Y-129817310D01*
X153138690Y-129949773D01*
X153138691Y-129949775D01*
X153242766Y-130105534D01*
X153314454Y-130278605D01*
X153351000Y-130462333D01*
X153351000Y-130649667D01*
X153314454Y-130833395D01*
X153242766Y-131006466D01*
X153242765Y-131006467D01*
X153138690Y-131162227D01*
X153006227Y-131294690D01*
X152927818Y-131347081D01*
X152850466Y-131398766D01*
X152677395Y-131470454D01*
X152493667Y-131507000D01*
X152306333Y-131507000D01*
X152122605Y-131470454D01*
X151949534Y-131398766D01*
X151872182Y-131347081D01*
X151793773Y-131294690D01*
X151661310Y-131162227D01*
X151557235Y-131006467D01*
X151557234Y-131006466D01*
X151485546Y-130833395D01*
X151449000Y-130649667D01*
X151449000Y-130462333D01*
X151485546Y-130278605D01*
X151557234Y-130105534D01*
X151661309Y-129949775D01*
X151661310Y-129949773D01*
X151793773Y-129817310D01*
X151949533Y-129713235D01*
X151949534Y-129713234D01*
X152122605Y-129641546D01*
X152306333Y-129605000D01*
X152493667Y-129605000D01*
X152677395Y-129641546D01*
X152677395Y-129641546D01*
G37*
G36*
X150811000Y-131507000D02*
G01*
X148909000Y-131507000D01*
X148909000Y-129605000D01*
X150811000Y-129605000D01*
X150811000Y-131507000D01*
X150811000Y-131507000D01*
G37*
G36*
X140651000Y-131507000D02*
G01*
X138749000Y-131507000D01*
X138749000Y-129605000D01*
X140651000Y-129605000D01*
X140651000Y-131507000D01*
X140651000Y-131507000D01*
G37*
G36*
X177628855Y-128765140D02*
G01*
X177692618Y-128771420D01*
X177783404Y-128798960D01*
X177815336Y-128808646D01*
X177928425Y-128869094D01*
X178027554Y-128950446D01*
X178108906Y-129049575D01*
X178169354Y-129162664D01*
X178169355Y-129162668D01*
X178206580Y-129285382D01*
X178219149Y-129413000D01*
X178206580Y-129540618D01*
X178187050Y-129605000D01*
X178169354Y-129663336D01*
X178108906Y-129776425D01*
X178027554Y-129875554D01*
X177928425Y-129956906D01*
X177815336Y-130017354D01*
X177783404Y-130027040D01*
X177692618Y-130054580D01*
X177628855Y-130060860D01*
X177596974Y-130064000D01*
X176733026Y-130064000D01*
X176701145Y-130060860D01*
X176637382Y-130054580D01*
X176546596Y-130027040D01*
X176514664Y-130017354D01*
X176401575Y-129956906D01*
X176302446Y-129875554D01*
X176221094Y-129776425D01*
X176160646Y-129663336D01*
X176142950Y-129605000D01*
X176123420Y-129540618D01*
X176110851Y-129413000D01*
X176123420Y-129285382D01*
X176160645Y-129162668D01*
X176160646Y-129162664D01*
X176221094Y-129049575D01*
X176302446Y-128950446D01*
X176401575Y-128869094D01*
X176514664Y-128808646D01*
X176546596Y-128798960D01*
X176637382Y-128771420D01*
X176701145Y-128765140D01*
X176733026Y-128762000D01*
X177596974Y-128762000D01*
X177628855Y-128765140D01*
X177628855Y-128765140D01*
G37*
G36*
X182708855Y-128765140D02*
G01*
X182772618Y-128771420D01*
X182863404Y-128798960D01*
X182895336Y-128808646D01*
X183008425Y-128869094D01*
X183107554Y-128950446D01*
X183188906Y-129049575D01*
X183249354Y-129162664D01*
X183249355Y-129162668D01*
X183286580Y-129285382D01*
X183299149Y-129413000D01*
X183286580Y-129540618D01*
X183267050Y-129605000D01*
X183249354Y-129663336D01*
X183188906Y-129776425D01*
X183107554Y-129875554D01*
X183008425Y-129956906D01*
X182895336Y-130017354D01*
X182863404Y-130027040D01*
X182772618Y-130054580D01*
X182708855Y-130060860D01*
X182676974Y-130064000D01*
X181813026Y-130064000D01*
X181781145Y-130060860D01*
X181717382Y-130054580D01*
X181626596Y-130027040D01*
X181594664Y-130017354D01*
X181481575Y-129956906D01*
X181382446Y-129875554D01*
X181301094Y-129776425D01*
X181240646Y-129663336D01*
X181222950Y-129605000D01*
X181203420Y-129540618D01*
X181190851Y-129413000D01*
X181203420Y-129285382D01*
X181240645Y-129162668D01*
X181240646Y-129162664D01*
X181301094Y-129049575D01*
X181382446Y-128950446D01*
X181481575Y-128869094D01*
X181594664Y-128808646D01*
X181626596Y-128798960D01*
X181717382Y-128771420D01*
X181781145Y-128765140D01*
X181813026Y-128762000D01*
X182676974Y-128762000D01*
X182708855Y-128765140D01*
X182708855Y-128765140D01*
G37*
G36*
X152677395Y-126466546D02*
G01*
X152850466Y-126538234D01*
X152850467Y-126538235D01*
X153006227Y-126642310D01*
X153138690Y-126774773D01*
X153138691Y-126774775D01*
X153242766Y-126930534D01*
X153314454Y-127103605D01*
X153351000Y-127287333D01*
X153351000Y-127474667D01*
X153314454Y-127658395D01*
X153242766Y-127831466D01*
X153242765Y-127831467D01*
X153138690Y-127987227D01*
X153006227Y-128119690D01*
X152927818Y-128172081D01*
X152850466Y-128223766D01*
X152677395Y-128295454D01*
X152493667Y-128332000D01*
X152306333Y-128332000D01*
X152122605Y-128295454D01*
X151949534Y-128223766D01*
X151872182Y-128172081D01*
X151793773Y-128119690D01*
X151661310Y-127987227D01*
X151557235Y-127831467D01*
X151557234Y-127831466D01*
X151485546Y-127658395D01*
X151449000Y-127474667D01*
X151449000Y-127287333D01*
X151485546Y-127103605D01*
X151557234Y-126930534D01*
X151661309Y-126774775D01*
X151661310Y-126774773D01*
X151793773Y-126642310D01*
X151949533Y-126538235D01*
X151949534Y-126538234D01*
X152122605Y-126466546D01*
X152306333Y-126430000D01*
X152493667Y-126430000D01*
X152677395Y-126466546D01*
X152677395Y-126466546D01*
G37*
G36*
X150811000Y-128332000D02*
G01*
X148909000Y-128332000D01*
X148909000Y-126430000D01*
X150811000Y-126430000D01*
X150811000Y-128332000D01*
X150811000Y-128332000D01*
G37*
G36*
X142517395Y-126466546D02*
G01*
X142690466Y-126538234D01*
X142690467Y-126538235D01*
X142846227Y-126642310D01*
X142978690Y-126774773D01*
X142978691Y-126774775D01*
X143082766Y-126930534D01*
X143154454Y-127103605D01*
X143191000Y-127287333D01*
X143191000Y-127474667D01*
X143154454Y-127658395D01*
X143082766Y-127831466D01*
X143082765Y-127831467D01*
X142978690Y-127987227D01*
X142846227Y-128119690D01*
X142767818Y-128172081D01*
X142690466Y-128223766D01*
X142517395Y-128295454D01*
X142333667Y-128332000D01*
X142146333Y-128332000D01*
X141962605Y-128295454D01*
X141789534Y-128223766D01*
X141712182Y-128172081D01*
X141633773Y-128119690D01*
X141501310Y-127987227D01*
X141397235Y-127831467D01*
X141397234Y-127831466D01*
X141325546Y-127658395D01*
X141289000Y-127474667D01*
X141289000Y-127287333D01*
X141325546Y-127103605D01*
X141397234Y-126930534D01*
X141501309Y-126774775D01*
X141501310Y-126774773D01*
X141633773Y-126642310D01*
X141789533Y-126538235D01*
X141789534Y-126538234D01*
X141962605Y-126466546D01*
X142146333Y-126430000D01*
X142333667Y-126430000D01*
X142517395Y-126466546D01*
X142517395Y-126466546D01*
G37*
G36*
X140651000Y-128332000D02*
G01*
X138749000Y-128332000D01*
X138749000Y-126430000D01*
X140651000Y-126430000D01*
X140651000Y-128332000D01*
X140651000Y-128332000D01*
G37*
G36*
X182708855Y-126225140D02*
G01*
X182772618Y-126231420D01*
X182863404Y-126258960D01*
X182895336Y-126268646D01*
X183008425Y-126329094D01*
X183107554Y-126410446D01*
X183188906Y-126509575D01*
X183249354Y-126622664D01*
X183249355Y-126622668D01*
X183286580Y-126745382D01*
X183299149Y-126873000D01*
X183286580Y-127000618D01*
X183259040Y-127091404D01*
X183249354Y-127123336D01*
X183188906Y-127236425D01*
X183107554Y-127335554D01*
X183008425Y-127416906D01*
X182895336Y-127477354D01*
X182863404Y-127487040D01*
X182772618Y-127514580D01*
X182708855Y-127520860D01*
X182676974Y-127524000D01*
X181813026Y-127524000D01*
X181781145Y-127520860D01*
X181717382Y-127514580D01*
X181626596Y-127487040D01*
X181594664Y-127477354D01*
X181481575Y-127416906D01*
X181382446Y-127335554D01*
X181301094Y-127236425D01*
X181240646Y-127123336D01*
X181230960Y-127091404D01*
X181203420Y-127000618D01*
X181190851Y-126873000D01*
X181203420Y-126745382D01*
X181240645Y-126622668D01*
X181240646Y-126622664D01*
X181301094Y-126509575D01*
X181382446Y-126410446D01*
X181481575Y-126329094D01*
X181594664Y-126268646D01*
X181626596Y-126258960D01*
X181717382Y-126231420D01*
X181781145Y-126225140D01*
X181813026Y-126222000D01*
X182676974Y-126222000D01*
X182708855Y-126225140D01*
X182708855Y-126225140D01*
G37*
G36*
X177628855Y-126225140D02*
G01*
X177692618Y-126231420D01*
X177783404Y-126258960D01*
X177815336Y-126268646D01*
X177928425Y-126329094D01*
X178027554Y-126410446D01*
X178108906Y-126509575D01*
X178169354Y-126622664D01*
X178169355Y-126622668D01*
X178206580Y-126745382D01*
X178219149Y-126873000D01*
X178206580Y-127000618D01*
X178179040Y-127091404D01*
X178169354Y-127123336D01*
X178108906Y-127236425D01*
X178027554Y-127335554D01*
X177928425Y-127416906D01*
X177815336Y-127477354D01*
X177783404Y-127487040D01*
X177692618Y-127514580D01*
X177628855Y-127520860D01*
X177596974Y-127524000D01*
X176733026Y-127524000D01*
X176701145Y-127520860D01*
X176637382Y-127514580D01*
X176546596Y-127487040D01*
X176514664Y-127477354D01*
X176401575Y-127416906D01*
X176302446Y-127335554D01*
X176221094Y-127236425D01*
X176160646Y-127123336D01*
X176150960Y-127091404D01*
X176123420Y-127000618D01*
X176110851Y-126873000D01*
X176123420Y-126745382D01*
X176160645Y-126622668D01*
X176160646Y-126622664D01*
X176221094Y-126509575D01*
X176302446Y-126410446D01*
X176401575Y-126329094D01*
X176514664Y-126268646D01*
X176546596Y-126258960D01*
X176637382Y-126231420D01*
X176701145Y-126225140D01*
X176733026Y-126222000D01*
X177596974Y-126222000D01*
X177628855Y-126225140D01*
X177628855Y-126225140D01*
G37*
G36*
X182708855Y-123685140D02*
G01*
X182772618Y-123691420D01*
X182863404Y-123718960D01*
X182895336Y-123728646D01*
X183008425Y-123789094D01*
X183107554Y-123870446D01*
X183188906Y-123969575D01*
X183249354Y-124082664D01*
X183249355Y-124082668D01*
X183286580Y-124205382D01*
X183299149Y-124333000D01*
X183286580Y-124460618D01*
X183259040Y-124551404D01*
X183249354Y-124583336D01*
X183188906Y-124696425D01*
X183107554Y-124795554D01*
X183008425Y-124876906D01*
X182895336Y-124937354D01*
X182863404Y-124947040D01*
X182772618Y-124974580D01*
X182708855Y-124980860D01*
X182676974Y-124984000D01*
X181813026Y-124984000D01*
X181781145Y-124980860D01*
X181717382Y-124974580D01*
X181626596Y-124947040D01*
X181594664Y-124937354D01*
X181481575Y-124876906D01*
X181382446Y-124795554D01*
X181301094Y-124696425D01*
X181240646Y-124583336D01*
X181230960Y-124551404D01*
X181203420Y-124460618D01*
X181190851Y-124333000D01*
X181203420Y-124205382D01*
X181240645Y-124082668D01*
X181240646Y-124082664D01*
X181301094Y-123969575D01*
X181382446Y-123870446D01*
X181481575Y-123789094D01*
X181594664Y-123728646D01*
X181626596Y-123718960D01*
X181717382Y-123691420D01*
X181781145Y-123685140D01*
X181813026Y-123682000D01*
X182676974Y-123682000D01*
X182708855Y-123685140D01*
X182708855Y-123685140D01*
G37*
G36*
X177628855Y-123685140D02*
G01*
X177692618Y-123691420D01*
X177783404Y-123718960D01*
X177815336Y-123728646D01*
X177928425Y-123789094D01*
X178027554Y-123870446D01*
X178108906Y-123969575D01*
X178169354Y-124082664D01*
X178169355Y-124082668D01*
X178206580Y-124205382D01*
X178219149Y-124333000D01*
X178206580Y-124460618D01*
X178179040Y-124551404D01*
X178169354Y-124583336D01*
X178108906Y-124696425D01*
X178027554Y-124795554D01*
X177928425Y-124876906D01*
X177815336Y-124937354D01*
X177783404Y-124947040D01*
X177692618Y-124974580D01*
X177628855Y-124980860D01*
X177596974Y-124984000D01*
X176733026Y-124984000D01*
X176701145Y-124980860D01*
X176637382Y-124974580D01*
X176546596Y-124947040D01*
X176514664Y-124937354D01*
X176401575Y-124876906D01*
X176302446Y-124795554D01*
X176221094Y-124696425D01*
X176160646Y-124583336D01*
X176150960Y-124551404D01*
X176123420Y-124460618D01*
X176110851Y-124333000D01*
X176123420Y-124205382D01*
X176160645Y-124082668D01*
X176160646Y-124082664D01*
X176221094Y-123969575D01*
X176302446Y-123870446D01*
X176401575Y-123789094D01*
X176514664Y-123728646D01*
X176546596Y-123718960D01*
X176637382Y-123691420D01*
X176701145Y-123685140D01*
X176733026Y-123682000D01*
X177596974Y-123682000D01*
X177628855Y-123685140D01*
X177628855Y-123685140D01*
G37*
G36*
X182708855Y-121145140D02*
G01*
X182772618Y-121151420D01*
X182863404Y-121178960D01*
X182895336Y-121188646D01*
X183008425Y-121249094D01*
X183107554Y-121330446D01*
X183188906Y-121429575D01*
X183249354Y-121542664D01*
X183249355Y-121542668D01*
X183286580Y-121665382D01*
X183299149Y-121793000D01*
X183286580Y-121920618D01*
X183279046Y-121945453D01*
X183249354Y-122043336D01*
X183188906Y-122156425D01*
X183107554Y-122255554D01*
X183008425Y-122336906D01*
X182895336Y-122397354D01*
X182863404Y-122407040D01*
X182772618Y-122434580D01*
X182708855Y-122440860D01*
X182676974Y-122444000D01*
X181813026Y-122444000D01*
X181781145Y-122440860D01*
X181717382Y-122434580D01*
X181626596Y-122407040D01*
X181594664Y-122397354D01*
X181481575Y-122336906D01*
X181382446Y-122255554D01*
X181301094Y-122156425D01*
X181240646Y-122043336D01*
X181210954Y-121945453D01*
X181203420Y-121920618D01*
X181190851Y-121793000D01*
X181203420Y-121665382D01*
X181240645Y-121542668D01*
X181240646Y-121542664D01*
X181301094Y-121429575D01*
X181382446Y-121330446D01*
X181481575Y-121249094D01*
X181594664Y-121188646D01*
X181626596Y-121178960D01*
X181717382Y-121151420D01*
X181781145Y-121145140D01*
X181813026Y-121142000D01*
X182676974Y-121142000D01*
X182708855Y-121145140D01*
X182708855Y-121145140D01*
G37*
G36*
X177628855Y-121145140D02*
G01*
X177692618Y-121151420D01*
X177783404Y-121178960D01*
X177815336Y-121188646D01*
X177928425Y-121249094D01*
X178027554Y-121330446D01*
X178108906Y-121429575D01*
X178169354Y-121542664D01*
X178169355Y-121542668D01*
X178206580Y-121665382D01*
X178219149Y-121793000D01*
X178206580Y-121920618D01*
X178199046Y-121945453D01*
X178169354Y-122043336D01*
X178108906Y-122156425D01*
X178027554Y-122255554D01*
X177928425Y-122336906D01*
X177815336Y-122397354D01*
X177783404Y-122407040D01*
X177692618Y-122434580D01*
X177628855Y-122440860D01*
X177596974Y-122444000D01*
X176733026Y-122444000D01*
X176701145Y-122440860D01*
X176637382Y-122434580D01*
X176546596Y-122407040D01*
X176514664Y-122397354D01*
X176401575Y-122336906D01*
X176302446Y-122255554D01*
X176221094Y-122156425D01*
X176160646Y-122043336D01*
X176130954Y-121945453D01*
X176123420Y-121920618D01*
X176110851Y-121793000D01*
X176123420Y-121665382D01*
X176160645Y-121542668D01*
X176160646Y-121542664D01*
X176221094Y-121429575D01*
X176302446Y-121330446D01*
X176401575Y-121249094D01*
X176514664Y-121188646D01*
X176546596Y-121178960D01*
X176637382Y-121151420D01*
X176701145Y-121145140D01*
X176733026Y-121142000D01*
X177596974Y-121142000D01*
X177628855Y-121145140D01*
X177628855Y-121145140D01*
G37*
G36*
X150811000Y-121982000D02*
G01*
X148909000Y-121982000D01*
X148909000Y-120080000D01*
X150811000Y-120080000D01*
X150811000Y-121982000D01*
X150811000Y-121982000D01*
G37*
G36*
X152677395Y-120116546D02*
G01*
X152850466Y-120188234D01*
X152850467Y-120188235D01*
X153006227Y-120292310D01*
X153138690Y-120424773D01*
X153138691Y-120424775D01*
X153242766Y-120580534D01*
X153314454Y-120753605D01*
X153351000Y-120937333D01*
X153351000Y-121124667D01*
X153314454Y-121308395D01*
X153242766Y-121481466D01*
X153242765Y-121481467D01*
X153138690Y-121637227D01*
X153006227Y-121769690D01*
X152971341Y-121793000D01*
X152850466Y-121873766D01*
X152677395Y-121945454D01*
X152493667Y-121982000D01*
X152306333Y-121982000D01*
X152122605Y-121945454D01*
X151949534Y-121873766D01*
X151828659Y-121793000D01*
X151793773Y-121769690D01*
X151661310Y-121637227D01*
X151557235Y-121481467D01*
X151557234Y-121481466D01*
X151485546Y-121308395D01*
X151449000Y-121124667D01*
X151449000Y-120937333D01*
X151485546Y-120753605D01*
X151557234Y-120580534D01*
X151661309Y-120424775D01*
X151661310Y-120424773D01*
X151793773Y-120292310D01*
X151949533Y-120188235D01*
X151949534Y-120188234D01*
X152122605Y-120116546D01*
X152306333Y-120080000D01*
X152493667Y-120080000D01*
X152677395Y-120116546D01*
X152677395Y-120116546D01*
G37*
G36*
X142517395Y-120116546D02*
G01*
X142690466Y-120188234D01*
X142690467Y-120188235D01*
X142846227Y-120292310D01*
X142978690Y-120424773D01*
X142978691Y-120424775D01*
X143082766Y-120580534D01*
X143154454Y-120753605D01*
X143191000Y-120937333D01*
X143191000Y-121124667D01*
X143154454Y-121308395D01*
X143082766Y-121481466D01*
X143082765Y-121481467D01*
X142978690Y-121637227D01*
X142846227Y-121769690D01*
X142811341Y-121793000D01*
X142690466Y-121873766D01*
X142517395Y-121945454D01*
X142333667Y-121982000D01*
X142146333Y-121982000D01*
X141962605Y-121945454D01*
X141789534Y-121873766D01*
X141668659Y-121793000D01*
X141633773Y-121769690D01*
X141501310Y-121637227D01*
X141397235Y-121481467D01*
X141397234Y-121481466D01*
X141325546Y-121308395D01*
X141289000Y-121124667D01*
X141289000Y-120937333D01*
X141325546Y-120753605D01*
X141397234Y-120580534D01*
X141501309Y-120424775D01*
X141501310Y-120424773D01*
X141633773Y-120292310D01*
X141789533Y-120188235D01*
X141789534Y-120188234D01*
X141962605Y-120116546D01*
X142146333Y-120080000D01*
X142333667Y-120080000D01*
X142517395Y-120116546D01*
X142517395Y-120116546D01*
G37*
G36*
X140651000Y-121982000D02*
G01*
X138749000Y-121982000D01*
X138749000Y-120080000D01*
X140651000Y-120080000D01*
X140651000Y-121982000D01*
X140651000Y-121982000D01*
G37*
G36*
X177628855Y-118605140D02*
G01*
X177692618Y-118611420D01*
X177783404Y-118638960D01*
X177815336Y-118648646D01*
X177928425Y-118709094D01*
X178027554Y-118790446D01*
X178108906Y-118889575D01*
X178169354Y-119002664D01*
X178169355Y-119002668D01*
X178206580Y-119125382D01*
X178219149Y-119253000D01*
X178206580Y-119380618D01*
X178179040Y-119471404D01*
X178169354Y-119503336D01*
X178108906Y-119616425D01*
X178027554Y-119715554D01*
X177928425Y-119796906D01*
X177815336Y-119857354D01*
X177783404Y-119867040D01*
X177692618Y-119894580D01*
X177628855Y-119900860D01*
X177596974Y-119904000D01*
X176733026Y-119904000D01*
X176701145Y-119900860D01*
X176637382Y-119894580D01*
X176546596Y-119867040D01*
X176514664Y-119857354D01*
X176401575Y-119796906D01*
X176302446Y-119715554D01*
X176221094Y-119616425D01*
X176160646Y-119503336D01*
X176150960Y-119471404D01*
X176123420Y-119380618D01*
X176110851Y-119253000D01*
X176123420Y-119125382D01*
X176160645Y-119002668D01*
X176160646Y-119002664D01*
X176221094Y-118889575D01*
X176302446Y-118790446D01*
X176401575Y-118709094D01*
X176514664Y-118648646D01*
X176546596Y-118638960D01*
X176637382Y-118611420D01*
X176701145Y-118605140D01*
X176733026Y-118602000D01*
X177596974Y-118602000D01*
X177628855Y-118605140D01*
X177628855Y-118605140D01*
G37*
G36*
X182708855Y-118605140D02*
G01*
X182772618Y-118611420D01*
X182863404Y-118638960D01*
X182895336Y-118648646D01*
X183008425Y-118709094D01*
X183107554Y-118790446D01*
X183188906Y-118889575D01*
X183249354Y-119002664D01*
X183249355Y-119002668D01*
X183286580Y-119125382D01*
X183299149Y-119253000D01*
X183286580Y-119380618D01*
X183259040Y-119471404D01*
X183249354Y-119503336D01*
X183188906Y-119616425D01*
X183107554Y-119715554D01*
X183008425Y-119796906D01*
X182895336Y-119857354D01*
X182863404Y-119867040D01*
X182772618Y-119894580D01*
X182708855Y-119900860D01*
X182676974Y-119904000D01*
X181813026Y-119904000D01*
X181781145Y-119900860D01*
X181717382Y-119894580D01*
X181626596Y-119867040D01*
X181594664Y-119857354D01*
X181481575Y-119796906D01*
X181382446Y-119715554D01*
X181301094Y-119616425D01*
X181240646Y-119503336D01*
X181230960Y-119471404D01*
X181203420Y-119380618D01*
X181190851Y-119253000D01*
X181203420Y-119125382D01*
X181240645Y-119002668D01*
X181240646Y-119002664D01*
X181301094Y-118889575D01*
X181382446Y-118790446D01*
X181481575Y-118709094D01*
X181594664Y-118648646D01*
X181626596Y-118638960D01*
X181717382Y-118611420D01*
X181781145Y-118605140D01*
X181813026Y-118602000D01*
X182676974Y-118602000D01*
X182708855Y-118605140D01*
X182708855Y-118605140D01*
G37*
G36*
X140651000Y-118807000D02*
G01*
X138749000Y-118807000D01*
X138749000Y-116905000D01*
X140651000Y-116905000D01*
X140651000Y-118807000D01*
X140651000Y-118807000D01*
G37*
G36*
X150811000Y-118807000D02*
G01*
X148909000Y-118807000D01*
X148909000Y-116905000D01*
X150811000Y-116905000D01*
X150811000Y-118807000D01*
X150811000Y-118807000D01*
G37*
G36*
X152677395Y-116941546D02*
G01*
X152850466Y-117013234D01*
X152850467Y-117013235D01*
X153006227Y-117117310D01*
X153138690Y-117249773D01*
X153138691Y-117249775D01*
X153242766Y-117405534D01*
X153314454Y-117578605D01*
X153351000Y-117762333D01*
X153351000Y-117949667D01*
X153314454Y-118133395D01*
X153242766Y-118306466D01*
X153242765Y-118306467D01*
X153138690Y-118462227D01*
X153006227Y-118594690D01*
X152927818Y-118647081D01*
X152850466Y-118698766D01*
X152677395Y-118770454D01*
X152493667Y-118807000D01*
X152306333Y-118807000D01*
X152122605Y-118770454D01*
X151949534Y-118698766D01*
X151872182Y-118647081D01*
X151793773Y-118594690D01*
X151661310Y-118462227D01*
X151557235Y-118306467D01*
X151557234Y-118306466D01*
X151485546Y-118133395D01*
X151449000Y-117949667D01*
X151449000Y-117762333D01*
X151485546Y-117578605D01*
X151557234Y-117405534D01*
X151661309Y-117249775D01*
X151661310Y-117249773D01*
X151793773Y-117117310D01*
X151949533Y-117013235D01*
X151949534Y-117013234D01*
X152122605Y-116941546D01*
X152306333Y-116905000D01*
X152493667Y-116905000D01*
X152677395Y-116941546D01*
X152677395Y-116941546D01*
G37*
G36*
X142517395Y-116941546D02*
G01*
X142690466Y-117013234D01*
X142690467Y-117013235D01*
X142846227Y-117117310D01*
X142978690Y-117249773D01*
X142978691Y-117249775D01*
X143082766Y-117405534D01*
X143154454Y-117578605D01*
X143191000Y-117762333D01*
X143191000Y-117949667D01*
X143154454Y-118133395D01*
X143082766Y-118306466D01*
X143082765Y-118306467D01*
X142978690Y-118462227D01*
X142846227Y-118594690D01*
X142767818Y-118647081D01*
X142690466Y-118698766D01*
X142517395Y-118770454D01*
X142333667Y-118807000D01*
X142146333Y-118807000D01*
X141962605Y-118770454D01*
X141789534Y-118698766D01*
X141712182Y-118647081D01*
X141633773Y-118594690D01*
X141501310Y-118462227D01*
X141397235Y-118306467D01*
X141397234Y-118306466D01*
X141325546Y-118133395D01*
X141289000Y-117949667D01*
X141289000Y-117762333D01*
X141325546Y-117578605D01*
X141397234Y-117405534D01*
X141501309Y-117249775D01*
X141501310Y-117249773D01*
X141633773Y-117117310D01*
X141789533Y-117013235D01*
X141789534Y-117013234D01*
X141962605Y-116941546D01*
X142146333Y-116905000D01*
X142333667Y-116905000D01*
X142517395Y-116941546D01*
X142517395Y-116941546D01*
G37*
G36*
X182708855Y-116065140D02*
G01*
X182772618Y-116071420D01*
X182863404Y-116098960D01*
X182895336Y-116108646D01*
X183008425Y-116169094D01*
X183107554Y-116250446D01*
X183188906Y-116349575D01*
X183249354Y-116462664D01*
X183249355Y-116462668D01*
X183286580Y-116585382D01*
X183299149Y-116713000D01*
X183286580Y-116840618D01*
X183267050Y-116905000D01*
X183249354Y-116963336D01*
X183188906Y-117076425D01*
X183107554Y-117175554D01*
X183008425Y-117256906D01*
X182895336Y-117317354D01*
X182863404Y-117327040D01*
X182772618Y-117354580D01*
X182708855Y-117360860D01*
X182676974Y-117364000D01*
X181813026Y-117364000D01*
X181781145Y-117360860D01*
X181717382Y-117354580D01*
X181626596Y-117327040D01*
X181594664Y-117317354D01*
X181481575Y-117256906D01*
X181382446Y-117175554D01*
X181301094Y-117076425D01*
X181240646Y-116963336D01*
X181222950Y-116905000D01*
X181203420Y-116840618D01*
X181190851Y-116713000D01*
X181203420Y-116585382D01*
X181240645Y-116462668D01*
X181240646Y-116462664D01*
X181301094Y-116349575D01*
X181382446Y-116250446D01*
X181481575Y-116169094D01*
X181594664Y-116108646D01*
X181626596Y-116098960D01*
X181717382Y-116071420D01*
X181781145Y-116065140D01*
X181813026Y-116062000D01*
X182676974Y-116062000D01*
X182708855Y-116065140D01*
X182708855Y-116065140D01*
G37*
G36*
X177628855Y-116065140D02*
G01*
X177692618Y-116071420D01*
X177783404Y-116098960D01*
X177815336Y-116108646D01*
X177928425Y-116169094D01*
X178027554Y-116250446D01*
X178108906Y-116349575D01*
X178169354Y-116462664D01*
X178169355Y-116462668D01*
X178206580Y-116585382D01*
X178219149Y-116713000D01*
X178206580Y-116840618D01*
X178187050Y-116905000D01*
X178169354Y-116963336D01*
X178108906Y-117076425D01*
X178027554Y-117175554D01*
X177928425Y-117256906D01*
X177815336Y-117317354D01*
X177783404Y-117327040D01*
X177692618Y-117354580D01*
X177628855Y-117360860D01*
X177596974Y-117364000D01*
X176733026Y-117364000D01*
X176701145Y-117360860D01*
X176637382Y-117354580D01*
X176546596Y-117327040D01*
X176514664Y-117317354D01*
X176401575Y-117256906D01*
X176302446Y-117175554D01*
X176221094Y-117076425D01*
X176160646Y-116963336D01*
X176142950Y-116905000D01*
X176123420Y-116840618D01*
X176110851Y-116713000D01*
X176123420Y-116585382D01*
X176160645Y-116462668D01*
X176160646Y-116462664D01*
X176221094Y-116349575D01*
X176302446Y-116250446D01*
X176401575Y-116169094D01*
X176514664Y-116108646D01*
X176546596Y-116098960D01*
X176637382Y-116071420D01*
X176701145Y-116065140D01*
X176733026Y-116062000D01*
X177596974Y-116062000D01*
X177628855Y-116065140D01*
X177628855Y-116065140D01*
G37*
G36*
X140651000Y-115632000D02*
G01*
X138749000Y-115632000D01*
X138749000Y-113730000D01*
X140651000Y-113730000D01*
X140651000Y-115632000D01*
X140651000Y-115632000D01*
G37*
G36*
X142517395Y-113766546D02*
G01*
X142690466Y-113838234D01*
X142690467Y-113838235D01*
X142846227Y-113942310D01*
X142978690Y-114074773D01*
X142978691Y-114074775D01*
X143082766Y-114230534D01*
X143154454Y-114403605D01*
X143191000Y-114587333D01*
X143191000Y-114774667D01*
X143154454Y-114958395D01*
X143082766Y-115131466D01*
X143082765Y-115131467D01*
X142978690Y-115287227D01*
X142846227Y-115419690D01*
X142767818Y-115472081D01*
X142690466Y-115523766D01*
X142517395Y-115595454D01*
X142333667Y-115632000D01*
X142146333Y-115632000D01*
X141962605Y-115595454D01*
X141789534Y-115523766D01*
X141712182Y-115472081D01*
X141633773Y-115419690D01*
X141501310Y-115287227D01*
X141397235Y-115131467D01*
X141397234Y-115131466D01*
X141325546Y-114958395D01*
X141289000Y-114774667D01*
X141289000Y-114587333D01*
X141325546Y-114403605D01*
X141397234Y-114230534D01*
X141501309Y-114074775D01*
X141501310Y-114074773D01*
X141633773Y-113942310D01*
X141789533Y-113838235D01*
X141789534Y-113838234D01*
X141962605Y-113766546D01*
X142146333Y-113730000D01*
X142333667Y-113730000D01*
X142517395Y-113766546D01*
X142517395Y-113766546D01*
G37*
G36*
X152677395Y-113766546D02*
G01*
X152850466Y-113838234D01*
X152850467Y-113838235D01*
X153006227Y-113942310D01*
X153138690Y-114074773D01*
X153138691Y-114074775D01*
X153242766Y-114230534D01*
X153314454Y-114403605D01*
X153351000Y-114587333D01*
X153351000Y-114774667D01*
X153314454Y-114958395D01*
X153242766Y-115131466D01*
X153242765Y-115131467D01*
X153138690Y-115287227D01*
X153006227Y-115419690D01*
X152927818Y-115472081D01*
X152850466Y-115523766D01*
X152677395Y-115595454D01*
X152493667Y-115632000D01*
X152306333Y-115632000D01*
X152122605Y-115595454D01*
X151949534Y-115523766D01*
X151872182Y-115472081D01*
X151793773Y-115419690D01*
X151661310Y-115287227D01*
X151557235Y-115131467D01*
X151557234Y-115131466D01*
X151485546Y-114958395D01*
X151449000Y-114774667D01*
X151449000Y-114587333D01*
X151485546Y-114403605D01*
X151557234Y-114230534D01*
X151661309Y-114074775D01*
X151661310Y-114074773D01*
X151793773Y-113942310D01*
X151949533Y-113838235D01*
X151949534Y-113838234D01*
X152122605Y-113766546D01*
X152306333Y-113730000D01*
X152493667Y-113730000D01*
X152677395Y-113766546D01*
X152677395Y-113766546D01*
G37*
G36*
X150811000Y-115632000D02*
G01*
X148909000Y-115632000D01*
X148909000Y-113730000D01*
X150811000Y-113730000D01*
X150811000Y-115632000D01*
X150811000Y-115632000D01*
G37*
G36*
X177628855Y-113525140D02*
G01*
X177692618Y-113531420D01*
X177783404Y-113558960D01*
X177815336Y-113568646D01*
X177928425Y-113629094D01*
X178027554Y-113710446D01*
X178108906Y-113809575D01*
X178169354Y-113922664D01*
X178169355Y-113922668D01*
X178206580Y-114045382D01*
X178219149Y-114173000D01*
X178206580Y-114300618D01*
X178179040Y-114391404D01*
X178169354Y-114423336D01*
X178108906Y-114536425D01*
X178027554Y-114635554D01*
X177928425Y-114716906D01*
X177815336Y-114777354D01*
X177783404Y-114787040D01*
X177692618Y-114814580D01*
X177628855Y-114820860D01*
X177596974Y-114824000D01*
X176733026Y-114824000D01*
X176701145Y-114820860D01*
X176637382Y-114814580D01*
X176546596Y-114787040D01*
X176514664Y-114777354D01*
X176401575Y-114716906D01*
X176302446Y-114635554D01*
X176221094Y-114536425D01*
X176160646Y-114423336D01*
X176150960Y-114391404D01*
X176123420Y-114300618D01*
X176110851Y-114173000D01*
X176123420Y-114045382D01*
X176160645Y-113922668D01*
X176160646Y-113922664D01*
X176221094Y-113809575D01*
X176302446Y-113710446D01*
X176401575Y-113629094D01*
X176514664Y-113568646D01*
X176546596Y-113558960D01*
X176637382Y-113531420D01*
X176701145Y-113525140D01*
X176733026Y-113522000D01*
X177596974Y-113522000D01*
X177628855Y-113525140D01*
X177628855Y-113525140D01*
G37*
G36*
X182708855Y-113525140D02*
G01*
X182772618Y-113531420D01*
X182863404Y-113558960D01*
X182895336Y-113568646D01*
X183008425Y-113629094D01*
X183107554Y-113710446D01*
X183188906Y-113809575D01*
X183249354Y-113922664D01*
X183249355Y-113922668D01*
X183286580Y-114045382D01*
X183299149Y-114173000D01*
X183286580Y-114300618D01*
X183259040Y-114391404D01*
X183249354Y-114423336D01*
X183188906Y-114536425D01*
X183107554Y-114635554D01*
X183008425Y-114716906D01*
X182895336Y-114777354D01*
X182863404Y-114787040D01*
X182772618Y-114814580D01*
X182708855Y-114820860D01*
X182676974Y-114824000D01*
X181813026Y-114824000D01*
X181781145Y-114820860D01*
X181717382Y-114814580D01*
X181626596Y-114787040D01*
X181594664Y-114777354D01*
X181481575Y-114716906D01*
X181382446Y-114635554D01*
X181301094Y-114536425D01*
X181240646Y-114423336D01*
X181230960Y-114391404D01*
X181203420Y-114300618D01*
X181190851Y-114173000D01*
X181203420Y-114045382D01*
X181240645Y-113922668D01*
X181240646Y-113922664D01*
X181301094Y-113809575D01*
X181382446Y-113710446D01*
X181481575Y-113629094D01*
X181594664Y-113568646D01*
X181626596Y-113558960D01*
X181717382Y-113531420D01*
X181781145Y-113525140D01*
X181813026Y-113522000D01*
X182676974Y-113522000D01*
X182708855Y-113525140D01*
X182708855Y-113525140D01*
G37*
G36*
X142517395Y-110591546D02*
G01*
X142690466Y-110663234D01*
X142690467Y-110663235D01*
X142846227Y-110767310D01*
X142978690Y-110899773D01*
X142978691Y-110899775D01*
X143082766Y-111055534D01*
X143154454Y-111228605D01*
X143191000Y-111412333D01*
X143191000Y-111599667D01*
X143154454Y-111783395D01*
X143082766Y-111956466D01*
X143031081Y-112033818D01*
X142978690Y-112112227D01*
X142846227Y-112244690D01*
X142801493Y-112274580D01*
X142690466Y-112348766D01*
X142517395Y-112420454D01*
X142333667Y-112457000D01*
X142146333Y-112457000D01*
X141962605Y-112420454D01*
X141789534Y-112348766D01*
X141678507Y-112274580D01*
X141633773Y-112244690D01*
X141501310Y-112112227D01*
X141448919Y-112033818D01*
X141397234Y-111956466D01*
X141325546Y-111783395D01*
X141289000Y-111599667D01*
X141289000Y-111412333D01*
X141325546Y-111228605D01*
X141397234Y-111055534D01*
X141501309Y-110899775D01*
X141501310Y-110899773D01*
X141633773Y-110767310D01*
X141789533Y-110663235D01*
X141789534Y-110663234D01*
X141962605Y-110591546D01*
X142146333Y-110555000D01*
X142333667Y-110555000D01*
X142517395Y-110591546D01*
X142517395Y-110591546D01*
G37*
G36*
X140651000Y-112457000D02*
G01*
X138749000Y-112457000D01*
X138749000Y-110555000D01*
X140651000Y-110555000D01*
X140651000Y-112457000D01*
X140651000Y-112457000D01*
G37*
G36*
X177628855Y-110985140D02*
G01*
X177692618Y-110991420D01*
X177783404Y-111018960D01*
X177815336Y-111028646D01*
X177928425Y-111089094D01*
X178027554Y-111170446D01*
X178108906Y-111269575D01*
X178169354Y-111382664D01*
X178169355Y-111382668D01*
X178206580Y-111505382D01*
X178219149Y-111633000D01*
X178206580Y-111760618D01*
X178199670Y-111783396D01*
X178169354Y-111883336D01*
X178108906Y-111996425D01*
X178027554Y-112095554D01*
X177928425Y-112176906D01*
X177815336Y-112237354D01*
X177791152Y-112244690D01*
X177692618Y-112274580D01*
X177628855Y-112280860D01*
X177596974Y-112284000D01*
X176733026Y-112284000D01*
X176701145Y-112280860D01*
X176637382Y-112274580D01*
X176538848Y-112244690D01*
X176514664Y-112237354D01*
X176401575Y-112176906D01*
X176302446Y-112095554D01*
X176221094Y-111996425D01*
X176160646Y-111883336D01*
X176130330Y-111783396D01*
X176123420Y-111760618D01*
X176110851Y-111633000D01*
X176123420Y-111505382D01*
X176160645Y-111382668D01*
X176160646Y-111382664D01*
X176221094Y-111269575D01*
X176302446Y-111170446D01*
X176401575Y-111089094D01*
X176514664Y-111028646D01*
X176546596Y-111018960D01*
X176637382Y-110991420D01*
X176701145Y-110985140D01*
X176733026Y-110982000D01*
X177596974Y-110982000D01*
X177628855Y-110985140D01*
X177628855Y-110985140D01*
G37*
G36*
X182708855Y-110985140D02*
G01*
X182772618Y-110991420D01*
X182863404Y-111018960D01*
X182895336Y-111028646D01*
X183008425Y-111089094D01*
X183107554Y-111170446D01*
X183188906Y-111269575D01*
X183249354Y-111382664D01*
X183249355Y-111382668D01*
X183286580Y-111505382D01*
X183299149Y-111633000D01*
X183286580Y-111760618D01*
X183279670Y-111783396D01*
X183249354Y-111883336D01*
X183188906Y-111996425D01*
X183107554Y-112095554D01*
X183008425Y-112176906D01*
X182895336Y-112237354D01*
X182871152Y-112244690D01*
X182772618Y-112274580D01*
X182708855Y-112280860D01*
X182676974Y-112284000D01*
X181813026Y-112284000D01*
X181781145Y-112280860D01*
X181717382Y-112274580D01*
X181618848Y-112244690D01*
X181594664Y-112237354D01*
X181481575Y-112176906D01*
X181382446Y-112095554D01*
X181301094Y-111996425D01*
X181240646Y-111883336D01*
X181210330Y-111783396D01*
X181203420Y-111760618D01*
X181190851Y-111633000D01*
X181203420Y-111505382D01*
X181240645Y-111382668D01*
X181240646Y-111382664D01*
X181301094Y-111269575D01*
X181382446Y-111170446D01*
X181481575Y-111089094D01*
X181594664Y-111028646D01*
X181626596Y-111018960D01*
X181717382Y-110991420D01*
X181781145Y-110985140D01*
X181813026Y-110982000D01*
X182676974Y-110982000D01*
X182708855Y-110985140D01*
X182708855Y-110985140D01*
G37*
G36*
X182708855Y-108445140D02*
G01*
X182772618Y-108451420D01*
X182863404Y-108478960D01*
X182895336Y-108488646D01*
X183008425Y-108549094D01*
X183107554Y-108630446D01*
X183188906Y-108729575D01*
X183249354Y-108842664D01*
X183249355Y-108842668D01*
X183286580Y-108965382D01*
X183299149Y-109093000D01*
X183286580Y-109220618D01*
X183279046Y-109245453D01*
X183249354Y-109343336D01*
X183188906Y-109456425D01*
X183107554Y-109555554D01*
X183008425Y-109636906D01*
X182895336Y-109697354D01*
X182863404Y-109707040D01*
X182772618Y-109734580D01*
X182708855Y-109740860D01*
X182676974Y-109744000D01*
X181813026Y-109744000D01*
X181781145Y-109740860D01*
X181717382Y-109734580D01*
X181626596Y-109707040D01*
X181594664Y-109697354D01*
X181481575Y-109636906D01*
X181382446Y-109555554D01*
X181301094Y-109456425D01*
X181240646Y-109343336D01*
X181210954Y-109245453D01*
X181203420Y-109220618D01*
X181190851Y-109093000D01*
X181203420Y-108965382D01*
X181240645Y-108842668D01*
X181240646Y-108842664D01*
X181301094Y-108729575D01*
X181382446Y-108630446D01*
X181481575Y-108549094D01*
X181594664Y-108488646D01*
X181626596Y-108478960D01*
X181717382Y-108451420D01*
X181781145Y-108445140D01*
X181813026Y-108442000D01*
X182676974Y-108442000D01*
X182708855Y-108445140D01*
X182708855Y-108445140D01*
G37*
G36*
X177628855Y-108445140D02*
G01*
X177692618Y-108451420D01*
X177783404Y-108478960D01*
X177815336Y-108488646D01*
X177928425Y-108549094D01*
X178027554Y-108630446D01*
X178108906Y-108729575D01*
X178169354Y-108842664D01*
X178169355Y-108842668D01*
X178206580Y-108965382D01*
X178219149Y-109093000D01*
X178206580Y-109220618D01*
X178199046Y-109245453D01*
X178169354Y-109343336D01*
X178108906Y-109456425D01*
X178027554Y-109555554D01*
X177928425Y-109636906D01*
X177815336Y-109697354D01*
X177783404Y-109707040D01*
X177692618Y-109734580D01*
X177628855Y-109740860D01*
X177596974Y-109744000D01*
X176733026Y-109744000D01*
X176701145Y-109740860D01*
X176637382Y-109734580D01*
X176546596Y-109707040D01*
X176514664Y-109697354D01*
X176401575Y-109636906D01*
X176302446Y-109555554D01*
X176221094Y-109456425D01*
X176160646Y-109343336D01*
X176130954Y-109245453D01*
X176123420Y-109220618D01*
X176110851Y-109093000D01*
X176123420Y-108965382D01*
X176160645Y-108842668D01*
X176160646Y-108842664D01*
X176221094Y-108729575D01*
X176302446Y-108630446D01*
X176401575Y-108549094D01*
X176514664Y-108488646D01*
X176546596Y-108478960D01*
X176637382Y-108451420D01*
X176701145Y-108445140D01*
X176733026Y-108442000D01*
X177596974Y-108442000D01*
X177628855Y-108445140D01*
X177628855Y-108445140D01*
G37*
G36*
X152677395Y-107416546D02*
G01*
X152850466Y-107488234D01*
X152850467Y-107488235D01*
X153006227Y-107592310D01*
X153138690Y-107724773D01*
X153138691Y-107724775D01*
X153242766Y-107880534D01*
X153314454Y-108053605D01*
X153351000Y-108237333D01*
X153351000Y-108424667D01*
X153314454Y-108608395D01*
X153242766Y-108781466D01*
X153242765Y-108781467D01*
X153138690Y-108937227D01*
X153006227Y-109069690D01*
X152971341Y-109093000D01*
X152850466Y-109173766D01*
X152677395Y-109245454D01*
X152493667Y-109282000D01*
X152306333Y-109282000D01*
X152122605Y-109245454D01*
X151949534Y-109173766D01*
X151828659Y-109093000D01*
X151793773Y-109069690D01*
X151661310Y-108937227D01*
X151557235Y-108781467D01*
X151557234Y-108781466D01*
X151485546Y-108608395D01*
X151449000Y-108424667D01*
X151449000Y-108237333D01*
X151485546Y-108053605D01*
X151557234Y-107880534D01*
X151661309Y-107724775D01*
X151661310Y-107724773D01*
X151793773Y-107592310D01*
X151949533Y-107488235D01*
X151949534Y-107488234D01*
X152122605Y-107416546D01*
X152306333Y-107380000D01*
X152493667Y-107380000D01*
X152677395Y-107416546D01*
X152677395Y-107416546D01*
G37*
G36*
X150811000Y-109282000D02*
G01*
X148909000Y-109282000D01*
X148909000Y-107380000D01*
X150811000Y-107380000D01*
X150811000Y-109282000D01*
X150811000Y-109282000D01*
G37*
G36*
X182708855Y-105905140D02*
G01*
X182772618Y-105911420D01*
X182863404Y-105938960D01*
X182895336Y-105948646D01*
X183008425Y-106009094D01*
X183107554Y-106090446D01*
X183188906Y-106189575D01*
X183249354Y-106302664D01*
X183249355Y-106302668D01*
X183286580Y-106425382D01*
X183299149Y-106553000D01*
X183286580Y-106680618D01*
X183259040Y-106771404D01*
X183249354Y-106803336D01*
X183188906Y-106916425D01*
X183107554Y-107015554D01*
X183008425Y-107096906D01*
X182895336Y-107157354D01*
X182863404Y-107167040D01*
X182772618Y-107194580D01*
X182708855Y-107200860D01*
X182676974Y-107204000D01*
X181813026Y-107204000D01*
X181781145Y-107200860D01*
X181717382Y-107194580D01*
X181626596Y-107167040D01*
X181594664Y-107157354D01*
X181481575Y-107096906D01*
X181382446Y-107015554D01*
X181301094Y-106916425D01*
X181240646Y-106803336D01*
X181230960Y-106771404D01*
X181203420Y-106680618D01*
X181190851Y-106553000D01*
X181203420Y-106425382D01*
X181240645Y-106302668D01*
X181240646Y-106302664D01*
X181301094Y-106189575D01*
X181382446Y-106090446D01*
X181481575Y-106009094D01*
X181594664Y-105948646D01*
X181626596Y-105938960D01*
X181717382Y-105911420D01*
X181781145Y-105905140D01*
X181813026Y-105902000D01*
X182676974Y-105902000D01*
X182708855Y-105905140D01*
X182708855Y-105905140D01*
G37*
G36*
X177628855Y-105905140D02*
G01*
X177692618Y-105911420D01*
X177783404Y-105938960D01*
X177815336Y-105948646D01*
X177928425Y-106009094D01*
X178027554Y-106090446D01*
X178108906Y-106189575D01*
X178169354Y-106302664D01*
X178169355Y-106302668D01*
X178206580Y-106425382D01*
X178219149Y-106553000D01*
X178206580Y-106680618D01*
X178179040Y-106771404D01*
X178169354Y-106803336D01*
X178108906Y-106916425D01*
X178027554Y-107015554D01*
X177928425Y-107096906D01*
X177815336Y-107157354D01*
X177783404Y-107167040D01*
X177692618Y-107194580D01*
X177628855Y-107200860D01*
X177596974Y-107204000D01*
X176733026Y-107204000D01*
X176701145Y-107200860D01*
X176637382Y-107194580D01*
X176546596Y-107167040D01*
X176514664Y-107157354D01*
X176401575Y-107096906D01*
X176302446Y-107015554D01*
X176221094Y-106916425D01*
X176160646Y-106803336D01*
X176150960Y-106771404D01*
X176123420Y-106680618D01*
X176110851Y-106553000D01*
X176123420Y-106425382D01*
X176160645Y-106302668D01*
X176160646Y-106302664D01*
X176221094Y-106189575D01*
X176302446Y-106090446D01*
X176401575Y-106009094D01*
X176514664Y-105948646D01*
X176546596Y-105938960D01*
X176637382Y-105911420D01*
X176701145Y-105905140D01*
X176733026Y-105902000D01*
X177596974Y-105902000D01*
X177628855Y-105905140D01*
X177628855Y-105905140D01*
G37*
G36*
X150811000Y-106107000D02*
G01*
X148909000Y-106107000D01*
X148909000Y-104205000D01*
X150811000Y-104205000D01*
X150811000Y-106107000D01*
X150811000Y-106107000D01*
G37*
G36*
X140651000Y-106107000D02*
G01*
X138749000Y-106107000D01*
X138749000Y-104205000D01*
X140651000Y-104205000D01*
X140651000Y-106107000D01*
X140651000Y-106107000D01*
G37*
G36*
X142517395Y-104241546D02*
G01*
X142690466Y-104313234D01*
X142690467Y-104313235D01*
X142846227Y-104417310D01*
X142978690Y-104549773D01*
X142978691Y-104549775D01*
X143082766Y-104705534D01*
X143154454Y-104878605D01*
X143191000Y-105062333D01*
X143191000Y-105249667D01*
X143154454Y-105433395D01*
X143082766Y-105606466D01*
X143082765Y-105606467D01*
X142978690Y-105762227D01*
X142846227Y-105894690D01*
X142767818Y-105947081D01*
X142690466Y-105998766D01*
X142517395Y-106070454D01*
X142333667Y-106107000D01*
X142146333Y-106107000D01*
X141962605Y-106070454D01*
X141789534Y-105998766D01*
X141712182Y-105947081D01*
X141633773Y-105894690D01*
X141501310Y-105762227D01*
X141397235Y-105606467D01*
X141397234Y-105606466D01*
X141325546Y-105433395D01*
X141289000Y-105249667D01*
X141289000Y-105062333D01*
X141325546Y-104878605D01*
X141397234Y-104705534D01*
X141501309Y-104549775D01*
X141501310Y-104549773D01*
X141633773Y-104417310D01*
X141789533Y-104313235D01*
X141789534Y-104313234D01*
X141962605Y-104241546D01*
X142146333Y-104205000D01*
X142333667Y-104205000D01*
X142517395Y-104241546D01*
X142517395Y-104241546D01*
G37*
G36*
X152677395Y-104241546D02*
G01*
X152850466Y-104313234D01*
X152850467Y-104313235D01*
X153006227Y-104417310D01*
X153138690Y-104549773D01*
X153138691Y-104549775D01*
X153242766Y-104705534D01*
X153314454Y-104878605D01*
X153351000Y-105062333D01*
X153351000Y-105249667D01*
X153314454Y-105433395D01*
X153242766Y-105606466D01*
X153242765Y-105606467D01*
X153138690Y-105762227D01*
X153006227Y-105894690D01*
X152927818Y-105947081D01*
X152850466Y-105998766D01*
X152677395Y-106070454D01*
X152493667Y-106107000D01*
X152306333Y-106107000D01*
X152122605Y-106070454D01*
X151949534Y-105998766D01*
X151872182Y-105947081D01*
X151793773Y-105894690D01*
X151661310Y-105762227D01*
X151557235Y-105606467D01*
X151557234Y-105606466D01*
X151485546Y-105433395D01*
X151449000Y-105249667D01*
X151449000Y-105062333D01*
X151485546Y-104878605D01*
X151557234Y-104705534D01*
X151661309Y-104549775D01*
X151661310Y-104549773D01*
X151793773Y-104417310D01*
X151949533Y-104313235D01*
X151949534Y-104313234D01*
X152122605Y-104241546D01*
X152306333Y-104205000D01*
X152493667Y-104205000D01*
X152677395Y-104241546D01*
X152677395Y-104241546D01*
G37*
G36*
X182708855Y-103365140D02*
G01*
X182772618Y-103371420D01*
X182863404Y-103398960D01*
X182895336Y-103408646D01*
X183008425Y-103469094D01*
X183107554Y-103550446D01*
X183188906Y-103649575D01*
X183249354Y-103762664D01*
X183249355Y-103762668D01*
X183286580Y-103885382D01*
X183299149Y-104013000D01*
X183286580Y-104140618D01*
X183267050Y-104205000D01*
X183249354Y-104263336D01*
X183188906Y-104376425D01*
X183107554Y-104475554D01*
X183008425Y-104556906D01*
X182895336Y-104617354D01*
X182863404Y-104627040D01*
X182772618Y-104654580D01*
X182708855Y-104660860D01*
X182676974Y-104664000D01*
X181813026Y-104664000D01*
X181781145Y-104660860D01*
X181717382Y-104654580D01*
X181626596Y-104627040D01*
X181594664Y-104617354D01*
X181481575Y-104556906D01*
X181382446Y-104475554D01*
X181301094Y-104376425D01*
X181240646Y-104263336D01*
X181222950Y-104205000D01*
X181203420Y-104140618D01*
X181190851Y-104013000D01*
X181203420Y-103885382D01*
X181240645Y-103762668D01*
X181240646Y-103762664D01*
X181301094Y-103649575D01*
X181382446Y-103550446D01*
X181481575Y-103469094D01*
X181594664Y-103408646D01*
X181626596Y-103398960D01*
X181717382Y-103371420D01*
X181781145Y-103365140D01*
X181813026Y-103362000D01*
X182676974Y-103362000D01*
X182708855Y-103365140D01*
X182708855Y-103365140D01*
G37*
G36*
X177628855Y-103365140D02*
G01*
X177692618Y-103371420D01*
X177783404Y-103398960D01*
X177815336Y-103408646D01*
X177928425Y-103469094D01*
X178027554Y-103550446D01*
X178108906Y-103649575D01*
X178169354Y-103762664D01*
X178169355Y-103762668D01*
X178206580Y-103885382D01*
X178219149Y-104013000D01*
X178206580Y-104140618D01*
X178187050Y-104205000D01*
X178169354Y-104263336D01*
X178108906Y-104376425D01*
X178027554Y-104475554D01*
X177928425Y-104556906D01*
X177815336Y-104617354D01*
X177783404Y-104627040D01*
X177692618Y-104654580D01*
X177628855Y-104660860D01*
X177596974Y-104664000D01*
X176733026Y-104664000D01*
X176701145Y-104660860D01*
X176637382Y-104654580D01*
X176546596Y-104627040D01*
X176514664Y-104617354D01*
X176401575Y-104556906D01*
X176302446Y-104475554D01*
X176221094Y-104376425D01*
X176160646Y-104263336D01*
X176142950Y-104205000D01*
X176123420Y-104140618D01*
X176110851Y-104013000D01*
X176123420Y-103885382D01*
X176160645Y-103762668D01*
X176160646Y-103762664D01*
X176221094Y-103649575D01*
X176302446Y-103550446D01*
X176401575Y-103469094D01*
X176514664Y-103408646D01*
X176546596Y-103398960D01*
X176637382Y-103371420D01*
X176701145Y-103365140D01*
X176733026Y-103362000D01*
X177596974Y-103362000D01*
X177628855Y-103365140D01*
X177628855Y-103365140D01*
G37*
G36*
X150811000Y-102932000D02*
G01*
X148909000Y-102932000D01*
X148909000Y-101030000D01*
X150811000Y-101030000D01*
X150811000Y-102932000D01*
X150811000Y-102932000D01*
G37*
G36*
X152677395Y-101066546D02*
G01*
X152850466Y-101138234D01*
X152850467Y-101138235D01*
X153006227Y-101242310D01*
X153138690Y-101374773D01*
X153138691Y-101374775D01*
X153242766Y-101530534D01*
X153314454Y-101703605D01*
X153351000Y-101887333D01*
X153351000Y-102074667D01*
X153314454Y-102258395D01*
X153242766Y-102431466D01*
X153242765Y-102431467D01*
X153138690Y-102587227D01*
X153006227Y-102719690D01*
X152927818Y-102772081D01*
X152850466Y-102823766D01*
X152677395Y-102895454D01*
X152493667Y-102932000D01*
X152306333Y-102932000D01*
X152122605Y-102895454D01*
X151949534Y-102823766D01*
X151872182Y-102772081D01*
X151793773Y-102719690D01*
X151661310Y-102587227D01*
X151557235Y-102431467D01*
X151557234Y-102431466D01*
X151485546Y-102258395D01*
X151449000Y-102074667D01*
X151449000Y-101887333D01*
X151485546Y-101703605D01*
X151557234Y-101530534D01*
X151661309Y-101374775D01*
X151661310Y-101374773D01*
X151793773Y-101242310D01*
X151949533Y-101138235D01*
X151949534Y-101138234D01*
X152122605Y-101066546D01*
X152306333Y-101030000D01*
X152493667Y-101030000D01*
X152677395Y-101066546D01*
X152677395Y-101066546D01*
G37*
G36*
X142517395Y-101066546D02*
G01*
X142690466Y-101138234D01*
X142690467Y-101138235D01*
X142846227Y-101242310D01*
X142978690Y-101374773D01*
X142978691Y-101374775D01*
X143082766Y-101530534D01*
X143154454Y-101703605D01*
X143191000Y-101887333D01*
X143191000Y-102074667D01*
X143154454Y-102258395D01*
X143082766Y-102431466D01*
X143082765Y-102431467D01*
X142978690Y-102587227D01*
X142846227Y-102719690D01*
X142767818Y-102772081D01*
X142690466Y-102823766D01*
X142517395Y-102895454D01*
X142333667Y-102932000D01*
X142146333Y-102932000D01*
X141962605Y-102895454D01*
X141789534Y-102823766D01*
X141712182Y-102772081D01*
X141633773Y-102719690D01*
X141501310Y-102587227D01*
X141397235Y-102431467D01*
X141397234Y-102431466D01*
X141325546Y-102258395D01*
X141289000Y-102074667D01*
X141289000Y-101887333D01*
X141325546Y-101703605D01*
X141397234Y-101530534D01*
X141501309Y-101374775D01*
X141501310Y-101374773D01*
X141633773Y-101242310D01*
X141789533Y-101138235D01*
X141789534Y-101138234D01*
X141962605Y-101066546D01*
X142146333Y-101030000D01*
X142333667Y-101030000D01*
X142517395Y-101066546D01*
X142517395Y-101066546D01*
G37*
G36*
X140651000Y-102932000D02*
G01*
X138749000Y-102932000D01*
X138749000Y-101030000D01*
X140651000Y-101030000D01*
X140651000Y-102932000D01*
X140651000Y-102932000D01*
G37*
G36*
X182708855Y-100825140D02*
G01*
X182772618Y-100831420D01*
X182863404Y-100858960D01*
X182895336Y-100868646D01*
X183008425Y-100929094D01*
X183107554Y-101010446D01*
X183188906Y-101109575D01*
X183249354Y-101222664D01*
X183249355Y-101222668D01*
X183286580Y-101345382D01*
X183299149Y-101473000D01*
X183286580Y-101600618D01*
X183259040Y-101691404D01*
X183249354Y-101723336D01*
X183188906Y-101836425D01*
X183107554Y-101935554D01*
X183008425Y-102016906D01*
X182895336Y-102077354D01*
X182863404Y-102087040D01*
X182772618Y-102114580D01*
X182708855Y-102120860D01*
X182676974Y-102124000D01*
X181813026Y-102124000D01*
X181781145Y-102120860D01*
X181717382Y-102114580D01*
X181626596Y-102087040D01*
X181594664Y-102077354D01*
X181481575Y-102016906D01*
X181382446Y-101935554D01*
X181301094Y-101836425D01*
X181240646Y-101723336D01*
X181230960Y-101691404D01*
X181203420Y-101600618D01*
X181190851Y-101473000D01*
X181203420Y-101345382D01*
X181240645Y-101222668D01*
X181240646Y-101222664D01*
X181301094Y-101109575D01*
X181382446Y-101010446D01*
X181481575Y-100929094D01*
X181594664Y-100868646D01*
X181626596Y-100858960D01*
X181717382Y-100831420D01*
X181781145Y-100825140D01*
X181813026Y-100822000D01*
X182676974Y-100822000D01*
X182708855Y-100825140D01*
X182708855Y-100825140D01*
G37*
G36*
X177628855Y-100825140D02*
G01*
X177692618Y-100831420D01*
X177783404Y-100858960D01*
X177815336Y-100868646D01*
X177928425Y-100929094D01*
X178027554Y-101010446D01*
X178108906Y-101109575D01*
X178169354Y-101222664D01*
X178169355Y-101222668D01*
X178206580Y-101345382D01*
X178219149Y-101473000D01*
X178206580Y-101600618D01*
X178179040Y-101691404D01*
X178169354Y-101723336D01*
X178108906Y-101836425D01*
X178027554Y-101935554D01*
X177928425Y-102016906D01*
X177815336Y-102077354D01*
X177783404Y-102087040D01*
X177692618Y-102114580D01*
X177628855Y-102120860D01*
X177596974Y-102124000D01*
X176733026Y-102124000D01*
X176701145Y-102120860D01*
X176637382Y-102114580D01*
X176546596Y-102087040D01*
X176514664Y-102077354D01*
X176401575Y-102016906D01*
X176302446Y-101935554D01*
X176221094Y-101836425D01*
X176160646Y-101723336D01*
X176150960Y-101691404D01*
X176123420Y-101600618D01*
X176110851Y-101473000D01*
X176123420Y-101345382D01*
X176160645Y-101222668D01*
X176160646Y-101222664D01*
X176221094Y-101109575D01*
X176302446Y-101010446D01*
X176401575Y-100929094D01*
X176514664Y-100868646D01*
X176546596Y-100858960D01*
X176637382Y-100831420D01*
X176701145Y-100825140D01*
X176733026Y-100822000D01*
X177596974Y-100822000D01*
X177628855Y-100825140D01*
X177628855Y-100825140D01*
G37*
G36*
X150811000Y-99757000D02*
G01*
X148909000Y-99757000D01*
X148909000Y-97855000D01*
X150811000Y-97855000D01*
X150811000Y-99757000D01*
X150811000Y-99757000D01*
G37*
G36*
X152677395Y-97891546D02*
G01*
X152850466Y-97963234D01*
X152850467Y-97963235D01*
X153006227Y-98067310D01*
X153138690Y-98199773D01*
X153138691Y-98199775D01*
X153242766Y-98355534D01*
X153314454Y-98528605D01*
X153351000Y-98712333D01*
X153351000Y-98899667D01*
X153314454Y-99083395D01*
X153242766Y-99256466D01*
X153191081Y-99333818D01*
X153138690Y-99412227D01*
X153006227Y-99544690D01*
X152961493Y-99574580D01*
X152850466Y-99648766D01*
X152677395Y-99720454D01*
X152493667Y-99757000D01*
X152306333Y-99757000D01*
X152122605Y-99720454D01*
X151949534Y-99648766D01*
X151838507Y-99574580D01*
X151793773Y-99544690D01*
X151661310Y-99412227D01*
X151608919Y-99333818D01*
X151557234Y-99256466D01*
X151485546Y-99083395D01*
X151449000Y-98899667D01*
X151449000Y-98712333D01*
X151485546Y-98528605D01*
X151557234Y-98355534D01*
X151661309Y-98199775D01*
X151661310Y-98199773D01*
X151793773Y-98067310D01*
X151949533Y-97963235D01*
X151949534Y-97963234D01*
X152122605Y-97891546D01*
X152306333Y-97855000D01*
X152493667Y-97855000D01*
X152677395Y-97891546D01*
X152677395Y-97891546D01*
G37*
G36*
X140651000Y-99757000D02*
G01*
X138749000Y-99757000D01*
X138749000Y-97855000D01*
X140651000Y-97855000D01*
X140651000Y-99757000D01*
X140651000Y-99757000D01*
G37*
G36*
X142517395Y-97891546D02*
G01*
X142690466Y-97963234D01*
X142690467Y-97963235D01*
X142846227Y-98067310D01*
X142978690Y-98199773D01*
X142978691Y-98199775D01*
X143082766Y-98355534D01*
X143154454Y-98528605D01*
X143191000Y-98712333D01*
X143191000Y-98899667D01*
X143154454Y-99083395D01*
X143082766Y-99256466D01*
X143031081Y-99333818D01*
X142978690Y-99412227D01*
X142846227Y-99544690D01*
X142801493Y-99574580D01*
X142690466Y-99648766D01*
X142517395Y-99720454D01*
X142333667Y-99757000D01*
X142146333Y-99757000D01*
X141962605Y-99720454D01*
X141789534Y-99648766D01*
X141678507Y-99574580D01*
X141633773Y-99544690D01*
X141501310Y-99412227D01*
X141448919Y-99333818D01*
X141397234Y-99256466D01*
X141325546Y-99083395D01*
X141289000Y-98899667D01*
X141289000Y-98712333D01*
X141325546Y-98528605D01*
X141397234Y-98355534D01*
X141501309Y-98199775D01*
X141501310Y-98199773D01*
X141633773Y-98067310D01*
X141789533Y-97963235D01*
X141789534Y-97963234D01*
X141962605Y-97891546D01*
X142146333Y-97855000D01*
X142333667Y-97855000D01*
X142517395Y-97891546D01*
X142517395Y-97891546D01*
G37*
G36*
X177628855Y-98285140D02*
G01*
X177692618Y-98291420D01*
X177783404Y-98318960D01*
X177815336Y-98328646D01*
X177928425Y-98389094D01*
X178027554Y-98470446D01*
X178108906Y-98569575D01*
X178169354Y-98682664D01*
X178169355Y-98682668D01*
X178206580Y-98805382D01*
X178219149Y-98933000D01*
X178206580Y-99060618D01*
X178199670Y-99083396D01*
X178169354Y-99183336D01*
X178108906Y-99296425D01*
X178027554Y-99395554D01*
X177928425Y-99476906D01*
X177815336Y-99537354D01*
X177791152Y-99544690D01*
X177692618Y-99574580D01*
X177628855Y-99580860D01*
X177596974Y-99584000D01*
X176733026Y-99584000D01*
X176701145Y-99580860D01*
X176637382Y-99574580D01*
X176538848Y-99544690D01*
X176514664Y-99537354D01*
X176401575Y-99476906D01*
X176302446Y-99395554D01*
X176221094Y-99296425D01*
X176160646Y-99183336D01*
X176130330Y-99083396D01*
X176123420Y-99060618D01*
X176110851Y-98933000D01*
X176123420Y-98805382D01*
X176160645Y-98682668D01*
X176160646Y-98682664D01*
X176221094Y-98569575D01*
X176302446Y-98470446D01*
X176401575Y-98389094D01*
X176514664Y-98328646D01*
X176546596Y-98318960D01*
X176637382Y-98291420D01*
X176701145Y-98285140D01*
X176733026Y-98282000D01*
X177596974Y-98282000D01*
X177628855Y-98285140D01*
X177628855Y-98285140D01*
G37*
G36*
X182708855Y-98285140D02*
G01*
X182772618Y-98291420D01*
X182863404Y-98318960D01*
X182895336Y-98328646D01*
X183008425Y-98389094D01*
X183107554Y-98470446D01*
X183188906Y-98569575D01*
X183249354Y-98682664D01*
X183249355Y-98682668D01*
X183286580Y-98805382D01*
X183299149Y-98933000D01*
X183286580Y-99060618D01*
X183279670Y-99083396D01*
X183249354Y-99183336D01*
X183188906Y-99296425D01*
X183107554Y-99395554D01*
X183008425Y-99476906D01*
X182895336Y-99537354D01*
X182871152Y-99544690D01*
X182772618Y-99574580D01*
X182708855Y-99580860D01*
X182676974Y-99584000D01*
X181813026Y-99584000D01*
X181781145Y-99580860D01*
X181717382Y-99574580D01*
X181618848Y-99544690D01*
X181594664Y-99537354D01*
X181481575Y-99476906D01*
X181382446Y-99395554D01*
X181301094Y-99296425D01*
X181240646Y-99183336D01*
X181210330Y-99083396D01*
X181203420Y-99060618D01*
X181190851Y-98933000D01*
X181203420Y-98805382D01*
X181240645Y-98682668D01*
X181240646Y-98682664D01*
X181301094Y-98569575D01*
X181382446Y-98470446D01*
X181481575Y-98389094D01*
X181594664Y-98328646D01*
X181626596Y-98318960D01*
X181717382Y-98291420D01*
X181781145Y-98285140D01*
X181813026Y-98282000D01*
X182676974Y-98282000D01*
X182708855Y-98285140D01*
X182708855Y-98285140D01*
G37*
G36*
X177628855Y-95745140D02*
G01*
X177692618Y-95751420D01*
X177783404Y-95778960D01*
X177815336Y-95788646D01*
X177928425Y-95849094D01*
X178027554Y-95930446D01*
X178108906Y-96029575D01*
X178169354Y-96142664D01*
X178169355Y-96142668D01*
X178206580Y-96265382D01*
X178219149Y-96393000D01*
X178206580Y-96520618D01*
X178199046Y-96545453D01*
X178169354Y-96643336D01*
X178108906Y-96756425D01*
X178027554Y-96855554D01*
X177928425Y-96936906D01*
X177815336Y-96997354D01*
X177783404Y-97007040D01*
X177692618Y-97034580D01*
X177628855Y-97040860D01*
X177596974Y-97044000D01*
X176733026Y-97044000D01*
X176701145Y-97040860D01*
X176637382Y-97034580D01*
X176546596Y-97007040D01*
X176514664Y-96997354D01*
X176401575Y-96936906D01*
X176302446Y-96855554D01*
X176221094Y-96756425D01*
X176160646Y-96643336D01*
X176130954Y-96545453D01*
X176123420Y-96520618D01*
X176110851Y-96393000D01*
X176123420Y-96265382D01*
X176160645Y-96142668D01*
X176160646Y-96142664D01*
X176221094Y-96029575D01*
X176302446Y-95930446D01*
X176401575Y-95849094D01*
X176514664Y-95788646D01*
X176546596Y-95778960D01*
X176637382Y-95751420D01*
X176701145Y-95745140D01*
X176733026Y-95742000D01*
X177596974Y-95742000D01*
X177628855Y-95745140D01*
X177628855Y-95745140D01*
G37*
G36*
X182708855Y-95745140D02*
G01*
X182772618Y-95751420D01*
X182863404Y-95778960D01*
X182895336Y-95788646D01*
X183008425Y-95849094D01*
X183107554Y-95930446D01*
X183188906Y-96029575D01*
X183249354Y-96142664D01*
X183249355Y-96142668D01*
X183286580Y-96265382D01*
X183299149Y-96393000D01*
X183286580Y-96520618D01*
X183279046Y-96545453D01*
X183249354Y-96643336D01*
X183188906Y-96756425D01*
X183107554Y-96855554D01*
X183008425Y-96936906D01*
X182895336Y-96997354D01*
X182863404Y-97007040D01*
X182772618Y-97034580D01*
X182708855Y-97040860D01*
X182676974Y-97044000D01*
X181813026Y-97044000D01*
X181781145Y-97040860D01*
X181717382Y-97034580D01*
X181626596Y-97007040D01*
X181594664Y-96997354D01*
X181481575Y-96936906D01*
X181382446Y-96855554D01*
X181301094Y-96756425D01*
X181240646Y-96643336D01*
X181210954Y-96545453D01*
X181203420Y-96520618D01*
X181190851Y-96393000D01*
X181203420Y-96265382D01*
X181240645Y-96142668D01*
X181240646Y-96142664D01*
X181301094Y-96029575D01*
X181382446Y-95930446D01*
X181481575Y-95849094D01*
X181594664Y-95788646D01*
X181626596Y-95778960D01*
X181717382Y-95751420D01*
X181781145Y-95745140D01*
X181813026Y-95742000D01*
X182676974Y-95742000D01*
X182708855Y-95745140D01*
X182708855Y-95745140D01*
G37*
G36*
X152677395Y-94716546D02*
G01*
X152850466Y-94788234D01*
X152850467Y-94788235D01*
X153006227Y-94892310D01*
X153138690Y-95024773D01*
X153138691Y-95024775D01*
X153242766Y-95180534D01*
X153314454Y-95353605D01*
X153351000Y-95537333D01*
X153351000Y-95724667D01*
X153314454Y-95908395D01*
X153242766Y-96081466D01*
X153242765Y-96081467D01*
X153138690Y-96237227D01*
X153006227Y-96369690D01*
X152971341Y-96393000D01*
X152850466Y-96473766D01*
X152677395Y-96545454D01*
X152493667Y-96582000D01*
X152306333Y-96582000D01*
X152122605Y-96545454D01*
X151949534Y-96473766D01*
X151828659Y-96393000D01*
X151793773Y-96369690D01*
X151661310Y-96237227D01*
X151557235Y-96081467D01*
X151557234Y-96081466D01*
X151485546Y-95908395D01*
X151449000Y-95724667D01*
X151449000Y-95537333D01*
X151485546Y-95353605D01*
X151557234Y-95180534D01*
X151661309Y-95024775D01*
X151661310Y-95024773D01*
X151793773Y-94892310D01*
X151949533Y-94788235D01*
X151949534Y-94788234D01*
X152122605Y-94716546D01*
X152306333Y-94680000D01*
X152493667Y-94680000D01*
X152677395Y-94716546D01*
X152677395Y-94716546D01*
G37*
G36*
X150811000Y-96582000D02*
G01*
X148909000Y-96582000D01*
X148909000Y-94680000D01*
X150811000Y-94680000D01*
X150811000Y-96582000D01*
X150811000Y-96582000D01*
G37*
G36*
X142517395Y-94716546D02*
G01*
X142690466Y-94788234D01*
X142690467Y-94788235D01*
X142846227Y-94892310D01*
X142978690Y-95024773D01*
X142978691Y-95024775D01*
X143082766Y-95180534D01*
X143154454Y-95353605D01*
X143191000Y-95537333D01*
X143191000Y-95724667D01*
X143154454Y-95908395D01*
X143082766Y-96081466D01*
X143082765Y-96081467D01*
X142978690Y-96237227D01*
X142846227Y-96369690D01*
X142811341Y-96393000D01*
X142690466Y-96473766D01*
X142517395Y-96545454D01*
X142333667Y-96582000D01*
X142146333Y-96582000D01*
X141962605Y-96545454D01*
X141789534Y-96473766D01*
X141668659Y-96393000D01*
X141633773Y-96369690D01*
X141501310Y-96237227D01*
X141397235Y-96081467D01*
X141397234Y-96081466D01*
X141325546Y-95908395D01*
X141289000Y-95724667D01*
X141289000Y-95537333D01*
X141325546Y-95353605D01*
X141397234Y-95180534D01*
X141501309Y-95024775D01*
X141501310Y-95024773D01*
X141633773Y-94892310D01*
X141789533Y-94788235D01*
X141789534Y-94788234D01*
X141962605Y-94716546D01*
X142146333Y-94680000D01*
X142333667Y-94680000D01*
X142517395Y-94716546D01*
X142517395Y-94716546D01*
G37*
G36*
X140651000Y-96582000D02*
G01*
X138749000Y-96582000D01*
X138749000Y-94680000D01*
X140651000Y-94680000D01*
X140651000Y-96582000D01*
X140651000Y-96582000D01*
G37*
G36*
X182708855Y-93205140D02*
G01*
X182772618Y-93211420D01*
X182863404Y-93238960D01*
X182895336Y-93248646D01*
X183008425Y-93309094D01*
X183107554Y-93390446D01*
X183188906Y-93489575D01*
X183249354Y-93602664D01*
X183249355Y-93602668D01*
X183286580Y-93725382D01*
X183299149Y-93853000D01*
X183286580Y-93980618D01*
X183259040Y-94071404D01*
X183249354Y-94103336D01*
X183188906Y-94216425D01*
X183107554Y-94315554D01*
X183008425Y-94396906D01*
X182895336Y-94457354D01*
X182863404Y-94467040D01*
X182772618Y-94494580D01*
X182708855Y-94500860D01*
X182676974Y-94504000D01*
X181813026Y-94504000D01*
X181781145Y-94500860D01*
X181717382Y-94494580D01*
X181626596Y-94467040D01*
X181594664Y-94457354D01*
X181481575Y-94396906D01*
X181382446Y-94315554D01*
X181301094Y-94216425D01*
X181240646Y-94103336D01*
X181230960Y-94071404D01*
X181203420Y-93980618D01*
X181190851Y-93853000D01*
X181203420Y-93725382D01*
X181240645Y-93602668D01*
X181240646Y-93602664D01*
X181301094Y-93489575D01*
X181382446Y-93390446D01*
X181481575Y-93309094D01*
X181594664Y-93248646D01*
X181626596Y-93238960D01*
X181717382Y-93211420D01*
X181781145Y-93205140D01*
X181813026Y-93202000D01*
X182676974Y-93202000D01*
X182708855Y-93205140D01*
X182708855Y-93205140D01*
G37*
G36*
X177628855Y-93205140D02*
G01*
X177692618Y-93211420D01*
X177783404Y-93238960D01*
X177815336Y-93248646D01*
X177928425Y-93309094D01*
X178027554Y-93390446D01*
X178108906Y-93489575D01*
X178169354Y-93602664D01*
X178169355Y-93602668D01*
X178206580Y-93725382D01*
X178219149Y-93853000D01*
X178206580Y-93980618D01*
X178179040Y-94071404D01*
X178169354Y-94103336D01*
X178108906Y-94216425D01*
X178027554Y-94315554D01*
X177928425Y-94396906D01*
X177815336Y-94457354D01*
X177783404Y-94467040D01*
X177692618Y-94494580D01*
X177628855Y-94500860D01*
X177596974Y-94504000D01*
X176733026Y-94504000D01*
X176701145Y-94500860D01*
X176637382Y-94494580D01*
X176546596Y-94467040D01*
X176514664Y-94457354D01*
X176401575Y-94396906D01*
X176302446Y-94315554D01*
X176221094Y-94216425D01*
X176160646Y-94103336D01*
X176150960Y-94071404D01*
X176123420Y-93980618D01*
X176110851Y-93853000D01*
X176123420Y-93725382D01*
X176160645Y-93602668D01*
X176160646Y-93602664D01*
X176221094Y-93489575D01*
X176302446Y-93390446D01*
X176401575Y-93309094D01*
X176514664Y-93248646D01*
X176546596Y-93238960D01*
X176637382Y-93211420D01*
X176701145Y-93205140D01*
X176733026Y-93202000D01*
X177596974Y-93202000D01*
X177628855Y-93205140D01*
X177628855Y-93205140D01*
G37*
G36*
X150811000Y-93407000D02*
G01*
X148909000Y-93407000D01*
X148909000Y-91505000D01*
X150811000Y-91505000D01*
X150811000Y-93407000D01*
X150811000Y-93407000D01*
G37*
G36*
X140651000Y-93407000D02*
G01*
X138749000Y-93407000D01*
X138749000Y-91505000D01*
X140651000Y-91505000D01*
X140651000Y-93407000D01*
X140651000Y-93407000D01*
G37*
G36*
X142517395Y-91541546D02*
G01*
X142690466Y-91613234D01*
X142690467Y-91613235D01*
X142846227Y-91717310D01*
X142978690Y-91849773D01*
X142978691Y-91849775D01*
X143082766Y-92005534D01*
X143154454Y-92178605D01*
X143191000Y-92362333D01*
X143191000Y-92549667D01*
X143154454Y-92733395D01*
X143082766Y-92906466D01*
X143082765Y-92906467D01*
X142978690Y-93062227D01*
X142846227Y-93194690D01*
X142767818Y-93247081D01*
X142690466Y-93298766D01*
X142517395Y-93370454D01*
X142333667Y-93407000D01*
X142146333Y-93407000D01*
X141962605Y-93370454D01*
X141789534Y-93298766D01*
X141712182Y-93247081D01*
X141633773Y-93194690D01*
X141501310Y-93062227D01*
X141397235Y-92906467D01*
X141397234Y-92906466D01*
X141325546Y-92733395D01*
X141289000Y-92549667D01*
X141289000Y-92362333D01*
X141325546Y-92178605D01*
X141397234Y-92005534D01*
X141501309Y-91849775D01*
X141501310Y-91849773D01*
X141633773Y-91717310D01*
X141789533Y-91613235D01*
X141789534Y-91613234D01*
X141962605Y-91541546D01*
X142146333Y-91505000D01*
X142333667Y-91505000D01*
X142517395Y-91541546D01*
X142517395Y-91541546D01*
G37*
G36*
X152677395Y-91541546D02*
G01*
X152850466Y-91613234D01*
X152850467Y-91613235D01*
X153006227Y-91717310D01*
X153138690Y-91849773D01*
X153138691Y-91849775D01*
X153242766Y-92005534D01*
X153314454Y-92178605D01*
X153351000Y-92362333D01*
X153351000Y-92549667D01*
X153314454Y-92733395D01*
X153242766Y-92906466D01*
X153242765Y-92906467D01*
X153138690Y-93062227D01*
X153006227Y-93194690D01*
X152927818Y-93247081D01*
X152850466Y-93298766D01*
X152677395Y-93370454D01*
X152493667Y-93407000D01*
X152306333Y-93407000D01*
X152122605Y-93370454D01*
X151949534Y-93298766D01*
X151872182Y-93247081D01*
X151793773Y-93194690D01*
X151661310Y-93062227D01*
X151557235Y-92906467D01*
X151557234Y-92906466D01*
X151485546Y-92733395D01*
X151449000Y-92549667D01*
X151449000Y-92362333D01*
X151485546Y-92178605D01*
X151557234Y-92005534D01*
X151661309Y-91849775D01*
X151661310Y-91849773D01*
X151793773Y-91717310D01*
X151949533Y-91613235D01*
X151949534Y-91613234D01*
X152122605Y-91541546D01*
X152306333Y-91505000D01*
X152493667Y-91505000D01*
X152677395Y-91541546D01*
X152677395Y-91541546D01*
G37*
G36*
X177628855Y-90665140D02*
G01*
X177692618Y-90671420D01*
X177783404Y-90698960D01*
X177815336Y-90708646D01*
X177928425Y-90769094D01*
X178027554Y-90850446D01*
X178108906Y-90949575D01*
X178169354Y-91062664D01*
X178169355Y-91062668D01*
X178206580Y-91185382D01*
X178219149Y-91313000D01*
X178206580Y-91440618D01*
X178187050Y-91505000D01*
X178169354Y-91563336D01*
X178108906Y-91676425D01*
X178027554Y-91775554D01*
X177928425Y-91856906D01*
X177815336Y-91917354D01*
X177783404Y-91927040D01*
X177692618Y-91954580D01*
X177628855Y-91960860D01*
X177596974Y-91964000D01*
X176733026Y-91964000D01*
X176701145Y-91960860D01*
X176637382Y-91954580D01*
X176546596Y-91927040D01*
X176514664Y-91917354D01*
X176401575Y-91856906D01*
X176302446Y-91775554D01*
X176221094Y-91676425D01*
X176160646Y-91563336D01*
X176142950Y-91505000D01*
X176123420Y-91440618D01*
X176110851Y-91313000D01*
X176123420Y-91185382D01*
X176160645Y-91062668D01*
X176160646Y-91062664D01*
X176221094Y-90949575D01*
X176302446Y-90850446D01*
X176401575Y-90769094D01*
X176514664Y-90708646D01*
X176546596Y-90698960D01*
X176637382Y-90671420D01*
X176701145Y-90665140D01*
X176733026Y-90662000D01*
X177596974Y-90662000D01*
X177628855Y-90665140D01*
X177628855Y-90665140D01*
G37*
G36*
X182708855Y-90665140D02*
G01*
X182772618Y-90671420D01*
X182863404Y-90698960D01*
X182895336Y-90708646D01*
X183008425Y-90769094D01*
X183107554Y-90850446D01*
X183188906Y-90949575D01*
X183249354Y-91062664D01*
X183249355Y-91062668D01*
X183286580Y-91185382D01*
X183299149Y-91313000D01*
X183286580Y-91440618D01*
X183267050Y-91505000D01*
X183249354Y-91563336D01*
X183188906Y-91676425D01*
X183107554Y-91775554D01*
X183008425Y-91856906D01*
X182895336Y-91917354D01*
X182863404Y-91927040D01*
X182772618Y-91954580D01*
X182708855Y-91960860D01*
X182676974Y-91964000D01*
X181813026Y-91964000D01*
X181781145Y-91960860D01*
X181717382Y-91954580D01*
X181626596Y-91927040D01*
X181594664Y-91917354D01*
X181481575Y-91856906D01*
X181382446Y-91775554D01*
X181301094Y-91676425D01*
X181240646Y-91563336D01*
X181222950Y-91505000D01*
X181203420Y-91440618D01*
X181190851Y-91313000D01*
X181203420Y-91185382D01*
X181240645Y-91062668D01*
X181240646Y-91062664D01*
X181301094Y-90949575D01*
X181382446Y-90850446D01*
X181481575Y-90769094D01*
X181594664Y-90708646D01*
X181626596Y-90698960D01*
X181717382Y-90671420D01*
X181781145Y-90665140D01*
X181813026Y-90662000D01*
X182676974Y-90662000D01*
X182708855Y-90665140D01*
X182708855Y-90665140D01*
G37*
G36*
X142517395Y-88366546D02*
G01*
X142690466Y-88438234D01*
X142690467Y-88438235D01*
X142846227Y-88542310D01*
X142978690Y-88674773D01*
X142978691Y-88674775D01*
X143082766Y-88830534D01*
X143154454Y-89003605D01*
X143191000Y-89187333D01*
X143191000Y-89374667D01*
X143154454Y-89558395D01*
X143082766Y-89731466D01*
X143082765Y-89731467D01*
X142978690Y-89887227D01*
X142846227Y-90019690D01*
X142767818Y-90072081D01*
X142690466Y-90123766D01*
X142517395Y-90195454D01*
X142333667Y-90232000D01*
X142146333Y-90232000D01*
X141962605Y-90195454D01*
X141789534Y-90123766D01*
X141712182Y-90072081D01*
X141633773Y-90019690D01*
X141501310Y-89887227D01*
X141397235Y-89731467D01*
X141397234Y-89731466D01*
X141325546Y-89558395D01*
X141289000Y-89374667D01*
X141289000Y-89187333D01*
X141325546Y-89003605D01*
X141397234Y-88830534D01*
X141501309Y-88674775D01*
X141501310Y-88674773D01*
X141633773Y-88542310D01*
X141789533Y-88438235D01*
X141789534Y-88438234D01*
X141962605Y-88366546D01*
X142146333Y-88330000D01*
X142333667Y-88330000D01*
X142517395Y-88366546D01*
X142517395Y-88366546D01*
G37*
G36*
X140651000Y-90232000D02*
G01*
X138749000Y-90232000D01*
X138749000Y-88330000D01*
X140651000Y-88330000D01*
X140651000Y-90232000D01*
X140651000Y-90232000D01*
G37*
G36*
X177628855Y-88125140D02*
G01*
X177692618Y-88131420D01*
X177783404Y-88158960D01*
X177815336Y-88168646D01*
X177928425Y-88229094D01*
X178027554Y-88310446D01*
X178108906Y-88409575D01*
X178169354Y-88522664D01*
X178169355Y-88522668D01*
X178206580Y-88645382D01*
X178219149Y-88773000D01*
X178206580Y-88900618D01*
X178179040Y-88991404D01*
X178169354Y-89023336D01*
X178108906Y-89136425D01*
X178027554Y-89235554D01*
X177928425Y-89316906D01*
X177815336Y-89377354D01*
X177783404Y-89387040D01*
X177692618Y-89414580D01*
X177628855Y-89420860D01*
X177596974Y-89424000D01*
X176733026Y-89424000D01*
X176701145Y-89420860D01*
X176637382Y-89414580D01*
X176546596Y-89387040D01*
X176514664Y-89377354D01*
X176401575Y-89316906D01*
X176302446Y-89235554D01*
X176221094Y-89136425D01*
X176160646Y-89023336D01*
X176150960Y-88991404D01*
X176123420Y-88900618D01*
X176110851Y-88773000D01*
X176123420Y-88645382D01*
X176160645Y-88522668D01*
X176160646Y-88522664D01*
X176221094Y-88409575D01*
X176302446Y-88310446D01*
X176401575Y-88229094D01*
X176514664Y-88168646D01*
X176546596Y-88158960D01*
X176637382Y-88131420D01*
X176701145Y-88125140D01*
X176733026Y-88122000D01*
X177596974Y-88122000D01*
X177628855Y-88125140D01*
X177628855Y-88125140D01*
G37*
G36*
X182708855Y-88125140D02*
G01*
X182772618Y-88131420D01*
X182863404Y-88158960D01*
X182895336Y-88168646D01*
X183008425Y-88229094D01*
X183107554Y-88310446D01*
X183188906Y-88409575D01*
X183249354Y-88522664D01*
X183249355Y-88522668D01*
X183286580Y-88645382D01*
X183299149Y-88773000D01*
X183286580Y-88900618D01*
X183259040Y-88991404D01*
X183249354Y-89023336D01*
X183188906Y-89136425D01*
X183107554Y-89235554D01*
X183008425Y-89316906D01*
X182895336Y-89377354D01*
X182863404Y-89387040D01*
X182772618Y-89414580D01*
X182708855Y-89420860D01*
X182676974Y-89424000D01*
X181813026Y-89424000D01*
X181781145Y-89420860D01*
X181717382Y-89414580D01*
X181626596Y-89387040D01*
X181594664Y-89377354D01*
X181481575Y-89316906D01*
X181382446Y-89235554D01*
X181301094Y-89136425D01*
X181240646Y-89023336D01*
X181230960Y-88991404D01*
X181203420Y-88900618D01*
X181190851Y-88773000D01*
X181203420Y-88645382D01*
X181240645Y-88522668D01*
X181240646Y-88522664D01*
X181301094Y-88409575D01*
X181382446Y-88310446D01*
X181481575Y-88229094D01*
X181594664Y-88168646D01*
X181626596Y-88158960D01*
X181717382Y-88131420D01*
X181781145Y-88125140D01*
X181813026Y-88122000D01*
X182676974Y-88122000D01*
X182708855Y-88125140D01*
X182708855Y-88125140D01*
G37*
G36*
X140651000Y-87057000D02*
G01*
X138749000Y-87057000D01*
X138749000Y-85155000D01*
X140651000Y-85155000D01*
X140651000Y-87057000D01*
X140651000Y-87057000D01*
G37*
G36*
X142517395Y-85191546D02*
G01*
X142690466Y-85263234D01*
X142690467Y-85263235D01*
X142846227Y-85367310D01*
X142978690Y-85499773D01*
X142978691Y-85499775D01*
X143082766Y-85655534D01*
X143154454Y-85828605D01*
X143191000Y-86012333D01*
X143191000Y-86199667D01*
X143154454Y-86383395D01*
X143082766Y-86556466D01*
X143031081Y-86633818D01*
X142978690Y-86712227D01*
X142846227Y-86844690D01*
X142801493Y-86874580D01*
X142690466Y-86948766D01*
X142517395Y-87020454D01*
X142333667Y-87057000D01*
X142146333Y-87057000D01*
X141962605Y-87020454D01*
X141789534Y-86948766D01*
X141678507Y-86874580D01*
X141633773Y-86844690D01*
X141501310Y-86712227D01*
X141448919Y-86633818D01*
X141397234Y-86556466D01*
X141325546Y-86383395D01*
X141289000Y-86199667D01*
X141289000Y-86012333D01*
X141325546Y-85828605D01*
X141397234Y-85655534D01*
X141501309Y-85499775D01*
X141501310Y-85499773D01*
X141633773Y-85367310D01*
X141789533Y-85263235D01*
X141789534Y-85263234D01*
X141962605Y-85191546D01*
X142146333Y-85155000D01*
X142333667Y-85155000D01*
X142517395Y-85191546D01*
X142517395Y-85191546D01*
G37*
G36*
X152677395Y-85191546D02*
G01*
X152850466Y-85263234D01*
X152850467Y-85263235D01*
X153006227Y-85367310D01*
X153138690Y-85499773D01*
X153138691Y-85499775D01*
X153242766Y-85655534D01*
X153314454Y-85828605D01*
X153351000Y-86012333D01*
X153351000Y-86199667D01*
X153314454Y-86383395D01*
X153242766Y-86556466D01*
X153191081Y-86633818D01*
X153138690Y-86712227D01*
X153006227Y-86844690D01*
X152961493Y-86874580D01*
X152850466Y-86948766D01*
X152677395Y-87020454D01*
X152493667Y-87057000D01*
X152306333Y-87057000D01*
X152122605Y-87020454D01*
X151949534Y-86948766D01*
X151838507Y-86874580D01*
X151793773Y-86844690D01*
X151661310Y-86712227D01*
X151608919Y-86633818D01*
X151557234Y-86556466D01*
X151485546Y-86383395D01*
X151449000Y-86199667D01*
X151449000Y-86012333D01*
X151485546Y-85828605D01*
X151557234Y-85655534D01*
X151661309Y-85499775D01*
X151661310Y-85499773D01*
X151793773Y-85367310D01*
X151949533Y-85263235D01*
X151949534Y-85263234D01*
X152122605Y-85191546D01*
X152306333Y-85155000D01*
X152493667Y-85155000D01*
X152677395Y-85191546D01*
X152677395Y-85191546D01*
G37*
G36*
X150811000Y-87057000D02*
G01*
X148909000Y-87057000D01*
X148909000Y-85155000D01*
X150811000Y-85155000D01*
X150811000Y-87057000D01*
X150811000Y-87057000D01*
G37*
G36*
X182708855Y-85585140D02*
G01*
X182772618Y-85591420D01*
X182863404Y-85618960D01*
X182895336Y-85628646D01*
X183008425Y-85689094D01*
X183107554Y-85770446D01*
X183188906Y-85869575D01*
X183249354Y-85982664D01*
X183249355Y-85982668D01*
X183286580Y-86105382D01*
X183299149Y-86233000D01*
X183286580Y-86360618D01*
X183279670Y-86383396D01*
X183249354Y-86483336D01*
X183188906Y-86596425D01*
X183107554Y-86695554D01*
X183008425Y-86776906D01*
X182895336Y-86837354D01*
X182871152Y-86844690D01*
X182772618Y-86874580D01*
X182708855Y-86880860D01*
X182676974Y-86884000D01*
X181813026Y-86884000D01*
X181781145Y-86880860D01*
X181717382Y-86874580D01*
X181618848Y-86844690D01*
X181594664Y-86837354D01*
X181481575Y-86776906D01*
X181382446Y-86695554D01*
X181301094Y-86596425D01*
X181240646Y-86483336D01*
X181210330Y-86383396D01*
X181203420Y-86360618D01*
X181190851Y-86233000D01*
X181203420Y-86105382D01*
X181240645Y-85982668D01*
X181240646Y-85982664D01*
X181301094Y-85869575D01*
X181382446Y-85770446D01*
X181481575Y-85689094D01*
X181594664Y-85628646D01*
X181626596Y-85618960D01*
X181717382Y-85591420D01*
X181781145Y-85585140D01*
X181813026Y-85582000D01*
X182676974Y-85582000D01*
X182708855Y-85585140D01*
X182708855Y-85585140D01*
G37*
G36*
X177628855Y-85585140D02*
G01*
X177692618Y-85591420D01*
X177783404Y-85618960D01*
X177815336Y-85628646D01*
X177928425Y-85689094D01*
X178027554Y-85770446D01*
X178108906Y-85869575D01*
X178169354Y-85982664D01*
X178169355Y-85982668D01*
X178206580Y-86105382D01*
X178219149Y-86233000D01*
X178206580Y-86360618D01*
X178199670Y-86383396D01*
X178169354Y-86483336D01*
X178108906Y-86596425D01*
X178027554Y-86695554D01*
X177928425Y-86776906D01*
X177815336Y-86837354D01*
X177791152Y-86844690D01*
X177692618Y-86874580D01*
X177628855Y-86880860D01*
X177596974Y-86884000D01*
X176733026Y-86884000D01*
X176701145Y-86880860D01*
X176637382Y-86874580D01*
X176538848Y-86844690D01*
X176514664Y-86837354D01*
X176401575Y-86776906D01*
X176302446Y-86695554D01*
X176221094Y-86596425D01*
X176160646Y-86483336D01*
X176130330Y-86383396D01*
X176123420Y-86360618D01*
X176110851Y-86233000D01*
X176123420Y-86105382D01*
X176160645Y-85982668D01*
X176160646Y-85982664D01*
X176221094Y-85869575D01*
X176302446Y-85770446D01*
X176401575Y-85689094D01*
X176514664Y-85628646D01*
X176546596Y-85618960D01*
X176637382Y-85591420D01*
X176701145Y-85585140D01*
X176733026Y-85582000D01*
X177596974Y-85582000D01*
X177628855Y-85585140D01*
X177628855Y-85585140D01*
G37*
G36*
X177628855Y-83045140D02*
G01*
X177692618Y-83051420D01*
X177783404Y-83078960D01*
X177815336Y-83088646D01*
X177928425Y-83149094D01*
X178027554Y-83230446D01*
X178108906Y-83329575D01*
X178169354Y-83442664D01*
X178169355Y-83442668D01*
X178206580Y-83565382D01*
X178219149Y-83693000D01*
X178206580Y-83820618D01*
X178199046Y-83845453D01*
X178169354Y-83943336D01*
X178108906Y-84056425D01*
X178027554Y-84155554D01*
X177928425Y-84236906D01*
X177815336Y-84297354D01*
X177783404Y-84307040D01*
X177692618Y-84334580D01*
X177628855Y-84340860D01*
X177596974Y-84344000D01*
X176733026Y-84344000D01*
X176701145Y-84340860D01*
X176637382Y-84334580D01*
X176546596Y-84307040D01*
X176514664Y-84297354D01*
X176401575Y-84236906D01*
X176302446Y-84155554D01*
X176221094Y-84056425D01*
X176160646Y-83943336D01*
X176130954Y-83845453D01*
X176123420Y-83820618D01*
X176110851Y-83693000D01*
X176123420Y-83565382D01*
X176160645Y-83442668D01*
X176160646Y-83442664D01*
X176221094Y-83329575D01*
X176302446Y-83230446D01*
X176401575Y-83149094D01*
X176514664Y-83088646D01*
X176546596Y-83078960D01*
X176637382Y-83051420D01*
X176701145Y-83045140D01*
X176733026Y-83042000D01*
X177596974Y-83042000D01*
X177628855Y-83045140D01*
X177628855Y-83045140D01*
G37*
G36*
X182708855Y-83045140D02*
G01*
X182772618Y-83051420D01*
X182863404Y-83078960D01*
X182895336Y-83088646D01*
X183008425Y-83149094D01*
X183107554Y-83230446D01*
X183188906Y-83329575D01*
X183249354Y-83442664D01*
X183249355Y-83442668D01*
X183286580Y-83565382D01*
X183299149Y-83693000D01*
X183286580Y-83820618D01*
X183279046Y-83845453D01*
X183249354Y-83943336D01*
X183188906Y-84056425D01*
X183107554Y-84155554D01*
X183008425Y-84236906D01*
X182895336Y-84297354D01*
X182863404Y-84307040D01*
X182772618Y-84334580D01*
X182708855Y-84340860D01*
X182676974Y-84344000D01*
X181813026Y-84344000D01*
X181781145Y-84340860D01*
X181717382Y-84334580D01*
X181626596Y-84307040D01*
X181594664Y-84297354D01*
X181481575Y-84236906D01*
X181382446Y-84155554D01*
X181301094Y-84056425D01*
X181240646Y-83943336D01*
X181210954Y-83845453D01*
X181203420Y-83820618D01*
X181190851Y-83693000D01*
X181203420Y-83565382D01*
X181240645Y-83442668D01*
X181240646Y-83442664D01*
X181301094Y-83329575D01*
X181382446Y-83230446D01*
X181481575Y-83149094D01*
X181594664Y-83088646D01*
X181626596Y-83078960D01*
X181717382Y-83051420D01*
X181781145Y-83045140D01*
X181813026Y-83042000D01*
X182676974Y-83042000D01*
X182708855Y-83045140D01*
X182708855Y-83045140D01*
G37*
G36*
X140651000Y-83882000D02*
G01*
X138749000Y-83882000D01*
X138749000Y-81980000D01*
X140651000Y-81980000D01*
X140651000Y-83882000D01*
X140651000Y-83882000D01*
G37*
G36*
X142517395Y-82016546D02*
G01*
X142690466Y-82088234D01*
X142690467Y-82088235D01*
X142846227Y-82192310D01*
X142978690Y-82324773D01*
X142978691Y-82324775D01*
X143082766Y-82480534D01*
X143154454Y-82653605D01*
X143191000Y-82837333D01*
X143191000Y-83024667D01*
X143154454Y-83208395D01*
X143082766Y-83381466D01*
X143082765Y-83381467D01*
X142978690Y-83537227D01*
X142846227Y-83669690D01*
X142811341Y-83693000D01*
X142690466Y-83773766D01*
X142517395Y-83845454D01*
X142333667Y-83882000D01*
X142146333Y-83882000D01*
X141962605Y-83845454D01*
X141789534Y-83773766D01*
X141668659Y-83693000D01*
X141633773Y-83669690D01*
X141501310Y-83537227D01*
X141397235Y-83381467D01*
X141397234Y-83381466D01*
X141325546Y-83208395D01*
X141289000Y-83024667D01*
X141289000Y-82837333D01*
X141325546Y-82653605D01*
X141397234Y-82480534D01*
X141501309Y-82324775D01*
X141501310Y-82324773D01*
X141633773Y-82192310D01*
X141789533Y-82088235D01*
X141789534Y-82088234D01*
X141962605Y-82016546D01*
X142146333Y-81980000D01*
X142333667Y-81980000D01*
X142517395Y-82016546D01*
X142517395Y-82016546D01*
G37*
G36*
X182708855Y-80505140D02*
G01*
X182772618Y-80511420D01*
X182863404Y-80538960D01*
X182895336Y-80548646D01*
X183008425Y-80609094D01*
X183107554Y-80690446D01*
X183188906Y-80789575D01*
X183249354Y-80902664D01*
X183249355Y-80902668D01*
X183286580Y-81025382D01*
X183299149Y-81153000D01*
X183286580Y-81280618D01*
X183259040Y-81371404D01*
X183249354Y-81403336D01*
X183188906Y-81516425D01*
X183107554Y-81615554D01*
X183008425Y-81696906D01*
X182895336Y-81757354D01*
X182863404Y-81767040D01*
X182772618Y-81794580D01*
X182708855Y-81800860D01*
X182676974Y-81804000D01*
X181813026Y-81804000D01*
X181781145Y-81800860D01*
X181717382Y-81794580D01*
X181626596Y-81767040D01*
X181594664Y-81757354D01*
X181481575Y-81696906D01*
X181382446Y-81615554D01*
X181301094Y-81516425D01*
X181240646Y-81403336D01*
X181230960Y-81371404D01*
X181203420Y-81280618D01*
X181190851Y-81153000D01*
X181203420Y-81025382D01*
X181240645Y-80902668D01*
X181240646Y-80902664D01*
X181301094Y-80789575D01*
X181382446Y-80690446D01*
X181481575Y-80609094D01*
X181594664Y-80548646D01*
X181626596Y-80538960D01*
X181717382Y-80511420D01*
X181781145Y-80505140D01*
X181813026Y-80502000D01*
X182676974Y-80502000D01*
X182708855Y-80505140D01*
X182708855Y-80505140D01*
G37*
G36*
X177628855Y-80505140D02*
G01*
X177692618Y-80511420D01*
X177783404Y-80538960D01*
X177815336Y-80548646D01*
X177928425Y-80609094D01*
X178027554Y-80690446D01*
X178108906Y-80789575D01*
X178169354Y-80902664D01*
X178169355Y-80902668D01*
X178206580Y-81025382D01*
X178219149Y-81153000D01*
X178206580Y-81280618D01*
X178179040Y-81371404D01*
X178169354Y-81403336D01*
X178108906Y-81516425D01*
X178027554Y-81615554D01*
X177928425Y-81696906D01*
X177815336Y-81757354D01*
X177783404Y-81767040D01*
X177692618Y-81794580D01*
X177628855Y-81800860D01*
X177596974Y-81804000D01*
X176733026Y-81804000D01*
X176701145Y-81800860D01*
X176637382Y-81794580D01*
X176546596Y-81767040D01*
X176514664Y-81757354D01*
X176401575Y-81696906D01*
X176302446Y-81615554D01*
X176221094Y-81516425D01*
X176160646Y-81403336D01*
X176150960Y-81371404D01*
X176123420Y-81280618D01*
X176110851Y-81153000D01*
X176123420Y-81025382D01*
X176160645Y-80902668D01*
X176160646Y-80902664D01*
X176221094Y-80789575D01*
X176302446Y-80690446D01*
X176401575Y-80609094D01*
X176514664Y-80548646D01*
X176546596Y-80538960D01*
X176637382Y-80511420D01*
X176701145Y-80505140D01*
X176733026Y-80502000D01*
X177596974Y-80502000D01*
X177628855Y-80505140D01*
X177628855Y-80505140D01*
G37*
G36*
X152677395Y-78841546D02*
G01*
X152850466Y-78913234D01*
X152850467Y-78913235D01*
X153006227Y-79017310D01*
X153138690Y-79149773D01*
X153138691Y-79149775D01*
X153242766Y-79305534D01*
X153314454Y-79478605D01*
X153351000Y-79662333D01*
X153351000Y-79849667D01*
X153314454Y-80033395D01*
X153242766Y-80206466D01*
X153242765Y-80206467D01*
X153138690Y-80362227D01*
X153006227Y-80494690D01*
X152927818Y-80547081D01*
X152850466Y-80598766D01*
X152677395Y-80670454D01*
X152493667Y-80707000D01*
X152306333Y-80707000D01*
X152122605Y-80670454D01*
X151949534Y-80598766D01*
X151872182Y-80547081D01*
X151793773Y-80494690D01*
X151661310Y-80362227D01*
X151557235Y-80206467D01*
X151557234Y-80206466D01*
X151485546Y-80033395D01*
X151449000Y-79849667D01*
X151449000Y-79662333D01*
X151485546Y-79478605D01*
X151557234Y-79305534D01*
X151661309Y-79149775D01*
X151661310Y-79149773D01*
X151793773Y-79017310D01*
X151949533Y-78913235D01*
X151949534Y-78913234D01*
X152122605Y-78841546D01*
X152306333Y-78805000D01*
X152493667Y-78805000D01*
X152677395Y-78841546D01*
X152677395Y-78841546D01*
G37*
G36*
X150811000Y-80707000D02*
G01*
X148909000Y-80707000D01*
X148909000Y-78805000D01*
X150811000Y-78805000D01*
X150811000Y-80707000D01*
X150811000Y-80707000D01*
G37*
G36*
X142517395Y-78841546D02*
G01*
X142690466Y-78913234D01*
X142690467Y-78913235D01*
X142846227Y-79017310D01*
X142978690Y-79149773D01*
X142978691Y-79149775D01*
X143082766Y-79305534D01*
X143154454Y-79478605D01*
X143191000Y-79662333D01*
X143191000Y-79849667D01*
X143154454Y-80033395D01*
X143082766Y-80206466D01*
X143082765Y-80206467D01*
X142978690Y-80362227D01*
X142846227Y-80494690D01*
X142767818Y-80547081D01*
X142690466Y-80598766D01*
X142517395Y-80670454D01*
X142333667Y-80707000D01*
X142146333Y-80707000D01*
X141962605Y-80670454D01*
X141789534Y-80598766D01*
X141712182Y-80547081D01*
X141633773Y-80494690D01*
X141501310Y-80362227D01*
X141397235Y-80206467D01*
X141397234Y-80206466D01*
X141325546Y-80033395D01*
X141289000Y-79849667D01*
X141289000Y-79662333D01*
X141325546Y-79478605D01*
X141397234Y-79305534D01*
X141501309Y-79149775D01*
X141501310Y-79149773D01*
X141633773Y-79017310D01*
X141789533Y-78913235D01*
X141789534Y-78913234D01*
X141962605Y-78841546D01*
X142146333Y-78805000D01*
X142333667Y-78805000D01*
X142517395Y-78841546D01*
X142517395Y-78841546D01*
G37*
G36*
X140651000Y-80707000D02*
G01*
X138749000Y-80707000D01*
X138749000Y-78805000D01*
X140651000Y-78805000D01*
X140651000Y-80707000D01*
X140651000Y-80707000D01*
G37*
G36*
X182708855Y-77965140D02*
G01*
X182772618Y-77971420D01*
X182863404Y-77998960D01*
X182895336Y-78008646D01*
X183008425Y-78069094D01*
X183107554Y-78150446D01*
X183188906Y-78249575D01*
X183249354Y-78362664D01*
X183249355Y-78362668D01*
X183286580Y-78485382D01*
X183299149Y-78613000D01*
X183286580Y-78740618D01*
X183267050Y-78805000D01*
X183249354Y-78863336D01*
X183188906Y-78976425D01*
X183107554Y-79075554D01*
X183008425Y-79156906D01*
X182895336Y-79217354D01*
X182863404Y-79227040D01*
X182772618Y-79254580D01*
X182708855Y-79260860D01*
X182676974Y-79264000D01*
X181813026Y-79264000D01*
X181781145Y-79260860D01*
X181717382Y-79254580D01*
X181626596Y-79227040D01*
X181594664Y-79217354D01*
X181481575Y-79156906D01*
X181382446Y-79075554D01*
X181301094Y-78976425D01*
X181240646Y-78863336D01*
X181222950Y-78805000D01*
X181203420Y-78740618D01*
X181190851Y-78613000D01*
X181203420Y-78485382D01*
X181240645Y-78362668D01*
X181240646Y-78362664D01*
X181301094Y-78249575D01*
X181382446Y-78150446D01*
X181481575Y-78069094D01*
X181594664Y-78008646D01*
X181626596Y-77998960D01*
X181717382Y-77971420D01*
X181781145Y-77965140D01*
X181813026Y-77962000D01*
X182676974Y-77962000D01*
X182708855Y-77965140D01*
X182708855Y-77965140D01*
G37*
G36*
X177628855Y-77965140D02*
G01*
X177692618Y-77971420D01*
X177783404Y-77998960D01*
X177815336Y-78008646D01*
X177928425Y-78069094D01*
X178027554Y-78150446D01*
X178108906Y-78249575D01*
X178169354Y-78362664D01*
X178169355Y-78362668D01*
X178206580Y-78485382D01*
X178219149Y-78613000D01*
X178206580Y-78740618D01*
X178187050Y-78805000D01*
X178169354Y-78863336D01*
X178108906Y-78976425D01*
X178027554Y-79075554D01*
X177928425Y-79156906D01*
X177815336Y-79217354D01*
X177783404Y-79227040D01*
X177692618Y-79254580D01*
X177628855Y-79260860D01*
X177596974Y-79264000D01*
X176733026Y-79264000D01*
X176701145Y-79260860D01*
X176637382Y-79254580D01*
X176546596Y-79227040D01*
X176514664Y-79217354D01*
X176401575Y-79156906D01*
X176302446Y-79075554D01*
X176221094Y-78976425D01*
X176160646Y-78863336D01*
X176142950Y-78805000D01*
X176123420Y-78740618D01*
X176110851Y-78613000D01*
X176123420Y-78485382D01*
X176160645Y-78362668D01*
X176160646Y-78362664D01*
X176221094Y-78249575D01*
X176302446Y-78150446D01*
X176401575Y-78069094D01*
X176514664Y-78008646D01*
X176546596Y-77998960D01*
X176637382Y-77971420D01*
X176701145Y-77965140D01*
X176733026Y-77962000D01*
X177596974Y-77962000D01*
X177628855Y-77965140D01*
X177628855Y-77965140D01*
G37*
G36*
X152677395Y-75666546D02*
G01*
X152850466Y-75738234D01*
X152850467Y-75738235D01*
X153006227Y-75842310D01*
X153138690Y-75974773D01*
X153138691Y-75974775D01*
X153242766Y-76130534D01*
X153314454Y-76303605D01*
X153351000Y-76487333D01*
X153351000Y-76674667D01*
X153314454Y-76858395D01*
X153242766Y-77031466D01*
X153242765Y-77031467D01*
X153138690Y-77187227D01*
X153006227Y-77319690D01*
X152927818Y-77372081D01*
X152850466Y-77423766D01*
X152677395Y-77495454D01*
X152493667Y-77532000D01*
X152306333Y-77532000D01*
X152122605Y-77495454D01*
X151949534Y-77423766D01*
X151872182Y-77372081D01*
X151793773Y-77319690D01*
X151661310Y-77187227D01*
X151557235Y-77031467D01*
X151557234Y-77031466D01*
X151485546Y-76858395D01*
X151449000Y-76674667D01*
X151449000Y-76487333D01*
X151485546Y-76303605D01*
X151557234Y-76130534D01*
X151661309Y-75974775D01*
X151661310Y-75974773D01*
X151793773Y-75842310D01*
X151949533Y-75738235D01*
X151949534Y-75738234D01*
X152122605Y-75666546D01*
X152306333Y-75630000D01*
X152493667Y-75630000D01*
X152677395Y-75666546D01*
X152677395Y-75666546D01*
G37*
G36*
X150811000Y-77532000D02*
G01*
X148909000Y-77532000D01*
X148909000Y-75630000D01*
X150811000Y-75630000D01*
X150811000Y-77532000D01*
X150811000Y-77532000D01*
G37*
G36*
X142517395Y-75666546D02*
G01*
X142690466Y-75738234D01*
X142690467Y-75738235D01*
X142846227Y-75842310D01*
X142978690Y-75974773D01*
X142978691Y-75974775D01*
X143082766Y-76130534D01*
X143154454Y-76303605D01*
X143191000Y-76487333D01*
X143191000Y-76674667D01*
X143154454Y-76858395D01*
X143082766Y-77031466D01*
X143082765Y-77031467D01*
X142978690Y-77187227D01*
X142846227Y-77319690D01*
X142767818Y-77372081D01*
X142690466Y-77423766D01*
X142517395Y-77495454D01*
X142333667Y-77532000D01*
X142146333Y-77532000D01*
X141962605Y-77495454D01*
X141789534Y-77423766D01*
X141712182Y-77372081D01*
X141633773Y-77319690D01*
X141501310Y-77187227D01*
X141397235Y-77031467D01*
X141397234Y-77031466D01*
X141325546Y-76858395D01*
X141289000Y-76674667D01*
X141289000Y-76487333D01*
X141325546Y-76303605D01*
X141397234Y-76130534D01*
X141501309Y-75974775D01*
X141501310Y-75974773D01*
X141633773Y-75842310D01*
X141789533Y-75738235D01*
X141789534Y-75738234D01*
X141962605Y-75666546D01*
X142146333Y-75630000D01*
X142333667Y-75630000D01*
X142517395Y-75666546D01*
X142517395Y-75666546D01*
G37*
G36*
X140651000Y-77532000D02*
G01*
X138749000Y-77532000D01*
X138749000Y-75630000D01*
X140651000Y-75630000D01*
X140651000Y-77532000D01*
X140651000Y-77532000D01*
G37*
G36*
X182708855Y-75425140D02*
G01*
X182772618Y-75431420D01*
X182863404Y-75458960D01*
X182895336Y-75468646D01*
X183008425Y-75529094D01*
X183107554Y-75610446D01*
X183188906Y-75709575D01*
X183249354Y-75822664D01*
X183249355Y-75822668D01*
X183286580Y-75945382D01*
X183299149Y-76073000D01*
X183286580Y-76200618D01*
X183259040Y-76291404D01*
X183249354Y-76323336D01*
X183188906Y-76436425D01*
X183107554Y-76535554D01*
X183008425Y-76616906D01*
X182895336Y-76677354D01*
X182863404Y-76687040D01*
X182772618Y-76714580D01*
X182708855Y-76720860D01*
X182676974Y-76724000D01*
X181813026Y-76724000D01*
X181781145Y-76720860D01*
X181717382Y-76714580D01*
X181626596Y-76687040D01*
X181594664Y-76677354D01*
X181481575Y-76616906D01*
X181382446Y-76535554D01*
X181301094Y-76436425D01*
X181240646Y-76323336D01*
X181230960Y-76291404D01*
X181203420Y-76200618D01*
X181190851Y-76073000D01*
X181203420Y-75945382D01*
X181240645Y-75822668D01*
X181240646Y-75822664D01*
X181301094Y-75709575D01*
X181382446Y-75610446D01*
X181481575Y-75529094D01*
X181594664Y-75468646D01*
X181626596Y-75458960D01*
X181717382Y-75431420D01*
X181781145Y-75425140D01*
X181813026Y-75422000D01*
X182676974Y-75422000D01*
X182708855Y-75425140D01*
X182708855Y-75425140D01*
G37*
G36*
X177628855Y-75425140D02*
G01*
X177692618Y-75431420D01*
X177783404Y-75458960D01*
X177815336Y-75468646D01*
X177928425Y-75529094D01*
X178027554Y-75610446D01*
X178108906Y-75709575D01*
X178169354Y-75822664D01*
X178169355Y-75822668D01*
X178206580Y-75945382D01*
X178219149Y-76073000D01*
X178206580Y-76200618D01*
X178179040Y-76291404D01*
X178169354Y-76323336D01*
X178108906Y-76436425D01*
X178027554Y-76535554D01*
X177928425Y-76616906D01*
X177815336Y-76677354D01*
X177783404Y-76687040D01*
X177692618Y-76714580D01*
X177628855Y-76720860D01*
X177596974Y-76724000D01*
X176733026Y-76724000D01*
X176701145Y-76720860D01*
X176637382Y-76714580D01*
X176546596Y-76687040D01*
X176514664Y-76677354D01*
X176401575Y-76616906D01*
X176302446Y-76535554D01*
X176221094Y-76436425D01*
X176160646Y-76323336D01*
X176150960Y-76291404D01*
X176123420Y-76200618D01*
X176110851Y-76073000D01*
X176123420Y-75945382D01*
X176160645Y-75822668D01*
X176160646Y-75822664D01*
X176221094Y-75709575D01*
X176302446Y-75610446D01*
X176401575Y-75529094D01*
X176514664Y-75468646D01*
X176546596Y-75458960D01*
X176637382Y-75431420D01*
X176701145Y-75425140D01*
X176733026Y-75422000D01*
X177596974Y-75422000D01*
X177628855Y-75425140D01*
X177628855Y-75425140D01*
G37*
G36*
X152677395Y-72491546D02*
G01*
X152850466Y-72563234D01*
X152850467Y-72563235D01*
X153006227Y-72667310D01*
X153138690Y-72799773D01*
X153138691Y-72799775D01*
X153242766Y-72955534D01*
X153314454Y-73128605D01*
X153351000Y-73312333D01*
X153351000Y-73499667D01*
X153314454Y-73683395D01*
X153242766Y-73856466D01*
X153191081Y-73933818D01*
X153138690Y-74012227D01*
X153006227Y-74144690D01*
X152961493Y-74174580D01*
X152850466Y-74248766D01*
X152677395Y-74320454D01*
X152493667Y-74357000D01*
X152306333Y-74357000D01*
X152122605Y-74320454D01*
X151949534Y-74248766D01*
X151838507Y-74174580D01*
X151793773Y-74144690D01*
X151661310Y-74012227D01*
X151608919Y-73933818D01*
X151557234Y-73856466D01*
X151485546Y-73683395D01*
X151449000Y-73499667D01*
X151449000Y-73312333D01*
X151485546Y-73128605D01*
X151557234Y-72955534D01*
X151661309Y-72799775D01*
X151661310Y-72799773D01*
X151793773Y-72667310D01*
X151949533Y-72563235D01*
X151949534Y-72563234D01*
X152122605Y-72491546D01*
X152306333Y-72455000D01*
X152493667Y-72455000D01*
X152677395Y-72491546D01*
X152677395Y-72491546D01*
G37*
G36*
X150811000Y-74357000D02*
G01*
X148909000Y-74357000D01*
X148909000Y-72455000D01*
X150811000Y-72455000D01*
X150811000Y-74357000D01*
X150811000Y-74357000D01*
G37*
G36*
X140651000Y-74357000D02*
G01*
X138749000Y-74357000D01*
X138749000Y-72455000D01*
X140651000Y-72455000D01*
X140651000Y-74357000D01*
X140651000Y-74357000D01*
G37*
G36*
X142517395Y-72491546D02*
G01*
X142690466Y-72563234D01*
X142690467Y-72563235D01*
X142846227Y-72667310D01*
X142978690Y-72799773D01*
X142978691Y-72799775D01*
X143082766Y-72955534D01*
X143154454Y-73128605D01*
X143191000Y-73312333D01*
X143191000Y-73499667D01*
X143154454Y-73683395D01*
X143082766Y-73856466D01*
X143031081Y-73933818D01*
X142978690Y-74012227D01*
X142846227Y-74144690D01*
X142801493Y-74174580D01*
X142690466Y-74248766D01*
X142517395Y-74320454D01*
X142333667Y-74357000D01*
X142146333Y-74357000D01*
X141962605Y-74320454D01*
X141789534Y-74248766D01*
X141678507Y-74174580D01*
X141633773Y-74144690D01*
X141501310Y-74012227D01*
X141448919Y-73933818D01*
X141397234Y-73856466D01*
X141325546Y-73683395D01*
X141289000Y-73499667D01*
X141289000Y-73312333D01*
X141325546Y-73128605D01*
X141397234Y-72955534D01*
X141501309Y-72799775D01*
X141501310Y-72799773D01*
X141633773Y-72667310D01*
X141789533Y-72563235D01*
X141789534Y-72563234D01*
X141962605Y-72491546D01*
X142146333Y-72455000D01*
X142333667Y-72455000D01*
X142517395Y-72491546D01*
X142517395Y-72491546D01*
G37*
G36*
X177628855Y-72885140D02*
G01*
X177692618Y-72891420D01*
X177783404Y-72918960D01*
X177815336Y-72928646D01*
X177928425Y-72989094D01*
X178027554Y-73070446D01*
X178108906Y-73169575D01*
X178169354Y-73282664D01*
X178169355Y-73282668D01*
X178206580Y-73405382D01*
X178219149Y-73533000D01*
X178206580Y-73660618D01*
X178199670Y-73683396D01*
X178169354Y-73783336D01*
X178108906Y-73896425D01*
X178027554Y-73995554D01*
X177928425Y-74076906D01*
X177815336Y-74137354D01*
X177791152Y-74144690D01*
X177692618Y-74174580D01*
X177628855Y-74180860D01*
X177596974Y-74184000D01*
X176733026Y-74184000D01*
X176701145Y-74180860D01*
X176637382Y-74174580D01*
X176538848Y-74144690D01*
X176514664Y-74137354D01*
X176401575Y-74076906D01*
X176302446Y-73995554D01*
X176221094Y-73896425D01*
X176160646Y-73783336D01*
X176130330Y-73683396D01*
X176123420Y-73660618D01*
X176110851Y-73533000D01*
X176123420Y-73405382D01*
X176160645Y-73282668D01*
X176160646Y-73282664D01*
X176221094Y-73169575D01*
X176302446Y-73070446D01*
X176401575Y-72989094D01*
X176514664Y-72928646D01*
X176546596Y-72918960D01*
X176637382Y-72891420D01*
X176701145Y-72885140D01*
X176733026Y-72882000D01*
X177596974Y-72882000D01*
X177628855Y-72885140D01*
X177628855Y-72885140D01*
G37*
G36*
X182708855Y-72885140D02*
G01*
X182772618Y-72891420D01*
X182863404Y-72918960D01*
X182895336Y-72928646D01*
X183008425Y-72989094D01*
X183107554Y-73070446D01*
X183188906Y-73169575D01*
X183249354Y-73282664D01*
X183249355Y-73282668D01*
X183286580Y-73405382D01*
X183299149Y-73533000D01*
X183286580Y-73660618D01*
X183279670Y-73683396D01*
X183249354Y-73783336D01*
X183188906Y-73896425D01*
X183107554Y-73995554D01*
X183008425Y-74076906D01*
X182895336Y-74137354D01*
X182871152Y-74144690D01*
X182772618Y-74174580D01*
X182708855Y-74180860D01*
X182676974Y-74184000D01*
X181813026Y-74184000D01*
X181781145Y-74180860D01*
X181717382Y-74174580D01*
X181618848Y-74144690D01*
X181594664Y-74137354D01*
X181481575Y-74076906D01*
X181382446Y-73995554D01*
X181301094Y-73896425D01*
X181240646Y-73783336D01*
X181210330Y-73683396D01*
X181203420Y-73660618D01*
X181190851Y-73533000D01*
X181203420Y-73405382D01*
X181240645Y-73282668D01*
X181240646Y-73282664D01*
X181301094Y-73169575D01*
X181382446Y-73070446D01*
X181481575Y-72989094D01*
X181594664Y-72928646D01*
X181626596Y-72918960D01*
X181717382Y-72891420D01*
X181781145Y-72885140D01*
X181813026Y-72882000D01*
X182676974Y-72882000D01*
X182708855Y-72885140D01*
X182708855Y-72885140D01*
G37*
G36*
X177628855Y-70345140D02*
G01*
X177692618Y-70351420D01*
X177783404Y-70378960D01*
X177815336Y-70388646D01*
X177928425Y-70449094D01*
X178027554Y-70530446D01*
X178108906Y-70629575D01*
X178169354Y-70742664D01*
X178169355Y-70742668D01*
X178206580Y-70865382D01*
X178219149Y-70993000D01*
X178206580Y-71120618D01*
X178199046Y-71145453D01*
X178169354Y-71243336D01*
X178108906Y-71356425D01*
X178027554Y-71455554D01*
X177928425Y-71536906D01*
X177815336Y-71597354D01*
X177783404Y-71607040D01*
X177692618Y-71634580D01*
X177628855Y-71640860D01*
X177596974Y-71644000D01*
X176733026Y-71644000D01*
X176701145Y-71640860D01*
X176637382Y-71634580D01*
X176546596Y-71607040D01*
X176514664Y-71597354D01*
X176401575Y-71536906D01*
X176302446Y-71455554D01*
X176221094Y-71356425D01*
X176160646Y-71243336D01*
X176130954Y-71145453D01*
X176123420Y-71120618D01*
X176110851Y-70993000D01*
X176123420Y-70865382D01*
X176160645Y-70742668D01*
X176160646Y-70742664D01*
X176221094Y-70629575D01*
X176302446Y-70530446D01*
X176401575Y-70449094D01*
X176514664Y-70388646D01*
X176546596Y-70378960D01*
X176637382Y-70351420D01*
X176701145Y-70345140D01*
X176733026Y-70342000D01*
X177596974Y-70342000D01*
X177628855Y-70345140D01*
X177628855Y-70345140D01*
G37*
G36*
X182708855Y-70345140D02*
G01*
X182772618Y-70351420D01*
X182863404Y-70378960D01*
X182895336Y-70388646D01*
X183008425Y-70449094D01*
X183107554Y-70530446D01*
X183188906Y-70629575D01*
X183249354Y-70742664D01*
X183249355Y-70742668D01*
X183286580Y-70865382D01*
X183299149Y-70993000D01*
X183286580Y-71120618D01*
X183279046Y-71145453D01*
X183249354Y-71243336D01*
X183188906Y-71356425D01*
X183107554Y-71455554D01*
X183008425Y-71536906D01*
X182895336Y-71597354D01*
X182863404Y-71607040D01*
X182772618Y-71634580D01*
X182708855Y-71640860D01*
X182676974Y-71644000D01*
X181813026Y-71644000D01*
X181781145Y-71640860D01*
X181717382Y-71634580D01*
X181626596Y-71607040D01*
X181594664Y-71597354D01*
X181481575Y-71536906D01*
X181382446Y-71455554D01*
X181301094Y-71356425D01*
X181240646Y-71243336D01*
X181210954Y-71145453D01*
X181203420Y-71120618D01*
X181190851Y-70993000D01*
X181203420Y-70865382D01*
X181240645Y-70742668D01*
X181240646Y-70742664D01*
X181301094Y-70629575D01*
X181382446Y-70530446D01*
X181481575Y-70449094D01*
X181594664Y-70388646D01*
X181626596Y-70378960D01*
X181717382Y-70351420D01*
X181781145Y-70345140D01*
X181813026Y-70342000D01*
X182676974Y-70342000D01*
X182708855Y-70345140D01*
X182708855Y-70345140D01*
G37*
G36*
X152677395Y-69316546D02*
G01*
X152850466Y-69388234D01*
X152850467Y-69388235D01*
X153006227Y-69492310D01*
X153138690Y-69624773D01*
X153138691Y-69624775D01*
X153242766Y-69780534D01*
X153314454Y-69953605D01*
X153351000Y-70137333D01*
X153351000Y-70324667D01*
X153314454Y-70508395D01*
X153242766Y-70681466D01*
X153242765Y-70681467D01*
X153138690Y-70837227D01*
X153006227Y-70969690D01*
X152971341Y-70993000D01*
X152850466Y-71073766D01*
X152677395Y-71145454D01*
X152493667Y-71182000D01*
X152306333Y-71182000D01*
X152122605Y-71145454D01*
X151949534Y-71073766D01*
X151828659Y-70993000D01*
X151793773Y-70969690D01*
X151661310Y-70837227D01*
X151557235Y-70681467D01*
X151557234Y-70681466D01*
X151485546Y-70508395D01*
X151449000Y-70324667D01*
X151449000Y-70137333D01*
X151485546Y-69953605D01*
X151557234Y-69780534D01*
X151661309Y-69624775D01*
X151661310Y-69624773D01*
X151793773Y-69492310D01*
X151949533Y-69388235D01*
X151949534Y-69388234D01*
X152122605Y-69316546D01*
X152306333Y-69280000D01*
X152493667Y-69280000D01*
X152677395Y-69316546D01*
X152677395Y-69316546D01*
G37*
G36*
X150811000Y-71182000D02*
G01*
X148909000Y-71182000D01*
X148909000Y-69280000D01*
X150811000Y-69280000D01*
X150811000Y-71182000D01*
X150811000Y-71182000D01*
G37*
G36*
X140651000Y-71182000D02*
G01*
X138749000Y-71182000D01*
X138749000Y-69280000D01*
X140651000Y-69280000D01*
X140651000Y-71182000D01*
X140651000Y-71182000D01*
G37*
G36*
X142517395Y-69316546D02*
G01*
X142690466Y-69388234D01*
X142690467Y-69388235D01*
X142846227Y-69492310D01*
X142978690Y-69624773D01*
X142978691Y-69624775D01*
X143082766Y-69780534D01*
X143154454Y-69953605D01*
X143191000Y-70137333D01*
X143191000Y-70324667D01*
X143154454Y-70508395D01*
X143082766Y-70681466D01*
X143082765Y-70681467D01*
X142978690Y-70837227D01*
X142846227Y-70969690D01*
X142811341Y-70993000D01*
X142690466Y-71073766D01*
X142517395Y-71145454D01*
X142333667Y-71182000D01*
X142146333Y-71182000D01*
X141962605Y-71145454D01*
X141789534Y-71073766D01*
X141668659Y-70993000D01*
X141633773Y-70969690D01*
X141501310Y-70837227D01*
X141397235Y-70681467D01*
X141397234Y-70681466D01*
X141325546Y-70508395D01*
X141289000Y-70324667D01*
X141289000Y-70137333D01*
X141325546Y-69953605D01*
X141397234Y-69780534D01*
X141501309Y-69624775D01*
X141501310Y-69624773D01*
X141633773Y-69492310D01*
X141789533Y-69388235D01*
X141789534Y-69388234D01*
X141962605Y-69316546D01*
X142146333Y-69280000D01*
X142333667Y-69280000D01*
X142517395Y-69316546D01*
X142517395Y-69316546D01*
G37*
G36*
X177628855Y-67805140D02*
G01*
X177692618Y-67811420D01*
X177783404Y-67838960D01*
X177815336Y-67848646D01*
X177928425Y-67909094D01*
X178027554Y-67990446D01*
X178108906Y-68089575D01*
X178169354Y-68202664D01*
X178169355Y-68202668D01*
X178206580Y-68325382D01*
X178219149Y-68453000D01*
X178206580Y-68580618D01*
X178179040Y-68671404D01*
X178169354Y-68703336D01*
X178108906Y-68816425D01*
X178027554Y-68915554D01*
X177928425Y-68996906D01*
X177815336Y-69057354D01*
X177783404Y-69067040D01*
X177692618Y-69094580D01*
X177628855Y-69100860D01*
X177596974Y-69104000D01*
X176733026Y-69104000D01*
X176701145Y-69100860D01*
X176637382Y-69094580D01*
X176546596Y-69067040D01*
X176514664Y-69057354D01*
X176401575Y-68996906D01*
X176302446Y-68915554D01*
X176221094Y-68816425D01*
X176160646Y-68703336D01*
X176150960Y-68671404D01*
X176123420Y-68580618D01*
X176110851Y-68453000D01*
X176123420Y-68325382D01*
X176160645Y-68202668D01*
X176160646Y-68202664D01*
X176221094Y-68089575D01*
X176302446Y-67990446D01*
X176401575Y-67909094D01*
X176514664Y-67848646D01*
X176546596Y-67838960D01*
X176637382Y-67811420D01*
X176701145Y-67805140D01*
X176733026Y-67802000D01*
X177596974Y-67802000D01*
X177628855Y-67805140D01*
X177628855Y-67805140D01*
G37*
G36*
X182708855Y-67805140D02*
G01*
X182772618Y-67811420D01*
X182863404Y-67838960D01*
X182895336Y-67848646D01*
X183008425Y-67909094D01*
X183107554Y-67990446D01*
X183188906Y-68089575D01*
X183249354Y-68202664D01*
X183249355Y-68202668D01*
X183286580Y-68325382D01*
X183299149Y-68453000D01*
X183286580Y-68580618D01*
X183259040Y-68671404D01*
X183249354Y-68703336D01*
X183188906Y-68816425D01*
X183107554Y-68915554D01*
X183008425Y-68996906D01*
X182895336Y-69057354D01*
X182863404Y-69067040D01*
X182772618Y-69094580D01*
X182708855Y-69100860D01*
X182676974Y-69104000D01*
X181813026Y-69104000D01*
X181781145Y-69100860D01*
X181717382Y-69094580D01*
X181626596Y-69067040D01*
X181594664Y-69057354D01*
X181481575Y-68996906D01*
X181382446Y-68915554D01*
X181301094Y-68816425D01*
X181240646Y-68703336D01*
X181230960Y-68671404D01*
X181203420Y-68580618D01*
X181190851Y-68453000D01*
X181203420Y-68325382D01*
X181240645Y-68202668D01*
X181240646Y-68202664D01*
X181301094Y-68089575D01*
X181382446Y-67990446D01*
X181481575Y-67909094D01*
X181594664Y-67848646D01*
X181626596Y-67838960D01*
X181717382Y-67811420D01*
X181781145Y-67805140D01*
X181813026Y-67802000D01*
X182676974Y-67802000D01*
X182708855Y-67805140D01*
X182708855Y-67805140D01*
G37*
G36*
X150811000Y-68007000D02*
G01*
X148909000Y-68007000D01*
X148909000Y-66105000D01*
X150811000Y-66105000D01*
X150811000Y-68007000D01*
X150811000Y-68007000D01*
G37*
G36*
X140651000Y-68007000D02*
G01*
X138749000Y-68007000D01*
X138749000Y-66105000D01*
X140651000Y-66105000D01*
X140651000Y-68007000D01*
X140651000Y-68007000D01*
G37*
G36*
X142517395Y-66141546D02*
G01*
X142690466Y-66213234D01*
X142690467Y-66213235D01*
X142846227Y-66317310D01*
X142978690Y-66449773D01*
X142978691Y-66449775D01*
X143082766Y-66605534D01*
X143154454Y-66778605D01*
X143191000Y-66962333D01*
X143191000Y-67149667D01*
X143154454Y-67333395D01*
X143082766Y-67506466D01*
X143082765Y-67506467D01*
X142978690Y-67662227D01*
X142846227Y-67794690D01*
X142767818Y-67847081D01*
X142690466Y-67898766D01*
X142517395Y-67970454D01*
X142333667Y-68007000D01*
X142146333Y-68007000D01*
X141962605Y-67970454D01*
X141789534Y-67898766D01*
X141712182Y-67847081D01*
X141633773Y-67794690D01*
X141501310Y-67662227D01*
X141397235Y-67506467D01*
X141397234Y-67506466D01*
X141325546Y-67333395D01*
X141289000Y-67149667D01*
X141289000Y-66962333D01*
X141325546Y-66778605D01*
X141397234Y-66605534D01*
X141501309Y-66449775D01*
X141501310Y-66449773D01*
X141633773Y-66317310D01*
X141789533Y-66213235D01*
X141789534Y-66213234D01*
X141962605Y-66141546D01*
X142146333Y-66105000D01*
X142333667Y-66105000D01*
X142517395Y-66141546D01*
X142517395Y-66141546D01*
G37*
G36*
X152677395Y-66141546D02*
G01*
X152850466Y-66213234D01*
X152850467Y-66213235D01*
X153006227Y-66317310D01*
X153138690Y-66449773D01*
X153138691Y-66449775D01*
X153242766Y-66605534D01*
X153314454Y-66778605D01*
X153351000Y-66962333D01*
X153351000Y-67149667D01*
X153314454Y-67333395D01*
X153242766Y-67506466D01*
X153242765Y-67506467D01*
X153138690Y-67662227D01*
X153006227Y-67794690D01*
X152927818Y-67847081D01*
X152850466Y-67898766D01*
X152677395Y-67970454D01*
X152493667Y-68007000D01*
X152306333Y-68007000D01*
X152122605Y-67970454D01*
X151949534Y-67898766D01*
X151872182Y-67847081D01*
X151793773Y-67794690D01*
X151661310Y-67662227D01*
X151557235Y-67506467D01*
X151557234Y-67506466D01*
X151485546Y-67333395D01*
X151449000Y-67149667D01*
X151449000Y-66962333D01*
X151485546Y-66778605D01*
X151557234Y-66605534D01*
X151661309Y-66449775D01*
X151661310Y-66449773D01*
X151793773Y-66317310D01*
X151949533Y-66213235D01*
X151949534Y-66213234D01*
X152122605Y-66141546D01*
X152306333Y-66105000D01*
X152493667Y-66105000D01*
X152677395Y-66141546D01*
X152677395Y-66141546D01*
G37*
G36*
X182708855Y-65265140D02*
G01*
X182772618Y-65271420D01*
X182863404Y-65298960D01*
X182895336Y-65308646D01*
X183008425Y-65369094D01*
X183107554Y-65450446D01*
X183188906Y-65549575D01*
X183249354Y-65662664D01*
X183249355Y-65662668D01*
X183286580Y-65785382D01*
X183299149Y-65913000D01*
X183286580Y-66040618D01*
X183267050Y-66105000D01*
X183249354Y-66163336D01*
X183188906Y-66276425D01*
X183107554Y-66375554D01*
X183008425Y-66456906D01*
X182895336Y-66517354D01*
X182863404Y-66527040D01*
X182772618Y-66554580D01*
X182708855Y-66560860D01*
X182676974Y-66564000D01*
X181813026Y-66564000D01*
X181781145Y-66560860D01*
X181717382Y-66554580D01*
X181626596Y-66527040D01*
X181594664Y-66517354D01*
X181481575Y-66456906D01*
X181382446Y-66375554D01*
X181301094Y-66276425D01*
X181240646Y-66163336D01*
X181222950Y-66105000D01*
X181203420Y-66040618D01*
X181190851Y-65913000D01*
X181203420Y-65785382D01*
X181240645Y-65662668D01*
X181240646Y-65662664D01*
X181301094Y-65549575D01*
X181382446Y-65450446D01*
X181481575Y-65369094D01*
X181594664Y-65308646D01*
X181626596Y-65298960D01*
X181717382Y-65271420D01*
X181781145Y-65265140D01*
X181813026Y-65262000D01*
X182676974Y-65262000D01*
X182708855Y-65265140D01*
X182708855Y-65265140D01*
G37*
G36*
X177628855Y-65265140D02*
G01*
X177692618Y-65271420D01*
X177783404Y-65298960D01*
X177815336Y-65308646D01*
X177928425Y-65369094D01*
X178027554Y-65450446D01*
X178108906Y-65549575D01*
X178169354Y-65662664D01*
X178169355Y-65662668D01*
X178206580Y-65785382D01*
X178219149Y-65913000D01*
X178206580Y-66040618D01*
X178187050Y-66105000D01*
X178169354Y-66163336D01*
X178108906Y-66276425D01*
X178027554Y-66375554D01*
X177928425Y-66456906D01*
X177815336Y-66517354D01*
X177783404Y-66527040D01*
X177692618Y-66554580D01*
X177628855Y-66560860D01*
X177596974Y-66564000D01*
X176733026Y-66564000D01*
X176701145Y-66560860D01*
X176637382Y-66554580D01*
X176546596Y-66527040D01*
X176514664Y-66517354D01*
X176401575Y-66456906D01*
X176302446Y-66375554D01*
X176221094Y-66276425D01*
X176160646Y-66163336D01*
X176142950Y-66105000D01*
X176123420Y-66040618D01*
X176110851Y-65913000D01*
X176123420Y-65785382D01*
X176160645Y-65662668D01*
X176160646Y-65662664D01*
X176221094Y-65549575D01*
X176302446Y-65450446D01*
X176401575Y-65369094D01*
X176514664Y-65308646D01*
X176546596Y-65298960D01*
X176637382Y-65271420D01*
X176701145Y-65265140D01*
X176733026Y-65262000D01*
X177596974Y-65262000D01*
X177628855Y-65265140D01*
X177628855Y-65265140D01*
G37*
G36*
X140651000Y-64832000D02*
G01*
X138749000Y-64832000D01*
X138749000Y-62930000D01*
X140651000Y-62930000D01*
X140651000Y-64832000D01*
X140651000Y-64832000D01*
G37*
G36*
X152677395Y-62966546D02*
G01*
X152850466Y-63038234D01*
X152850467Y-63038235D01*
X153006227Y-63142310D01*
X153138690Y-63274773D01*
X153138691Y-63274775D01*
X153242766Y-63430534D01*
X153314454Y-63603605D01*
X153351000Y-63787333D01*
X153351000Y-63974667D01*
X153314454Y-64158395D01*
X153242766Y-64331466D01*
X153242765Y-64331467D01*
X153138690Y-64487227D01*
X153006227Y-64619690D01*
X152927818Y-64672081D01*
X152850466Y-64723766D01*
X152677395Y-64795454D01*
X152493667Y-64832000D01*
X152306333Y-64832000D01*
X152122605Y-64795454D01*
X151949534Y-64723766D01*
X151872182Y-64672081D01*
X151793773Y-64619690D01*
X151661310Y-64487227D01*
X151557235Y-64331467D01*
X151557234Y-64331466D01*
X151485546Y-64158395D01*
X151449000Y-63974667D01*
X151449000Y-63787333D01*
X151485546Y-63603605D01*
X151557234Y-63430534D01*
X151661309Y-63274775D01*
X151661310Y-63274773D01*
X151793773Y-63142310D01*
X151949533Y-63038235D01*
X151949534Y-63038234D01*
X152122605Y-62966546D01*
X152306333Y-62930000D01*
X152493667Y-62930000D01*
X152677395Y-62966546D01*
X152677395Y-62966546D01*
G37*
G36*
X150811000Y-64832000D02*
G01*
X148909000Y-64832000D01*
X148909000Y-62930000D01*
X150811000Y-62930000D01*
X150811000Y-64832000D01*
X150811000Y-64832000D01*
G37*
G36*
X142517395Y-62966546D02*
G01*
X142690466Y-63038234D01*
X142690467Y-63038235D01*
X142846227Y-63142310D01*
X142978690Y-63274773D01*
X142978691Y-63274775D01*
X143082766Y-63430534D01*
X143154454Y-63603605D01*
X143191000Y-63787333D01*
X143191000Y-63974667D01*
X143154454Y-64158395D01*
X143082766Y-64331466D01*
X143082765Y-64331467D01*
X142978690Y-64487227D01*
X142846227Y-64619690D01*
X142767818Y-64672081D01*
X142690466Y-64723766D01*
X142517395Y-64795454D01*
X142333667Y-64832000D01*
X142146333Y-64832000D01*
X141962605Y-64795454D01*
X141789534Y-64723766D01*
X141712182Y-64672081D01*
X141633773Y-64619690D01*
X141501310Y-64487227D01*
X141397235Y-64331467D01*
X141397234Y-64331466D01*
X141325546Y-64158395D01*
X141289000Y-63974667D01*
X141289000Y-63787333D01*
X141325546Y-63603605D01*
X141397234Y-63430534D01*
X141501309Y-63274775D01*
X141501310Y-63274773D01*
X141633773Y-63142310D01*
X141789533Y-63038235D01*
X141789534Y-63038234D01*
X141962605Y-62966546D01*
X142146333Y-62930000D01*
X142333667Y-62930000D01*
X142517395Y-62966546D01*
X142517395Y-62966546D01*
G37*
G36*
X177628855Y-62725140D02*
G01*
X177692618Y-62731420D01*
X177783404Y-62758960D01*
X177815336Y-62768646D01*
X177928425Y-62829094D01*
X178027554Y-62910446D01*
X178108906Y-63009575D01*
X178169354Y-63122664D01*
X178169355Y-63122668D01*
X178206580Y-63245382D01*
X178219149Y-63373000D01*
X178206580Y-63500618D01*
X178179040Y-63591404D01*
X178169354Y-63623336D01*
X178108906Y-63736425D01*
X178027554Y-63835554D01*
X177928425Y-63916906D01*
X177815336Y-63977354D01*
X177783404Y-63987040D01*
X177692618Y-64014580D01*
X177628855Y-64020860D01*
X177596974Y-64024000D01*
X176733026Y-64024000D01*
X176701145Y-64020860D01*
X176637382Y-64014580D01*
X176546596Y-63987040D01*
X176514664Y-63977354D01*
X176401575Y-63916906D01*
X176302446Y-63835554D01*
X176221094Y-63736425D01*
X176160646Y-63623336D01*
X176150960Y-63591404D01*
X176123420Y-63500618D01*
X176110851Y-63373000D01*
X176123420Y-63245382D01*
X176160645Y-63122668D01*
X176160646Y-63122664D01*
X176221094Y-63009575D01*
X176302446Y-62910446D01*
X176401575Y-62829094D01*
X176514664Y-62768646D01*
X176546596Y-62758960D01*
X176637382Y-62731420D01*
X176701145Y-62725140D01*
X176733026Y-62722000D01*
X177596974Y-62722000D01*
X177628855Y-62725140D01*
X177628855Y-62725140D01*
G37*
G36*
X182708855Y-62725140D02*
G01*
X182772618Y-62731420D01*
X182863404Y-62758960D01*
X182895336Y-62768646D01*
X183008425Y-62829094D01*
X183107554Y-62910446D01*
X183188906Y-63009575D01*
X183249354Y-63122664D01*
X183249355Y-63122668D01*
X183286580Y-63245382D01*
X183299149Y-63373000D01*
X183286580Y-63500618D01*
X183259040Y-63591404D01*
X183249354Y-63623336D01*
X183188906Y-63736425D01*
X183107554Y-63835554D01*
X183008425Y-63916906D01*
X182895336Y-63977354D01*
X182863404Y-63987040D01*
X182772618Y-64014580D01*
X182708855Y-64020860D01*
X182676974Y-64024000D01*
X181813026Y-64024000D01*
X181781145Y-64020860D01*
X181717382Y-64014580D01*
X181626596Y-63987040D01*
X181594664Y-63977354D01*
X181481575Y-63916906D01*
X181382446Y-63835554D01*
X181301094Y-63736425D01*
X181240646Y-63623336D01*
X181230960Y-63591404D01*
X181203420Y-63500618D01*
X181190851Y-63373000D01*
X181203420Y-63245382D01*
X181240645Y-63122668D01*
X181240646Y-63122664D01*
X181301094Y-63009575D01*
X181382446Y-62910446D01*
X181481575Y-62829094D01*
X181594664Y-62768646D01*
X181626596Y-62758960D01*
X181717382Y-62731420D01*
X181781145Y-62725140D01*
X181813026Y-62722000D01*
X182676974Y-62722000D01*
X182708855Y-62725140D01*
X182708855Y-62725140D01*
G37*
G36*
X142517395Y-59791546D02*
G01*
X142690466Y-59863234D01*
X142690467Y-59863235D01*
X142846227Y-59967310D01*
X142978690Y-60099773D01*
X142978691Y-60099775D01*
X143082766Y-60255534D01*
X143154454Y-60428605D01*
X143191000Y-60612333D01*
X143191000Y-60799667D01*
X143154454Y-60983395D01*
X143082766Y-61156466D01*
X143031081Y-61233818D01*
X142978690Y-61312227D01*
X142846227Y-61444690D01*
X142801493Y-61474580D01*
X142690466Y-61548766D01*
X142517395Y-61620454D01*
X142333667Y-61657000D01*
X142146333Y-61657000D01*
X141962605Y-61620454D01*
X141789534Y-61548766D01*
X141678507Y-61474580D01*
X141633773Y-61444690D01*
X141501310Y-61312227D01*
X141448919Y-61233818D01*
X141397234Y-61156466D01*
X141325546Y-60983395D01*
X141289000Y-60799667D01*
X141289000Y-60612333D01*
X141325546Y-60428605D01*
X141397234Y-60255534D01*
X141501309Y-60099775D01*
X141501310Y-60099773D01*
X141633773Y-59967310D01*
X141789533Y-59863235D01*
X141789534Y-59863234D01*
X141962605Y-59791546D01*
X142146333Y-59755000D01*
X142333667Y-59755000D01*
X142517395Y-59791546D01*
X142517395Y-59791546D01*
G37*
G36*
X152677395Y-59791546D02*
G01*
X152850466Y-59863234D01*
X152850467Y-59863235D01*
X153006227Y-59967310D01*
X153138690Y-60099773D01*
X153138691Y-60099775D01*
X153242766Y-60255534D01*
X153314454Y-60428605D01*
X153351000Y-60612333D01*
X153351000Y-60799667D01*
X153314454Y-60983395D01*
X153242766Y-61156466D01*
X153191081Y-61233818D01*
X153138690Y-61312227D01*
X153006227Y-61444690D01*
X152961493Y-61474580D01*
X152850466Y-61548766D01*
X152677395Y-61620454D01*
X152493667Y-61657000D01*
X152306333Y-61657000D01*
X152122605Y-61620454D01*
X151949534Y-61548766D01*
X151838507Y-61474580D01*
X151793773Y-61444690D01*
X151661310Y-61312227D01*
X151608919Y-61233818D01*
X151557234Y-61156466D01*
X151485546Y-60983395D01*
X151449000Y-60799667D01*
X151449000Y-60612333D01*
X151485546Y-60428605D01*
X151557234Y-60255534D01*
X151661309Y-60099775D01*
X151661310Y-60099773D01*
X151793773Y-59967310D01*
X151949533Y-59863235D01*
X151949534Y-59863234D01*
X152122605Y-59791546D01*
X152306333Y-59755000D01*
X152493667Y-59755000D01*
X152677395Y-59791546D01*
X152677395Y-59791546D01*
G37*
G36*
X150811000Y-61657000D02*
G01*
X148909000Y-61657000D01*
X148909000Y-59755000D01*
X150811000Y-59755000D01*
X150811000Y-61657000D01*
X150811000Y-61657000D01*
G37*
G36*
X140651000Y-61657000D02*
G01*
X138749000Y-61657000D01*
X138749000Y-59755000D01*
X140651000Y-59755000D01*
X140651000Y-61657000D01*
X140651000Y-61657000D01*
G37*
G36*
X182708855Y-60185140D02*
G01*
X182772618Y-60191420D01*
X182863404Y-60218960D01*
X182895336Y-60228646D01*
X183008425Y-60289094D01*
X183107554Y-60370446D01*
X183188906Y-60469575D01*
X183249354Y-60582664D01*
X183249355Y-60582668D01*
X183286580Y-60705382D01*
X183299149Y-60833000D01*
X183286580Y-60960618D01*
X183279670Y-60983396D01*
X183249354Y-61083336D01*
X183188906Y-61196425D01*
X183107554Y-61295554D01*
X183008425Y-61376906D01*
X182895336Y-61437354D01*
X182871152Y-61444690D01*
X182772618Y-61474580D01*
X182708855Y-61480860D01*
X182676974Y-61484000D01*
X181813026Y-61484000D01*
X181781145Y-61480860D01*
X181717382Y-61474580D01*
X181618848Y-61444690D01*
X181594664Y-61437354D01*
X181481575Y-61376906D01*
X181382446Y-61295554D01*
X181301094Y-61196425D01*
X181240646Y-61083336D01*
X181210330Y-60983396D01*
X181203420Y-60960618D01*
X181190851Y-60833000D01*
X181203420Y-60705382D01*
X181240645Y-60582668D01*
X181240646Y-60582664D01*
X181301094Y-60469575D01*
X181382446Y-60370446D01*
X181481575Y-60289094D01*
X181594664Y-60228646D01*
X181626596Y-60218960D01*
X181717382Y-60191420D01*
X181781145Y-60185140D01*
X181813026Y-60182000D01*
X182676974Y-60182000D01*
X182708855Y-60185140D01*
X182708855Y-60185140D01*
G37*
G36*
X177628855Y-60185140D02*
G01*
X177692618Y-60191420D01*
X177783404Y-60218960D01*
X177815336Y-60228646D01*
X177928425Y-60289094D01*
X178027554Y-60370446D01*
X178108906Y-60469575D01*
X178169354Y-60582664D01*
X178169355Y-60582668D01*
X178206580Y-60705382D01*
X178219149Y-60833000D01*
X178206580Y-60960618D01*
X178199670Y-60983396D01*
X178169354Y-61083336D01*
X178108906Y-61196425D01*
X178027554Y-61295554D01*
X177928425Y-61376906D01*
X177815336Y-61437354D01*
X177791152Y-61444690D01*
X177692618Y-61474580D01*
X177628855Y-61480860D01*
X177596974Y-61484000D01*
X176733026Y-61484000D01*
X176701145Y-61480860D01*
X176637382Y-61474580D01*
X176538848Y-61444690D01*
X176514664Y-61437354D01*
X176401575Y-61376906D01*
X176302446Y-61295554D01*
X176221094Y-61196425D01*
X176160646Y-61083336D01*
X176130330Y-60983396D01*
X176123420Y-60960618D01*
X176110851Y-60833000D01*
X176123420Y-60705382D01*
X176160645Y-60582668D01*
X176160646Y-60582664D01*
X176221094Y-60469575D01*
X176302446Y-60370446D01*
X176401575Y-60289094D01*
X176514664Y-60228646D01*
X176546596Y-60218960D01*
X176637382Y-60191420D01*
X176701145Y-60185140D01*
X176733026Y-60182000D01*
X177596974Y-60182000D01*
X177628855Y-60185140D01*
X177628855Y-60185140D01*
G37*
G36*
X177628855Y-57645140D02*
G01*
X177692618Y-57651420D01*
X177783404Y-57678960D01*
X177815336Y-57688646D01*
X177928425Y-57749094D01*
X178027554Y-57830446D01*
X178108906Y-57929575D01*
X178169354Y-58042664D01*
X178169355Y-58042668D01*
X178206580Y-58165382D01*
X178219149Y-58293000D01*
X178206580Y-58420618D01*
X178199046Y-58445453D01*
X178169354Y-58543336D01*
X178108906Y-58656425D01*
X178027554Y-58755554D01*
X177928425Y-58836906D01*
X177815336Y-58897354D01*
X177783404Y-58907040D01*
X177692618Y-58934580D01*
X177628855Y-58940860D01*
X177596974Y-58944000D01*
X176733026Y-58944000D01*
X176701145Y-58940860D01*
X176637382Y-58934580D01*
X176546596Y-58907040D01*
X176514664Y-58897354D01*
X176401575Y-58836906D01*
X176302446Y-58755554D01*
X176221094Y-58656425D01*
X176160646Y-58543336D01*
X176130954Y-58445453D01*
X176123420Y-58420618D01*
X176110851Y-58293000D01*
X176123420Y-58165382D01*
X176160645Y-58042668D01*
X176160646Y-58042664D01*
X176221094Y-57929575D01*
X176302446Y-57830446D01*
X176401575Y-57749094D01*
X176514664Y-57688646D01*
X176546596Y-57678960D01*
X176637382Y-57651420D01*
X176701145Y-57645140D01*
X176733026Y-57642000D01*
X177596974Y-57642000D01*
X177628855Y-57645140D01*
X177628855Y-57645140D01*
G37*
G36*
X182708855Y-57645140D02*
G01*
X182772618Y-57651420D01*
X182863404Y-57678960D01*
X182895336Y-57688646D01*
X183008425Y-57749094D01*
X183107554Y-57830446D01*
X183188906Y-57929575D01*
X183249354Y-58042664D01*
X183249355Y-58042668D01*
X183286580Y-58165382D01*
X183299149Y-58293000D01*
X183286580Y-58420618D01*
X183279046Y-58445453D01*
X183249354Y-58543336D01*
X183188906Y-58656425D01*
X183107554Y-58755554D01*
X183008425Y-58836906D01*
X182895336Y-58897354D01*
X182863404Y-58907040D01*
X182772618Y-58934580D01*
X182708855Y-58940860D01*
X182676974Y-58944000D01*
X181813026Y-58944000D01*
X181781145Y-58940860D01*
X181717382Y-58934580D01*
X181626596Y-58907040D01*
X181594664Y-58897354D01*
X181481575Y-58836906D01*
X181382446Y-58755554D01*
X181301094Y-58656425D01*
X181240646Y-58543336D01*
X181210954Y-58445453D01*
X181203420Y-58420618D01*
X181190851Y-58293000D01*
X181203420Y-58165382D01*
X181240645Y-58042668D01*
X181240646Y-58042664D01*
X181301094Y-57929575D01*
X181382446Y-57830446D01*
X181481575Y-57749094D01*
X181594664Y-57688646D01*
X181626596Y-57678960D01*
X181717382Y-57651420D01*
X181781145Y-57645140D01*
X181813026Y-57642000D01*
X182676974Y-57642000D01*
X182708855Y-57645140D01*
X182708855Y-57645140D01*
G37*
G36*
X152677395Y-56616546D02*
G01*
X152850466Y-56688234D01*
X152850467Y-56688235D01*
X153006227Y-56792310D01*
X153138690Y-56924773D01*
X153138691Y-56924775D01*
X153242766Y-57080534D01*
X153314454Y-57253605D01*
X153351000Y-57437333D01*
X153351000Y-57624667D01*
X153314454Y-57808395D01*
X153242766Y-57981466D01*
X153242765Y-57981467D01*
X153138690Y-58137227D01*
X153006227Y-58269690D01*
X152971341Y-58293000D01*
X152850466Y-58373766D01*
X152677395Y-58445454D01*
X152493667Y-58482000D01*
X152306333Y-58482000D01*
X152122605Y-58445454D01*
X151949534Y-58373766D01*
X151828659Y-58293000D01*
X151793773Y-58269690D01*
X151661310Y-58137227D01*
X151557235Y-57981467D01*
X151557234Y-57981466D01*
X151485546Y-57808395D01*
X151449000Y-57624667D01*
X151449000Y-57437333D01*
X151485546Y-57253605D01*
X151557234Y-57080534D01*
X151661309Y-56924775D01*
X151661310Y-56924773D01*
X151793773Y-56792310D01*
X151949533Y-56688235D01*
X151949534Y-56688234D01*
X152122605Y-56616546D01*
X152306333Y-56580000D01*
X152493667Y-56580000D01*
X152677395Y-56616546D01*
X152677395Y-56616546D01*
G37*
G36*
X150811000Y-58482000D02*
G01*
X148909000Y-58482000D01*
X148909000Y-56580000D01*
X150811000Y-56580000D01*
X150811000Y-58482000D01*
X150811000Y-58482000D01*
G37*
G36*
X140651000Y-58482000D02*
G01*
X138749000Y-58482000D01*
X138749000Y-56580000D01*
X140651000Y-56580000D01*
X140651000Y-58482000D01*
X140651000Y-58482000D01*
G37*
G36*
X142517395Y-56616546D02*
G01*
X142690466Y-56688234D01*
X142690467Y-56688235D01*
X142846227Y-56792310D01*
X142978690Y-56924773D01*
X142978691Y-56924775D01*
X143082766Y-57080534D01*
X143154454Y-57253605D01*
X143191000Y-57437333D01*
X143191000Y-57624667D01*
X143154454Y-57808395D01*
X143082766Y-57981466D01*
X143082765Y-57981467D01*
X142978690Y-58137227D01*
X142846227Y-58269690D01*
X142811341Y-58293000D01*
X142690466Y-58373766D01*
X142517395Y-58445454D01*
X142333667Y-58482000D01*
X142146333Y-58482000D01*
X141962605Y-58445454D01*
X141789534Y-58373766D01*
X141668659Y-58293000D01*
X141633773Y-58269690D01*
X141501310Y-58137227D01*
X141397235Y-57981467D01*
X141397234Y-57981466D01*
X141325546Y-57808395D01*
X141289000Y-57624667D01*
X141289000Y-57437333D01*
X141325546Y-57253605D01*
X141397234Y-57080534D01*
X141501309Y-56924775D01*
X141501310Y-56924773D01*
X141633773Y-56792310D01*
X141789533Y-56688235D01*
X141789534Y-56688234D01*
X141962605Y-56616546D01*
X142146333Y-56580000D01*
X142333667Y-56580000D01*
X142517395Y-56616546D01*
X142517395Y-56616546D01*
G37*
G36*
X177628855Y-55105140D02*
G01*
X177692618Y-55111420D01*
X177783404Y-55138960D01*
X177815336Y-55148646D01*
X177928425Y-55209094D01*
X178027554Y-55290446D01*
X178108906Y-55389575D01*
X178169354Y-55502664D01*
X178169355Y-55502668D01*
X178206580Y-55625382D01*
X178219149Y-55753000D01*
X178206580Y-55880618D01*
X178179040Y-55971404D01*
X178169354Y-56003336D01*
X178108906Y-56116425D01*
X178027554Y-56215554D01*
X177928425Y-56296906D01*
X177815336Y-56357354D01*
X177783404Y-56367040D01*
X177692618Y-56394580D01*
X177628855Y-56400860D01*
X177596974Y-56404000D01*
X176733026Y-56404000D01*
X176701145Y-56400860D01*
X176637382Y-56394580D01*
X176546596Y-56367040D01*
X176514664Y-56357354D01*
X176401575Y-56296906D01*
X176302446Y-56215554D01*
X176221094Y-56116425D01*
X176160646Y-56003336D01*
X176150960Y-55971404D01*
X176123420Y-55880618D01*
X176110851Y-55753000D01*
X176123420Y-55625382D01*
X176160645Y-55502668D01*
X176160646Y-55502664D01*
X176221094Y-55389575D01*
X176302446Y-55290446D01*
X176401575Y-55209094D01*
X176514664Y-55148646D01*
X176546596Y-55138960D01*
X176637382Y-55111420D01*
X176701145Y-55105140D01*
X176733026Y-55102000D01*
X177596974Y-55102000D01*
X177628855Y-55105140D01*
X177628855Y-55105140D01*
G37*
G36*
X182708855Y-55105140D02*
G01*
X182772618Y-55111420D01*
X182863404Y-55138960D01*
X182895336Y-55148646D01*
X183008425Y-55209094D01*
X183107554Y-55290446D01*
X183188906Y-55389575D01*
X183249354Y-55502664D01*
X183249355Y-55502668D01*
X183286580Y-55625382D01*
X183299149Y-55753000D01*
X183286580Y-55880618D01*
X183259040Y-55971404D01*
X183249354Y-56003336D01*
X183188906Y-56116425D01*
X183107554Y-56215554D01*
X183008425Y-56296906D01*
X182895336Y-56357354D01*
X182863404Y-56367040D01*
X182772618Y-56394580D01*
X182708855Y-56400860D01*
X182676974Y-56404000D01*
X181813026Y-56404000D01*
X181781145Y-56400860D01*
X181717382Y-56394580D01*
X181626596Y-56367040D01*
X181594664Y-56357354D01*
X181481575Y-56296906D01*
X181382446Y-56215554D01*
X181301094Y-56116425D01*
X181240646Y-56003336D01*
X181230960Y-55971404D01*
X181203420Y-55880618D01*
X181190851Y-55753000D01*
X181203420Y-55625382D01*
X181240645Y-55502668D01*
X181240646Y-55502664D01*
X181301094Y-55389575D01*
X181382446Y-55290446D01*
X181481575Y-55209094D01*
X181594664Y-55148646D01*
X181626596Y-55138960D01*
X181717382Y-55111420D01*
X181781145Y-55105140D01*
X181813026Y-55102000D01*
X182676974Y-55102000D01*
X182708855Y-55105140D01*
X182708855Y-55105140D01*
G37*
G36*
X152677395Y-53441546D02*
G01*
X152850466Y-53513234D01*
X152850467Y-53513235D01*
X153006227Y-53617310D01*
X153138690Y-53749773D01*
X153138691Y-53749775D01*
X153242766Y-53905534D01*
X153314454Y-54078605D01*
X153351000Y-54262333D01*
X153351000Y-54449667D01*
X153314454Y-54633395D01*
X153242766Y-54806466D01*
X153242765Y-54806467D01*
X153138690Y-54962227D01*
X153006227Y-55094690D01*
X152927818Y-55147081D01*
X152850466Y-55198766D01*
X152677395Y-55270454D01*
X152493667Y-55307000D01*
X152306333Y-55307000D01*
X152122605Y-55270454D01*
X151949534Y-55198766D01*
X151872182Y-55147081D01*
X151793773Y-55094690D01*
X151661310Y-54962227D01*
X151557235Y-54806467D01*
X151557234Y-54806466D01*
X151485546Y-54633395D01*
X151449000Y-54449667D01*
X151449000Y-54262333D01*
X151485546Y-54078605D01*
X151557234Y-53905534D01*
X151661309Y-53749775D01*
X151661310Y-53749773D01*
X151793773Y-53617310D01*
X151949533Y-53513235D01*
X151949534Y-53513234D01*
X152122605Y-53441546D01*
X152306333Y-53405000D01*
X152493667Y-53405000D01*
X152677395Y-53441546D01*
X152677395Y-53441546D01*
G37*
G36*
X150811000Y-55307000D02*
G01*
X148909000Y-55307000D01*
X148909000Y-53405000D01*
X150811000Y-53405000D01*
X150811000Y-55307000D01*
X150811000Y-55307000D01*
G37*
G36*
X142517395Y-53441546D02*
G01*
X142690466Y-53513234D01*
X142690467Y-53513235D01*
X142846227Y-53617310D01*
X142978690Y-53749773D01*
X142978691Y-53749775D01*
X143082766Y-53905534D01*
X143154454Y-54078605D01*
X143191000Y-54262333D01*
X143191000Y-54449667D01*
X143154454Y-54633395D01*
X143082766Y-54806466D01*
X143082765Y-54806467D01*
X142978690Y-54962227D01*
X142846227Y-55094690D01*
X142767818Y-55147081D01*
X142690466Y-55198766D01*
X142517395Y-55270454D01*
X142333667Y-55307000D01*
X142146333Y-55307000D01*
X141962605Y-55270454D01*
X141789534Y-55198766D01*
X141712182Y-55147081D01*
X141633773Y-55094690D01*
X141501310Y-54962227D01*
X141397235Y-54806467D01*
X141397234Y-54806466D01*
X141325546Y-54633395D01*
X141289000Y-54449667D01*
X141289000Y-54262333D01*
X141325546Y-54078605D01*
X141397234Y-53905534D01*
X141501309Y-53749775D01*
X141501310Y-53749773D01*
X141633773Y-53617310D01*
X141789533Y-53513235D01*
X141789534Y-53513234D01*
X141962605Y-53441546D01*
X142146333Y-53405000D01*
X142333667Y-53405000D01*
X142517395Y-53441546D01*
X142517395Y-53441546D01*
G37*
G36*
X140651000Y-55307000D02*
G01*
X138749000Y-55307000D01*
X138749000Y-53405000D01*
X140651000Y-53405000D01*
X140651000Y-55307000D01*
X140651000Y-55307000D01*
G37*
G36*
X177628855Y-52565140D02*
G01*
X177692618Y-52571420D01*
X177783404Y-52598960D01*
X177815336Y-52608646D01*
X177928425Y-52669094D01*
X178027554Y-52750446D01*
X178108906Y-52849575D01*
X178169354Y-52962664D01*
X178169355Y-52962668D01*
X178206580Y-53085382D01*
X178219149Y-53213000D01*
X178206580Y-53340618D01*
X178187050Y-53405000D01*
X178169354Y-53463336D01*
X178108906Y-53576425D01*
X178027554Y-53675554D01*
X177928425Y-53756906D01*
X177815336Y-53817354D01*
X177783404Y-53827040D01*
X177692618Y-53854580D01*
X177628855Y-53860860D01*
X177596974Y-53864000D01*
X176733026Y-53864000D01*
X176701145Y-53860860D01*
X176637382Y-53854580D01*
X176546596Y-53827040D01*
X176514664Y-53817354D01*
X176401575Y-53756906D01*
X176302446Y-53675554D01*
X176221094Y-53576425D01*
X176160646Y-53463336D01*
X176142950Y-53405000D01*
X176123420Y-53340618D01*
X176110851Y-53213000D01*
X176123420Y-53085382D01*
X176160645Y-52962668D01*
X176160646Y-52962664D01*
X176221094Y-52849575D01*
X176302446Y-52750446D01*
X176401575Y-52669094D01*
X176514664Y-52608646D01*
X176546596Y-52598960D01*
X176637382Y-52571420D01*
X176701145Y-52565140D01*
X176733026Y-52562000D01*
X177596974Y-52562000D01*
X177628855Y-52565140D01*
X177628855Y-52565140D01*
G37*
G36*
X182708855Y-52565140D02*
G01*
X182772618Y-52571420D01*
X182863404Y-52598960D01*
X182895336Y-52608646D01*
X183008425Y-52669094D01*
X183107554Y-52750446D01*
X183188906Y-52849575D01*
X183249354Y-52962664D01*
X183249355Y-52962668D01*
X183286580Y-53085382D01*
X183299149Y-53213000D01*
X183286580Y-53340618D01*
X183267050Y-53405000D01*
X183249354Y-53463336D01*
X183188906Y-53576425D01*
X183107554Y-53675554D01*
X183008425Y-53756906D01*
X182895336Y-53817354D01*
X182863404Y-53827040D01*
X182772618Y-53854580D01*
X182708855Y-53860860D01*
X182676974Y-53864000D01*
X181813026Y-53864000D01*
X181781145Y-53860860D01*
X181717382Y-53854580D01*
X181626596Y-53827040D01*
X181594664Y-53817354D01*
X181481575Y-53756906D01*
X181382446Y-53675554D01*
X181301094Y-53576425D01*
X181240646Y-53463336D01*
X181222950Y-53405000D01*
X181203420Y-53340618D01*
X181190851Y-53213000D01*
X181203420Y-53085382D01*
X181240645Y-52962668D01*
X181240646Y-52962664D01*
X181301094Y-52849575D01*
X181382446Y-52750446D01*
X181481575Y-52669094D01*
X181594664Y-52608646D01*
X181626596Y-52598960D01*
X181717382Y-52571420D01*
X181781145Y-52565140D01*
X181813026Y-52562000D01*
X182676974Y-52562000D01*
X182708855Y-52565140D01*
X182708855Y-52565140D01*
G37*
G36*
X152677395Y-50266546D02*
G01*
X152850466Y-50338234D01*
X152850467Y-50338235D01*
X153006227Y-50442310D01*
X153138690Y-50574773D01*
X153138691Y-50574775D01*
X153242766Y-50730534D01*
X153314454Y-50903605D01*
X153351000Y-51087333D01*
X153351000Y-51274667D01*
X153314454Y-51458395D01*
X153242766Y-51631466D01*
X153242765Y-51631467D01*
X153138690Y-51787227D01*
X153006227Y-51919690D01*
X152927818Y-51972081D01*
X152850466Y-52023766D01*
X152677395Y-52095454D01*
X152493667Y-52132000D01*
X152306333Y-52132000D01*
X152122605Y-52095454D01*
X151949534Y-52023766D01*
X151872182Y-51972081D01*
X151793773Y-51919690D01*
X151661310Y-51787227D01*
X151557235Y-51631467D01*
X151557234Y-51631466D01*
X151485546Y-51458395D01*
X151449000Y-51274667D01*
X151449000Y-51087333D01*
X151485546Y-50903605D01*
X151557234Y-50730534D01*
X151661309Y-50574775D01*
X151661310Y-50574773D01*
X151793773Y-50442310D01*
X151949533Y-50338235D01*
X151949534Y-50338234D01*
X152122605Y-50266546D01*
X152306333Y-50230000D01*
X152493667Y-50230000D01*
X152677395Y-50266546D01*
X152677395Y-50266546D01*
G37*
G36*
X150811000Y-52132000D02*
G01*
X148909000Y-52132000D01*
X148909000Y-50230000D01*
X150811000Y-50230000D01*
X150811000Y-52132000D01*
X150811000Y-52132000D01*
G37*
G36*
X142517395Y-50266546D02*
G01*
X142690466Y-50338234D01*
X142690467Y-50338235D01*
X142846227Y-50442310D01*
X142978690Y-50574773D01*
X142978691Y-50574775D01*
X143082766Y-50730534D01*
X143154454Y-50903605D01*
X143191000Y-51087333D01*
X143191000Y-51274667D01*
X143154454Y-51458395D01*
X143082766Y-51631466D01*
X143082765Y-51631467D01*
X142978690Y-51787227D01*
X142846227Y-51919690D01*
X142767818Y-51972081D01*
X142690466Y-52023766D01*
X142517395Y-52095454D01*
X142333667Y-52132000D01*
X142146333Y-52132000D01*
X141962605Y-52095454D01*
X141789534Y-52023766D01*
X141712182Y-51972081D01*
X141633773Y-51919690D01*
X141501310Y-51787227D01*
X141397235Y-51631467D01*
X141397234Y-51631466D01*
X141325546Y-51458395D01*
X141289000Y-51274667D01*
X141289000Y-51087333D01*
X141325546Y-50903605D01*
X141397234Y-50730534D01*
X141501309Y-50574775D01*
X141501310Y-50574773D01*
X141633773Y-50442310D01*
X141789533Y-50338235D01*
X141789534Y-50338234D01*
X141962605Y-50266546D01*
X142146333Y-50230000D01*
X142333667Y-50230000D01*
X142517395Y-50266546D01*
X142517395Y-50266546D01*
G37*
G36*
X140651000Y-52132000D02*
G01*
X138749000Y-52132000D01*
X138749000Y-50230000D01*
X140651000Y-50230000D01*
X140651000Y-52132000D01*
X140651000Y-52132000D01*
G37*
G36*
X177628855Y-50025140D02*
G01*
X177692618Y-50031420D01*
X177783404Y-50058960D01*
X177815336Y-50068646D01*
X177928425Y-50129094D01*
X178027554Y-50210446D01*
X178108906Y-50309575D01*
X178169354Y-50422664D01*
X178169355Y-50422668D01*
X178206580Y-50545382D01*
X178219149Y-50673000D01*
X178206580Y-50800618D01*
X178179040Y-50891404D01*
X178169354Y-50923336D01*
X178108906Y-51036425D01*
X178027554Y-51135554D01*
X177928425Y-51216906D01*
X177815336Y-51277354D01*
X177783404Y-51287040D01*
X177692618Y-51314580D01*
X177628855Y-51320860D01*
X177596974Y-51324000D01*
X176733026Y-51324000D01*
X176701145Y-51320860D01*
X176637382Y-51314580D01*
X176546596Y-51287040D01*
X176514664Y-51277354D01*
X176401575Y-51216906D01*
X176302446Y-51135554D01*
X176221094Y-51036425D01*
X176160646Y-50923336D01*
X176150960Y-50891404D01*
X176123420Y-50800618D01*
X176110851Y-50673000D01*
X176123420Y-50545382D01*
X176160645Y-50422668D01*
X176160646Y-50422664D01*
X176221094Y-50309575D01*
X176302446Y-50210446D01*
X176401575Y-50129094D01*
X176514664Y-50068646D01*
X176546596Y-50058960D01*
X176637382Y-50031420D01*
X176701145Y-50025140D01*
X176733026Y-50022000D01*
X177596974Y-50022000D01*
X177628855Y-50025140D01*
X177628855Y-50025140D01*
G37*
G36*
X182708855Y-50025140D02*
G01*
X182772618Y-50031420D01*
X182863404Y-50058960D01*
X182895336Y-50068646D01*
X183008425Y-50129094D01*
X183107554Y-50210446D01*
X183188906Y-50309575D01*
X183249354Y-50422664D01*
X183249355Y-50422668D01*
X183286580Y-50545382D01*
X183299149Y-50673000D01*
X183286580Y-50800618D01*
X183259040Y-50891404D01*
X183249354Y-50923336D01*
X183188906Y-51036425D01*
X183107554Y-51135554D01*
X183008425Y-51216906D01*
X182895336Y-51277354D01*
X182863404Y-51287040D01*
X182772618Y-51314580D01*
X182708855Y-51320860D01*
X182676974Y-51324000D01*
X181813026Y-51324000D01*
X181781145Y-51320860D01*
X181717382Y-51314580D01*
X181626596Y-51287040D01*
X181594664Y-51277354D01*
X181481575Y-51216906D01*
X181382446Y-51135554D01*
X181301094Y-51036425D01*
X181240646Y-50923336D01*
X181230960Y-50891404D01*
X181203420Y-50800618D01*
X181190851Y-50673000D01*
X181203420Y-50545382D01*
X181240645Y-50422668D01*
X181240646Y-50422664D01*
X181301094Y-50309575D01*
X181382446Y-50210446D01*
X181481575Y-50129094D01*
X181594664Y-50068646D01*
X181626596Y-50058960D01*
X181717382Y-50031420D01*
X181781145Y-50025140D01*
X181813026Y-50022000D01*
X182676974Y-50022000D01*
X182708855Y-50025140D01*
X182708855Y-50025140D01*
G37*
G36*
X152677395Y-47091546D02*
G01*
X152850466Y-47163234D01*
X152850467Y-47163235D01*
X153006227Y-47267310D01*
X153138690Y-47399773D01*
X153138691Y-47399775D01*
X153242766Y-47555534D01*
X153314454Y-47728605D01*
X153351000Y-47912333D01*
X153351000Y-48099667D01*
X153314454Y-48283395D01*
X153242766Y-48456466D01*
X153191081Y-48533818D01*
X153138690Y-48612227D01*
X153006227Y-48744690D01*
X152961493Y-48774580D01*
X152850466Y-48848766D01*
X152677395Y-48920454D01*
X152493667Y-48957000D01*
X152306333Y-48957000D01*
X152122605Y-48920454D01*
X151949534Y-48848766D01*
X151838507Y-48774580D01*
X151793773Y-48744690D01*
X151661310Y-48612227D01*
X151608919Y-48533818D01*
X151557234Y-48456466D01*
X151485546Y-48283395D01*
X151449000Y-48099667D01*
X151449000Y-47912333D01*
X151485546Y-47728605D01*
X151557234Y-47555534D01*
X151661309Y-47399775D01*
X151661310Y-47399773D01*
X151793773Y-47267310D01*
X151949533Y-47163235D01*
X151949534Y-47163234D01*
X152122605Y-47091546D01*
X152306333Y-47055000D01*
X152493667Y-47055000D01*
X152677395Y-47091546D01*
X152677395Y-47091546D01*
G37*
G36*
X150811000Y-48957000D02*
G01*
X148909000Y-48957000D01*
X148909000Y-47055000D01*
X150811000Y-47055000D01*
X150811000Y-48957000D01*
X150811000Y-48957000D01*
G37*
G36*
X140651000Y-48957000D02*
G01*
X138749000Y-48957000D01*
X138749000Y-47055000D01*
X140651000Y-47055000D01*
X140651000Y-48957000D01*
X140651000Y-48957000D01*
G37*
G36*
X142517395Y-47091546D02*
G01*
X142690466Y-47163234D01*
X142690467Y-47163235D01*
X142846227Y-47267310D01*
X142978690Y-47399773D01*
X142978691Y-47399775D01*
X143082766Y-47555534D01*
X143154454Y-47728605D01*
X143191000Y-47912333D01*
X143191000Y-48099667D01*
X143154454Y-48283395D01*
X143082766Y-48456466D01*
X143031081Y-48533818D01*
X142978690Y-48612227D01*
X142846227Y-48744690D01*
X142801493Y-48774580D01*
X142690466Y-48848766D01*
X142517395Y-48920454D01*
X142333667Y-48957000D01*
X142146333Y-48957000D01*
X141962605Y-48920454D01*
X141789534Y-48848766D01*
X141678507Y-48774580D01*
X141633773Y-48744690D01*
X141501310Y-48612227D01*
X141448919Y-48533818D01*
X141397234Y-48456466D01*
X141325546Y-48283395D01*
X141289000Y-48099667D01*
X141289000Y-47912333D01*
X141325546Y-47728605D01*
X141397234Y-47555534D01*
X141501309Y-47399775D01*
X141501310Y-47399773D01*
X141633773Y-47267310D01*
X141789533Y-47163235D01*
X141789534Y-47163234D01*
X141962605Y-47091546D01*
X142146333Y-47055000D01*
X142333667Y-47055000D01*
X142517395Y-47091546D01*
X142517395Y-47091546D01*
G37*
G36*
X182708855Y-47485140D02*
G01*
X182772618Y-47491420D01*
X182863404Y-47518960D01*
X182895336Y-47528646D01*
X183008425Y-47589094D01*
X183107554Y-47670446D01*
X183188906Y-47769575D01*
X183249354Y-47882664D01*
X183249355Y-47882668D01*
X183286580Y-48005382D01*
X183299149Y-48133000D01*
X183286580Y-48260618D01*
X183279670Y-48283396D01*
X183249354Y-48383336D01*
X183188906Y-48496425D01*
X183107554Y-48595554D01*
X183008425Y-48676906D01*
X182895336Y-48737354D01*
X182871152Y-48744690D01*
X182772618Y-48774580D01*
X182708855Y-48780860D01*
X182676974Y-48784000D01*
X181813026Y-48784000D01*
X181781145Y-48780860D01*
X181717382Y-48774580D01*
X181618848Y-48744690D01*
X181594664Y-48737354D01*
X181481575Y-48676906D01*
X181382446Y-48595554D01*
X181301094Y-48496425D01*
X181240646Y-48383336D01*
X181210330Y-48283396D01*
X181203420Y-48260618D01*
X181190851Y-48133000D01*
X181203420Y-48005382D01*
X181240645Y-47882668D01*
X181240646Y-47882664D01*
X181301094Y-47769575D01*
X181382446Y-47670446D01*
X181481575Y-47589094D01*
X181594664Y-47528646D01*
X181626596Y-47518960D01*
X181717382Y-47491420D01*
X181781145Y-47485140D01*
X181813026Y-47482000D01*
X182676974Y-47482000D01*
X182708855Y-47485140D01*
X182708855Y-47485140D01*
G37*
G36*
X177628855Y-47485140D02*
G01*
X177692618Y-47491420D01*
X177783404Y-47518960D01*
X177815336Y-47528646D01*
X177928425Y-47589094D01*
X178027554Y-47670446D01*
X178108906Y-47769575D01*
X178169354Y-47882664D01*
X178169355Y-47882668D01*
X178206580Y-48005382D01*
X178219149Y-48133000D01*
X178206580Y-48260618D01*
X178199670Y-48283396D01*
X178169354Y-48383336D01*
X178108906Y-48496425D01*
X178027554Y-48595554D01*
X177928425Y-48676906D01*
X177815336Y-48737354D01*
X177791152Y-48744690D01*
X177692618Y-48774580D01*
X177628855Y-48780860D01*
X177596974Y-48784000D01*
X176733026Y-48784000D01*
X176701145Y-48780860D01*
X176637382Y-48774580D01*
X176538848Y-48744690D01*
X176514664Y-48737354D01*
X176401575Y-48676906D01*
X176302446Y-48595554D01*
X176221094Y-48496425D01*
X176160646Y-48383336D01*
X176130330Y-48283396D01*
X176123420Y-48260618D01*
X176110851Y-48133000D01*
X176123420Y-48005382D01*
X176160645Y-47882668D01*
X176160646Y-47882664D01*
X176221094Y-47769575D01*
X176302446Y-47670446D01*
X176401575Y-47589094D01*
X176514664Y-47528646D01*
X176546596Y-47518960D01*
X176637382Y-47491420D01*
X176701145Y-47485140D01*
X176733026Y-47482000D01*
X177596974Y-47482000D01*
X177628855Y-47485140D01*
X177628855Y-47485140D01*
G37*
G36*
X182708855Y-44945140D02*
G01*
X182772618Y-44951420D01*
X182863404Y-44978960D01*
X182895336Y-44988646D01*
X183008425Y-45049094D01*
X183107554Y-45130446D01*
X183188906Y-45229575D01*
X183249354Y-45342664D01*
X183249355Y-45342668D01*
X183286580Y-45465382D01*
X183299149Y-45593000D01*
X183286580Y-45720618D01*
X183279046Y-45745453D01*
X183249354Y-45843336D01*
X183188906Y-45956425D01*
X183107554Y-46055554D01*
X183008425Y-46136906D01*
X182895336Y-46197354D01*
X182863404Y-46207040D01*
X182772618Y-46234580D01*
X182708855Y-46240860D01*
X182676974Y-46244000D01*
X181813026Y-46244000D01*
X181781145Y-46240860D01*
X181717382Y-46234580D01*
X181626596Y-46207040D01*
X181594664Y-46197354D01*
X181481575Y-46136906D01*
X181382446Y-46055554D01*
X181301094Y-45956425D01*
X181240646Y-45843336D01*
X181210954Y-45745453D01*
X181203420Y-45720618D01*
X181190851Y-45593000D01*
X181203420Y-45465382D01*
X181240645Y-45342668D01*
X181240646Y-45342664D01*
X181301094Y-45229575D01*
X181382446Y-45130446D01*
X181481575Y-45049094D01*
X181594664Y-44988646D01*
X181626596Y-44978960D01*
X181717382Y-44951420D01*
X181781145Y-44945140D01*
X181813026Y-44942000D01*
X182676974Y-44942000D01*
X182708855Y-44945140D01*
X182708855Y-44945140D01*
G37*
G36*
X177628855Y-44945140D02*
G01*
X177692618Y-44951420D01*
X177783404Y-44978960D01*
X177815336Y-44988646D01*
X177928425Y-45049094D01*
X178027554Y-45130446D01*
X178108906Y-45229575D01*
X178169354Y-45342664D01*
X178169355Y-45342668D01*
X178206580Y-45465382D01*
X178219149Y-45593000D01*
X178206580Y-45720618D01*
X178199046Y-45745453D01*
X178169354Y-45843336D01*
X178108906Y-45956425D01*
X178027554Y-46055554D01*
X177928425Y-46136906D01*
X177815336Y-46197354D01*
X177783404Y-46207040D01*
X177692618Y-46234580D01*
X177628855Y-46240860D01*
X177596974Y-46244000D01*
X176733026Y-46244000D01*
X176701145Y-46240860D01*
X176637382Y-46234580D01*
X176546596Y-46207040D01*
X176514664Y-46197354D01*
X176401575Y-46136906D01*
X176302446Y-46055554D01*
X176221094Y-45956425D01*
X176160646Y-45843336D01*
X176130954Y-45745453D01*
X176123420Y-45720618D01*
X176110851Y-45593000D01*
X176123420Y-45465382D01*
X176160645Y-45342668D01*
X176160646Y-45342664D01*
X176221094Y-45229575D01*
X176302446Y-45130446D01*
X176401575Y-45049094D01*
X176514664Y-44988646D01*
X176546596Y-44978960D01*
X176637382Y-44951420D01*
X176701145Y-44945140D01*
X176733026Y-44942000D01*
X177596974Y-44942000D01*
X177628855Y-44945140D01*
X177628855Y-44945140D01*
G37*
G36*
X140651000Y-45782000D02*
G01*
X138749000Y-45782000D01*
X138749000Y-43880000D01*
X140651000Y-43880000D01*
X140651000Y-45782000D01*
X140651000Y-45782000D01*
G37*
G36*
X142517395Y-43916546D02*
G01*
X142690466Y-43988234D01*
X142690467Y-43988235D01*
X142846227Y-44092310D01*
X142978690Y-44224773D01*
X142978691Y-44224775D01*
X143082766Y-44380534D01*
X143154454Y-44553605D01*
X143191000Y-44737333D01*
X143191000Y-44924667D01*
X143154454Y-45108395D01*
X143082766Y-45281466D01*
X143082765Y-45281467D01*
X142978690Y-45437227D01*
X142846227Y-45569690D01*
X142811341Y-45593000D01*
X142690466Y-45673766D01*
X142517395Y-45745454D01*
X142333667Y-45782000D01*
X142146333Y-45782000D01*
X141962605Y-45745454D01*
X141789534Y-45673766D01*
X141668659Y-45593000D01*
X141633773Y-45569690D01*
X141501310Y-45437227D01*
X141397235Y-45281467D01*
X141397234Y-45281466D01*
X141325546Y-45108395D01*
X141289000Y-44924667D01*
X141289000Y-44737333D01*
X141325546Y-44553605D01*
X141397234Y-44380534D01*
X141501309Y-44224775D01*
X141501310Y-44224773D01*
X141633773Y-44092310D01*
X141789533Y-43988235D01*
X141789534Y-43988234D01*
X141962605Y-43916546D01*
X142146333Y-43880000D01*
X142333667Y-43880000D01*
X142517395Y-43916546D01*
X142517395Y-43916546D01*
G37*
G36*
X152677395Y-43916546D02*
G01*
X152850466Y-43988234D01*
X152850467Y-43988235D01*
X153006227Y-44092310D01*
X153138690Y-44224773D01*
X153138691Y-44224775D01*
X153242766Y-44380534D01*
X153314454Y-44553605D01*
X153351000Y-44737333D01*
X153351000Y-44924667D01*
X153314454Y-45108395D01*
X153242766Y-45281466D01*
X153242765Y-45281467D01*
X153138690Y-45437227D01*
X153006227Y-45569690D01*
X152971341Y-45593000D01*
X152850466Y-45673766D01*
X152677395Y-45745454D01*
X152493667Y-45782000D01*
X152306333Y-45782000D01*
X152122605Y-45745454D01*
X151949534Y-45673766D01*
X151828659Y-45593000D01*
X151793773Y-45569690D01*
X151661310Y-45437227D01*
X151557235Y-45281467D01*
X151557234Y-45281466D01*
X151485546Y-45108395D01*
X151449000Y-44924667D01*
X151449000Y-44737333D01*
X151485546Y-44553605D01*
X151557234Y-44380534D01*
X151661309Y-44224775D01*
X151661310Y-44224773D01*
X151793773Y-44092310D01*
X151949533Y-43988235D01*
X151949534Y-43988234D01*
X152122605Y-43916546D01*
X152306333Y-43880000D01*
X152493667Y-43880000D01*
X152677395Y-43916546D01*
X152677395Y-43916546D01*
G37*
G36*
X150811000Y-45782000D02*
G01*
X148909000Y-45782000D01*
X148909000Y-43880000D01*
X150811000Y-43880000D01*
X150811000Y-45782000D01*
X150811000Y-45782000D01*
G37*
G36*
X182708855Y-42405140D02*
G01*
X182772618Y-42411420D01*
X182863404Y-42438960D01*
X182895336Y-42448646D01*
X183008425Y-42509094D01*
X183107554Y-42590446D01*
X183188906Y-42689575D01*
X183249354Y-42802664D01*
X183249355Y-42802668D01*
X183286580Y-42925382D01*
X183299149Y-43053000D01*
X183286580Y-43180618D01*
X183259040Y-43271404D01*
X183249354Y-43303336D01*
X183188906Y-43416425D01*
X183107554Y-43515554D01*
X183008425Y-43596906D01*
X182895336Y-43657354D01*
X182863404Y-43667040D01*
X182772618Y-43694580D01*
X182708855Y-43700860D01*
X182676974Y-43704000D01*
X181813026Y-43704000D01*
X181781145Y-43700860D01*
X181717382Y-43694580D01*
X181626596Y-43667040D01*
X181594664Y-43657354D01*
X181481575Y-43596906D01*
X181382446Y-43515554D01*
X181301094Y-43416425D01*
X181240646Y-43303336D01*
X181230960Y-43271404D01*
X181203420Y-43180618D01*
X181190851Y-43053000D01*
X181203420Y-42925382D01*
X181240645Y-42802668D01*
X181240646Y-42802664D01*
X181301094Y-42689575D01*
X181382446Y-42590446D01*
X181481575Y-42509094D01*
X181594664Y-42448646D01*
X181626596Y-42438960D01*
X181717382Y-42411420D01*
X181781145Y-42405140D01*
X181813026Y-42402000D01*
X182676974Y-42402000D01*
X182708855Y-42405140D01*
X182708855Y-42405140D01*
G37*
G36*
X177628855Y-42405140D02*
G01*
X177692618Y-42411420D01*
X177783404Y-42438960D01*
X177815336Y-42448646D01*
X177928425Y-42509094D01*
X178027554Y-42590446D01*
X178108906Y-42689575D01*
X178169354Y-42802664D01*
X178169355Y-42802668D01*
X178206580Y-42925382D01*
X178219149Y-43053000D01*
X178206580Y-43180618D01*
X178179040Y-43271404D01*
X178169354Y-43303336D01*
X178108906Y-43416425D01*
X178027554Y-43515554D01*
X177928425Y-43596906D01*
X177815336Y-43657354D01*
X177783404Y-43667040D01*
X177692618Y-43694580D01*
X177628855Y-43700860D01*
X177596974Y-43704000D01*
X176733026Y-43704000D01*
X176701145Y-43700860D01*
X176637382Y-43694580D01*
X176546596Y-43667040D01*
X176514664Y-43657354D01*
X176401575Y-43596906D01*
X176302446Y-43515554D01*
X176221094Y-43416425D01*
X176160646Y-43303336D01*
X176150960Y-43271404D01*
X176123420Y-43180618D01*
X176110851Y-43053000D01*
X176123420Y-42925382D01*
X176160645Y-42802668D01*
X176160646Y-42802664D01*
X176221094Y-42689575D01*
X176302446Y-42590446D01*
X176401575Y-42509094D01*
X176514664Y-42448646D01*
X176546596Y-42438960D01*
X176637382Y-42411420D01*
X176701145Y-42405140D01*
X176733026Y-42402000D01*
X177596974Y-42402000D01*
X177628855Y-42405140D01*
X177628855Y-42405140D01*
G37*
G36*
X140651000Y-42607000D02*
G01*
X138749000Y-42607000D01*
X138749000Y-40705000D01*
X140651000Y-40705000D01*
X140651000Y-42607000D01*
X140651000Y-42607000D01*
G37*
G36*
X142517395Y-40741546D02*
G01*
X142690466Y-40813234D01*
X142690467Y-40813235D01*
X142846227Y-40917310D01*
X142978690Y-41049773D01*
X142978691Y-41049775D01*
X143082766Y-41205534D01*
X143154454Y-41378605D01*
X143191000Y-41562333D01*
X143191000Y-41749667D01*
X143154454Y-41933395D01*
X143082766Y-42106466D01*
X143082765Y-42106467D01*
X142978690Y-42262227D01*
X142846227Y-42394690D01*
X142767818Y-42447081D01*
X142690466Y-42498766D01*
X142517395Y-42570454D01*
X142333667Y-42607000D01*
X142146333Y-42607000D01*
X141962605Y-42570454D01*
X141789534Y-42498766D01*
X141712182Y-42447081D01*
X141633773Y-42394690D01*
X141501310Y-42262227D01*
X141397235Y-42106467D01*
X141397234Y-42106466D01*
X141325546Y-41933395D01*
X141289000Y-41749667D01*
X141289000Y-41562333D01*
X141325546Y-41378605D01*
X141397234Y-41205534D01*
X141501309Y-41049775D01*
X141501310Y-41049773D01*
X141633773Y-40917310D01*
X141789533Y-40813235D01*
X141789534Y-40813234D01*
X141962605Y-40741546D01*
X142146333Y-40705000D01*
X142333667Y-40705000D01*
X142517395Y-40741546D01*
X142517395Y-40741546D01*
G37*
G36*
X150811000Y-42607000D02*
G01*
X148909000Y-42607000D01*
X148909000Y-40705000D01*
X150811000Y-40705000D01*
X150811000Y-42607000D01*
X150811000Y-42607000D01*
G37*
G36*
X152677395Y-40741546D02*
G01*
X152850466Y-40813234D01*
X152850467Y-40813235D01*
X153006227Y-40917310D01*
X153138690Y-41049773D01*
X153138691Y-41049775D01*
X153242766Y-41205534D01*
X153314454Y-41378605D01*
X153351000Y-41562333D01*
X153351000Y-41749667D01*
X153314454Y-41933395D01*
X153242766Y-42106466D01*
X153242765Y-42106467D01*
X153138690Y-42262227D01*
X153006227Y-42394690D01*
X152927818Y-42447081D01*
X152850466Y-42498766D01*
X152677395Y-42570454D01*
X152493667Y-42607000D01*
X152306333Y-42607000D01*
X152122605Y-42570454D01*
X151949534Y-42498766D01*
X151872182Y-42447081D01*
X151793773Y-42394690D01*
X151661310Y-42262227D01*
X151557235Y-42106467D01*
X151557234Y-42106466D01*
X151485546Y-41933395D01*
X151449000Y-41749667D01*
X151449000Y-41562333D01*
X151485546Y-41378605D01*
X151557234Y-41205534D01*
X151661309Y-41049775D01*
X151661310Y-41049773D01*
X151793773Y-40917310D01*
X151949533Y-40813235D01*
X151949534Y-40813234D01*
X152122605Y-40741546D01*
X152306333Y-40705000D01*
X152493667Y-40705000D01*
X152677395Y-40741546D01*
X152677395Y-40741546D01*
G37*
G36*
X177628855Y-39865140D02*
G01*
X177692618Y-39871420D01*
X177783404Y-39898960D01*
X177815336Y-39908646D01*
X177928425Y-39969094D01*
X178027554Y-40050446D01*
X178108906Y-40149575D01*
X178169354Y-40262664D01*
X178169355Y-40262668D01*
X178206580Y-40385382D01*
X178219149Y-40513000D01*
X178206580Y-40640618D01*
X178187050Y-40705000D01*
X178169354Y-40763336D01*
X178108906Y-40876425D01*
X178027554Y-40975554D01*
X177928425Y-41056906D01*
X177815336Y-41117354D01*
X177783404Y-41127040D01*
X177692618Y-41154580D01*
X177628855Y-41160860D01*
X177596974Y-41164000D01*
X176733026Y-41164000D01*
X176701145Y-41160860D01*
X176637382Y-41154580D01*
X176546596Y-41127040D01*
X176514664Y-41117354D01*
X176401575Y-41056906D01*
X176302446Y-40975554D01*
X176221094Y-40876425D01*
X176160646Y-40763336D01*
X176142950Y-40705000D01*
X176123420Y-40640618D01*
X176110851Y-40513000D01*
X176123420Y-40385382D01*
X176160645Y-40262668D01*
X176160646Y-40262664D01*
X176221094Y-40149575D01*
X176302446Y-40050446D01*
X176401575Y-39969094D01*
X176514664Y-39908646D01*
X176546596Y-39898960D01*
X176637382Y-39871420D01*
X176701145Y-39865140D01*
X176733026Y-39862000D01*
X177596974Y-39862000D01*
X177628855Y-39865140D01*
X177628855Y-39865140D01*
G37*
G36*
X182708855Y-39865140D02*
G01*
X182772618Y-39871420D01*
X182863404Y-39898960D01*
X182895336Y-39908646D01*
X183008425Y-39969094D01*
X183107554Y-40050446D01*
X183188906Y-40149575D01*
X183249354Y-40262664D01*
X183249355Y-40262668D01*
X183286580Y-40385382D01*
X183299149Y-40513000D01*
X183286580Y-40640618D01*
X183267050Y-40705000D01*
X183249354Y-40763336D01*
X183188906Y-40876425D01*
X183107554Y-40975554D01*
X183008425Y-41056906D01*
X182895336Y-41117354D01*
X182863404Y-41127040D01*
X182772618Y-41154580D01*
X182708855Y-41160860D01*
X182676974Y-41164000D01*
X181813026Y-41164000D01*
X181781145Y-41160860D01*
X181717382Y-41154580D01*
X181626596Y-41127040D01*
X181594664Y-41117354D01*
X181481575Y-41056906D01*
X181382446Y-40975554D01*
X181301094Y-40876425D01*
X181240646Y-40763336D01*
X181222950Y-40705000D01*
X181203420Y-40640618D01*
X181190851Y-40513000D01*
X181203420Y-40385382D01*
X181240645Y-40262668D01*
X181240646Y-40262664D01*
X181301094Y-40149575D01*
X181382446Y-40050446D01*
X181481575Y-39969094D01*
X181594664Y-39908646D01*
X181626596Y-39898960D01*
X181717382Y-39871420D01*
X181781145Y-39865140D01*
X181813026Y-39862000D01*
X182676974Y-39862000D01*
X182708855Y-39865140D01*
X182708855Y-39865140D01*
G37*
G36*
X140651000Y-39432000D02*
G01*
X138749000Y-39432000D01*
X138749000Y-37530000D01*
X140651000Y-37530000D01*
X140651000Y-39432000D01*
X140651000Y-39432000D01*
G37*
G36*
X142517395Y-37566546D02*
G01*
X142690466Y-37638234D01*
X142690467Y-37638235D01*
X142846227Y-37742310D01*
X142978690Y-37874773D01*
X142978691Y-37874775D01*
X143082766Y-38030534D01*
X143154454Y-38203605D01*
X143191000Y-38387333D01*
X143191000Y-38574667D01*
X143154454Y-38758395D01*
X143082766Y-38931466D01*
X143082765Y-38931467D01*
X142978690Y-39087227D01*
X142846227Y-39219690D01*
X142767818Y-39272081D01*
X142690466Y-39323766D01*
X142517395Y-39395454D01*
X142333667Y-39432000D01*
X142146333Y-39432000D01*
X141962605Y-39395454D01*
X141789534Y-39323766D01*
X141712182Y-39272081D01*
X141633773Y-39219690D01*
X141501310Y-39087227D01*
X141397235Y-38931467D01*
X141397234Y-38931466D01*
X141325546Y-38758395D01*
X141289000Y-38574667D01*
X141289000Y-38387333D01*
X141325546Y-38203605D01*
X141397234Y-38030534D01*
X141501309Y-37874775D01*
X141501310Y-37874773D01*
X141633773Y-37742310D01*
X141789533Y-37638235D01*
X141789534Y-37638234D01*
X141962605Y-37566546D01*
X142146333Y-37530000D01*
X142333667Y-37530000D01*
X142517395Y-37566546D01*
X142517395Y-37566546D01*
G37*
G36*
X152677395Y-37566546D02*
G01*
X152850466Y-37638234D01*
X152850467Y-37638235D01*
X153006227Y-37742310D01*
X153138690Y-37874773D01*
X153138691Y-37874775D01*
X153242766Y-38030534D01*
X153314454Y-38203605D01*
X153351000Y-38387333D01*
X153351000Y-38574667D01*
X153314454Y-38758395D01*
X153242766Y-38931466D01*
X153242765Y-38931467D01*
X153138690Y-39087227D01*
X153006227Y-39219690D01*
X152927818Y-39272081D01*
X152850466Y-39323766D01*
X152677395Y-39395454D01*
X152493667Y-39432000D01*
X152306333Y-39432000D01*
X152122605Y-39395454D01*
X151949534Y-39323766D01*
X151872182Y-39272081D01*
X151793773Y-39219690D01*
X151661310Y-39087227D01*
X151557235Y-38931467D01*
X151557234Y-38931466D01*
X151485546Y-38758395D01*
X151449000Y-38574667D01*
X151449000Y-38387333D01*
X151485546Y-38203605D01*
X151557234Y-38030534D01*
X151661309Y-37874775D01*
X151661310Y-37874773D01*
X151793773Y-37742310D01*
X151949533Y-37638235D01*
X151949534Y-37638234D01*
X152122605Y-37566546D01*
X152306333Y-37530000D01*
X152493667Y-37530000D01*
X152677395Y-37566546D01*
X152677395Y-37566546D01*
G37*
G36*
X150811000Y-39432000D02*
G01*
X148909000Y-39432000D01*
X148909000Y-37530000D01*
X150811000Y-37530000D01*
X150811000Y-39432000D01*
X150811000Y-39432000D01*
G37*
G36*
X177628855Y-37325140D02*
G01*
X177692618Y-37331420D01*
X177783404Y-37358960D01*
X177815336Y-37368646D01*
X177928425Y-37429094D01*
X178027554Y-37510446D01*
X178108906Y-37609575D01*
X178169354Y-37722664D01*
X178169355Y-37722668D01*
X178206580Y-37845382D01*
X178219149Y-37973000D01*
X178206580Y-38100618D01*
X178179040Y-38191404D01*
X178169354Y-38223336D01*
X178108906Y-38336425D01*
X178027554Y-38435554D01*
X177928425Y-38516906D01*
X177815336Y-38577354D01*
X177783404Y-38587040D01*
X177692618Y-38614580D01*
X177628855Y-38620860D01*
X177596974Y-38624000D01*
X176733026Y-38624000D01*
X176701145Y-38620860D01*
X176637382Y-38614580D01*
X176546596Y-38587040D01*
X176514664Y-38577354D01*
X176401575Y-38516906D01*
X176302446Y-38435554D01*
X176221094Y-38336425D01*
X176160646Y-38223336D01*
X176150960Y-38191404D01*
X176123420Y-38100618D01*
X176110851Y-37973000D01*
X176123420Y-37845382D01*
X176160645Y-37722668D01*
X176160646Y-37722664D01*
X176221094Y-37609575D01*
X176302446Y-37510446D01*
X176401575Y-37429094D01*
X176514664Y-37368646D01*
X176546596Y-37358960D01*
X176637382Y-37331420D01*
X176701145Y-37325140D01*
X176733026Y-37322000D01*
X177596974Y-37322000D01*
X177628855Y-37325140D01*
X177628855Y-37325140D01*
G37*
G36*
X182708855Y-37325140D02*
G01*
X182772618Y-37331420D01*
X182863404Y-37358960D01*
X182895336Y-37368646D01*
X183008425Y-37429094D01*
X183107554Y-37510446D01*
X183188906Y-37609575D01*
X183249354Y-37722664D01*
X183249355Y-37722668D01*
X183286580Y-37845382D01*
X183299149Y-37973000D01*
X183286580Y-38100618D01*
X183259040Y-38191404D01*
X183249354Y-38223336D01*
X183188906Y-38336425D01*
X183107554Y-38435554D01*
X183008425Y-38516906D01*
X182895336Y-38577354D01*
X182863404Y-38587040D01*
X182772618Y-38614580D01*
X182708855Y-38620860D01*
X182676974Y-38624000D01*
X181813026Y-38624000D01*
X181781145Y-38620860D01*
X181717382Y-38614580D01*
X181626596Y-38587040D01*
X181594664Y-38577354D01*
X181481575Y-38516906D01*
X181382446Y-38435554D01*
X181301094Y-38336425D01*
X181240646Y-38223336D01*
X181230960Y-38191404D01*
X181203420Y-38100618D01*
X181190851Y-37973000D01*
X181203420Y-37845382D01*
X181240645Y-37722668D01*
X181240646Y-37722664D01*
X181301094Y-37609575D01*
X181382446Y-37510446D01*
X181481575Y-37429094D01*
X181594664Y-37368646D01*
X181626596Y-37358960D01*
X181717382Y-37331420D01*
X181781145Y-37325140D01*
X181813026Y-37322000D01*
X182676974Y-37322000D01*
X182708855Y-37325140D01*
X182708855Y-37325140D01*
G37*
G36*
X150811000Y-36257000D02*
G01*
X148909000Y-36257000D01*
X148909000Y-34355000D01*
X150811000Y-34355000D01*
X150811000Y-36257000D01*
X150811000Y-36257000D01*
G37*
G36*
X142517395Y-34391546D02*
G01*
X142690466Y-34463234D01*
X142690467Y-34463235D01*
X142846227Y-34567310D01*
X142978690Y-34699773D01*
X142978691Y-34699775D01*
X143082766Y-34855534D01*
X143154454Y-35028605D01*
X143191000Y-35212333D01*
X143191000Y-35399667D01*
X143154454Y-35583395D01*
X143082766Y-35756466D01*
X143031081Y-35833818D01*
X142978690Y-35912227D01*
X142846227Y-36044690D01*
X142801493Y-36074580D01*
X142690466Y-36148766D01*
X142517395Y-36220454D01*
X142333667Y-36257000D01*
X142146333Y-36257000D01*
X141962605Y-36220454D01*
X141789534Y-36148766D01*
X141678507Y-36074580D01*
X141633773Y-36044690D01*
X141501310Y-35912227D01*
X141448919Y-35833818D01*
X141397234Y-35756466D01*
X141325546Y-35583395D01*
X141289000Y-35399667D01*
X141289000Y-35212333D01*
X141325546Y-35028605D01*
X141397234Y-34855534D01*
X141501309Y-34699775D01*
X141501310Y-34699773D01*
X141633773Y-34567310D01*
X141789533Y-34463235D01*
X141789534Y-34463234D01*
X141962605Y-34391546D01*
X142146333Y-34355000D01*
X142333667Y-34355000D01*
X142517395Y-34391546D01*
X142517395Y-34391546D01*
G37*
G36*
X140651000Y-36257000D02*
G01*
X138749000Y-36257000D01*
X138749000Y-34355000D01*
X140651000Y-34355000D01*
X140651000Y-36257000D01*
X140651000Y-36257000D01*
G37*
G36*
X152677395Y-34391546D02*
G01*
X152850466Y-34463234D01*
X152850467Y-34463235D01*
X153006227Y-34567310D01*
X153138690Y-34699773D01*
X153138691Y-34699775D01*
X153242766Y-34855534D01*
X153314454Y-35028605D01*
X153351000Y-35212333D01*
X153351000Y-35399667D01*
X153314454Y-35583395D01*
X153242766Y-35756466D01*
X153191081Y-35833818D01*
X153138690Y-35912227D01*
X153006227Y-36044690D01*
X152961493Y-36074580D01*
X152850466Y-36148766D01*
X152677395Y-36220454D01*
X152493667Y-36257000D01*
X152306333Y-36257000D01*
X152122605Y-36220454D01*
X151949534Y-36148766D01*
X151838507Y-36074580D01*
X151793773Y-36044690D01*
X151661310Y-35912227D01*
X151608919Y-35833818D01*
X151557234Y-35756466D01*
X151485546Y-35583395D01*
X151449000Y-35399667D01*
X151449000Y-35212333D01*
X151485546Y-35028605D01*
X151557234Y-34855534D01*
X151661309Y-34699775D01*
X151661310Y-34699773D01*
X151793773Y-34567310D01*
X151949533Y-34463235D01*
X151949534Y-34463234D01*
X152122605Y-34391546D01*
X152306333Y-34355000D01*
X152493667Y-34355000D01*
X152677395Y-34391546D01*
X152677395Y-34391546D01*
G37*
G36*
X182708855Y-34785140D02*
G01*
X182772618Y-34791420D01*
X182863404Y-34818960D01*
X182895336Y-34828646D01*
X183008425Y-34889094D01*
X183107554Y-34970446D01*
X183188906Y-35069575D01*
X183249354Y-35182664D01*
X183249355Y-35182668D01*
X183286580Y-35305382D01*
X183299149Y-35433000D01*
X183286580Y-35560618D01*
X183279670Y-35583396D01*
X183249354Y-35683336D01*
X183188906Y-35796425D01*
X183107554Y-35895554D01*
X183008425Y-35976906D01*
X182895336Y-36037354D01*
X182871152Y-36044690D01*
X182772618Y-36074580D01*
X182708855Y-36080860D01*
X182676974Y-36084000D01*
X181813026Y-36084000D01*
X181781145Y-36080860D01*
X181717382Y-36074580D01*
X181618848Y-36044690D01*
X181594664Y-36037354D01*
X181481575Y-35976906D01*
X181382446Y-35895554D01*
X181301094Y-35796425D01*
X181240646Y-35683336D01*
X181210330Y-35583396D01*
X181203420Y-35560618D01*
X181190851Y-35433000D01*
X181203420Y-35305382D01*
X181240645Y-35182668D01*
X181240646Y-35182664D01*
X181301094Y-35069575D01*
X181382446Y-34970446D01*
X181481575Y-34889094D01*
X181594664Y-34828646D01*
X181626596Y-34818960D01*
X181717382Y-34791420D01*
X181781145Y-34785140D01*
X181813026Y-34782000D01*
X182676974Y-34782000D01*
X182708855Y-34785140D01*
X182708855Y-34785140D01*
G37*
G36*
X177628855Y-34785140D02*
G01*
X177692618Y-34791420D01*
X177783404Y-34818960D01*
X177815336Y-34828646D01*
X177928425Y-34889094D01*
X178027554Y-34970446D01*
X178108906Y-35069575D01*
X178169354Y-35182664D01*
X178169355Y-35182668D01*
X178206580Y-35305382D01*
X178219149Y-35433000D01*
X178206580Y-35560618D01*
X178199670Y-35583396D01*
X178169354Y-35683336D01*
X178108906Y-35796425D01*
X178027554Y-35895554D01*
X177928425Y-35976906D01*
X177815336Y-36037354D01*
X177791152Y-36044690D01*
X177692618Y-36074580D01*
X177628855Y-36080860D01*
X177596974Y-36084000D01*
X176733026Y-36084000D01*
X176701145Y-36080860D01*
X176637382Y-36074580D01*
X176538848Y-36044690D01*
X176514664Y-36037354D01*
X176401575Y-35976906D01*
X176302446Y-35895554D01*
X176221094Y-35796425D01*
X176160646Y-35683336D01*
X176130330Y-35583396D01*
X176123420Y-35560618D01*
X176110851Y-35433000D01*
X176123420Y-35305382D01*
X176160645Y-35182668D01*
X176160646Y-35182664D01*
X176221094Y-35069575D01*
X176302446Y-34970446D01*
X176401575Y-34889094D01*
X176514664Y-34828646D01*
X176546596Y-34818960D01*
X176637382Y-34791420D01*
X176701145Y-34785140D01*
X176733026Y-34782000D01*
X177596974Y-34782000D01*
X177628855Y-34785140D01*
X177628855Y-34785140D01*
G37*
G36*
X177628855Y-32245140D02*
G01*
X177692618Y-32251420D01*
X177783404Y-32278960D01*
X177815336Y-32288646D01*
X177928425Y-32349094D01*
X178027554Y-32430446D01*
X178108906Y-32529575D01*
X178169354Y-32642664D01*
X178169355Y-32642668D01*
X178206580Y-32765382D01*
X178219149Y-32893000D01*
X178206580Y-33020618D01*
X178199046Y-33045453D01*
X178169354Y-33143336D01*
X178108906Y-33256425D01*
X178027554Y-33355554D01*
X177928425Y-33436906D01*
X177815336Y-33497354D01*
X177783404Y-33507040D01*
X177692618Y-33534580D01*
X177628855Y-33540860D01*
X177596974Y-33544000D01*
X176733026Y-33544000D01*
X176701145Y-33540860D01*
X176637382Y-33534580D01*
X176546596Y-33507040D01*
X176514664Y-33497354D01*
X176401575Y-33436906D01*
X176302446Y-33355554D01*
X176221094Y-33256425D01*
X176160646Y-33143336D01*
X176130954Y-33045453D01*
X176123420Y-33020618D01*
X176110851Y-32893000D01*
X176123420Y-32765382D01*
X176160645Y-32642668D01*
X176160646Y-32642664D01*
X176221094Y-32529575D01*
X176302446Y-32430446D01*
X176401575Y-32349094D01*
X176514664Y-32288646D01*
X176546596Y-32278960D01*
X176637382Y-32251420D01*
X176701145Y-32245140D01*
X176733026Y-32242000D01*
X177596974Y-32242000D01*
X177628855Y-32245140D01*
X177628855Y-32245140D01*
G37*
G36*
X182708855Y-32245140D02*
G01*
X182772618Y-32251420D01*
X182863404Y-32278960D01*
X182895336Y-32288646D01*
X183008425Y-32349094D01*
X183107554Y-32430446D01*
X183188906Y-32529575D01*
X183249354Y-32642664D01*
X183249355Y-32642668D01*
X183286580Y-32765382D01*
X183299149Y-32893000D01*
X183286580Y-33020618D01*
X183279046Y-33045453D01*
X183249354Y-33143336D01*
X183188906Y-33256425D01*
X183107554Y-33355554D01*
X183008425Y-33436906D01*
X182895336Y-33497354D01*
X182863404Y-33507040D01*
X182772618Y-33534580D01*
X182708855Y-33540860D01*
X182676974Y-33544000D01*
X181813026Y-33544000D01*
X181781145Y-33540860D01*
X181717382Y-33534580D01*
X181626596Y-33507040D01*
X181594664Y-33497354D01*
X181481575Y-33436906D01*
X181382446Y-33355554D01*
X181301094Y-33256425D01*
X181240646Y-33143336D01*
X181210954Y-33045453D01*
X181203420Y-33020618D01*
X181190851Y-32893000D01*
X181203420Y-32765382D01*
X181240645Y-32642668D01*
X181240646Y-32642664D01*
X181301094Y-32529575D01*
X181382446Y-32430446D01*
X181481575Y-32349094D01*
X181594664Y-32288646D01*
X181626596Y-32278960D01*
X181717382Y-32251420D01*
X181781145Y-32245140D01*
X181813026Y-32242000D01*
X182676974Y-32242000D01*
X182708855Y-32245140D01*
X182708855Y-32245140D01*
G37*
G36*
X150811000Y-33082000D02*
G01*
X148909000Y-33082000D01*
X148909000Y-31180000D01*
X150811000Y-31180000D01*
X150811000Y-33082000D01*
X150811000Y-33082000D01*
G37*
G36*
X152677395Y-31216546D02*
G01*
X152850466Y-31288234D01*
X152850467Y-31288235D01*
X153006227Y-31392310D01*
X153138690Y-31524773D01*
X153138691Y-31524775D01*
X153242766Y-31680534D01*
X153314454Y-31853605D01*
X153351000Y-32037333D01*
X153351000Y-32224667D01*
X153314454Y-32408395D01*
X153242766Y-32581466D01*
X153242765Y-32581467D01*
X153138690Y-32737227D01*
X153006227Y-32869690D01*
X152971341Y-32893000D01*
X152850466Y-32973766D01*
X152677395Y-33045454D01*
X152493667Y-33082000D01*
X152306333Y-33082000D01*
X152122605Y-33045454D01*
X151949534Y-32973766D01*
X151828659Y-32893000D01*
X151793773Y-32869690D01*
X151661310Y-32737227D01*
X151557235Y-32581467D01*
X151557234Y-32581466D01*
X151485546Y-32408395D01*
X151449000Y-32224667D01*
X151449000Y-32037333D01*
X151485546Y-31853605D01*
X151557234Y-31680534D01*
X151661309Y-31524775D01*
X151661310Y-31524773D01*
X151793773Y-31392310D01*
X151949533Y-31288235D01*
X151949534Y-31288234D01*
X152122605Y-31216546D01*
X152306333Y-31180000D01*
X152493667Y-31180000D01*
X152677395Y-31216546D01*
X152677395Y-31216546D01*
G37*
G36*
X140651000Y-33082000D02*
G01*
X138749000Y-33082000D01*
X138749000Y-31180000D01*
X140651000Y-31180000D01*
X140651000Y-33082000D01*
X140651000Y-33082000D01*
G37*
G36*
X142517395Y-31216546D02*
G01*
X142690466Y-31288234D01*
X142690467Y-31288235D01*
X142846227Y-31392310D01*
X142978690Y-31524773D01*
X142978691Y-31524775D01*
X143082766Y-31680534D01*
X143154454Y-31853605D01*
X143191000Y-32037333D01*
X143191000Y-32224667D01*
X143154454Y-32408395D01*
X143082766Y-32581466D01*
X143082765Y-32581467D01*
X142978690Y-32737227D01*
X142846227Y-32869690D01*
X142811341Y-32893000D01*
X142690466Y-32973766D01*
X142517395Y-33045454D01*
X142333667Y-33082000D01*
X142146333Y-33082000D01*
X141962605Y-33045454D01*
X141789534Y-32973766D01*
X141668659Y-32893000D01*
X141633773Y-32869690D01*
X141501310Y-32737227D01*
X141397235Y-32581467D01*
X141397234Y-32581466D01*
X141325546Y-32408395D01*
X141289000Y-32224667D01*
X141289000Y-32037333D01*
X141325546Y-31853605D01*
X141397234Y-31680534D01*
X141501309Y-31524775D01*
X141501310Y-31524773D01*
X141633773Y-31392310D01*
X141789533Y-31288235D01*
X141789534Y-31288234D01*
X141962605Y-31216546D01*
X142146333Y-31180000D01*
X142333667Y-31180000D01*
X142517395Y-31216546D01*
X142517395Y-31216546D01*
G37*
M02*
