M48
; DRILL file {KiCad (5.1.2-1)-1} date Friday, 31 May 2019 at 08:01:15
; FORMAT={3:3/ absolute / metric / suppress leading zeros}
; #@! TF.CreationDate,2019-05-31T08:01:15+01:00
; #@! TF.GenerationSoftware,Kicad,Pcbnew,(5.1.2-1)-1
FMAT,2
METRIC,TZ
T1C0.400
T2C0.800
T3C0.900
%
G90
G05
T1
X127995Y-101150
X128753Y-147608
X128761Y-117359
X128776Y-98371
X129008Y-140544
X129124Y-90116
X129306Y-107394
X129482Y-138157
X129572Y-135953
X130367Y-96111
X130367Y-109966
X131280Y-106831
X131384Y-108561
X131806Y-146944
X131811Y-40400
X131874Y-66451
X131955Y-103508
X132201Y-106320
X132205Y-134807
X132227Y-65200
X132551Y-125480
X132683Y-79312
X132685Y-83527
X132778Y-104595
X132916Y-64474
X133002Y-41139
X133434Y-81109
X133503Y-102836
X133724Y-42426
X136181Y-95646
X136524Y-93139
X136524Y-94147
X147842Y-47714
X147847Y-52440
X147847Y-50900
X148233Y-45695
X154117Y-96712
X154577Y-94751
X154721Y-43380
X154854Y-93381
X159500Y-142863
X159632Y-113916
X160113Y-146906
X160791Y-85102
X161070Y-142709
X161086Y-125597
X161417Y-48621
X161417Y-59861
X161417Y-72556
X161417Y-129580
X161417Y-133417
X162211Y-127956
X162379Y-111167
X162536Y-142679
X162590Y-141638
X162687Y-59847
X162698Y-81869
X162755Y-47143
X163024Y-72544
X163313Y-129735
X163823Y-53124
X163831Y-125582
X163837Y-47162
X163957Y-74556
X164007Y-133211
X164078Y-59864
X164167Y-151140
X164607Y-126223
X164928Y-103713
X165040Y-50533
X165227Y-59877
X165227Y-116669
X165227Y-142713
X165266Y-133391
X165324Y-48050
X165413Y-52111
X165415Y-75413
X165435Y-125368
X165735Y-91322
X165928Y-104089
X166403Y-53177
X166497Y-72545
X166497Y-94562
X166497Y-142709
X166513Y-141685
X166538Y-49845
X166763Y-151138
X166882Y-60413
X166996Y-128554
X167091Y-133541
X167563Y-110670
X167642Y-97949
X167688Y-107273
X167767Y-59872
X167767Y-73246
X167767Y-116574
X167943Y-43756
X167975Y-129560
X168558Y-151116
X168692Y-94544
X169037Y-74508
X169037Y-129563
X169037Y-133402
X169037Y-142271
X169179Y-43759
X169183Y-59852
X170191Y-47163
X170307Y-59870
X170307Y-75773
X170581Y-129167
X170934Y-133578
X172001Y-81865
X172479Y-105625
X172479Y-118722
X172481Y-93176
X172503Y-131141
X175746Y-147447
X175754Y-149167
X175758Y-143863
X175932Y-145531
T2
X177165Y-32893
X177165Y-35433
X177165Y-37973
X177165Y-40513
X177165Y-43053
X177165Y-45593
X177165Y-48133
X177165Y-50673
X177165Y-53213
X177165Y-55753
X177165Y-58293
X177165Y-60833
X177165Y-63373
X177165Y-65913
X177165Y-68453
X177165Y-70993
X177165Y-73533
X177165Y-76073
X177165Y-78613
X177165Y-81153
X177165Y-83693
X177165Y-86233
X177165Y-88773
X177165Y-91313
X177165Y-93853
X177165Y-96393
X177165Y-98933
X177165Y-101473
X177165Y-104013
X177165Y-106553
X177165Y-109093
X177165Y-111633
X177165Y-114173
X177165Y-116713
X177165Y-119253
X177165Y-121793
X177165Y-124333
X177165Y-126873
X177165Y-129413
X177165Y-131953
X177165Y-134493
X177165Y-137033
X177165Y-139573
X182245Y-32893
X182245Y-35433
X182245Y-37973
X182245Y-40513
X182245Y-43053
X182245Y-45593
X182245Y-48133
X182245Y-50673
X182245Y-53213
X182245Y-55753
X182245Y-58293
X182245Y-60833
X182245Y-63373
X182245Y-65913
X182245Y-68453
X182245Y-70993
X182245Y-73533
X182245Y-76073
X182245Y-78613
X182245Y-81153
X182245Y-83693
X182245Y-86233
X182245Y-88773
X182245Y-91313
X182245Y-93853
X182245Y-96393
X182245Y-98933
X182245Y-101473
X182245Y-104013
X182245Y-106553
X182245Y-109093
X182245Y-111633
X182245Y-114173
X182245Y-116713
X182245Y-119253
X182245Y-121793
X182245Y-124333
X182245Y-126873
X182245Y-129413
X182245Y-131953
X182245Y-134493
X182245Y-137033
X182245Y-139573
T3
X139700Y-70231
X142240Y-70231
X149860Y-136906
X152400Y-136906
X139700Y-143256
X142240Y-143256
X139700Y-127381
X142240Y-127381
X139700Y-95631
X142240Y-95631
X149860Y-67056
X152400Y-67056
X139700Y-44831
X142240Y-44831
X149860Y-114681
X152400Y-114681
X139700Y-67056
X142240Y-67056
X139700Y-121031
X142240Y-121031
X139700Y-92456
X142240Y-92456
X149860Y-63881
X152400Y-63881
X139700Y-41656
X142240Y-41656
X149860Y-57531
X152400Y-57531
X149860Y-146431
X152400Y-146431
X149860Y-140081
X152400Y-140081
X139700Y-63881
X142240Y-63881
X139700Y-114681
X142240Y-114681
X149860Y-51181
X152400Y-51181
X149860Y-60706
X152400Y-60706
X139700Y-38481
X142240Y-38481
X139700Y-86106
X142240Y-86106
X149860Y-143256
X152400Y-143256
X139700Y-117856
X142240Y-117856
X149860Y-92456
X152400Y-92456
X139700Y-60706
X142240Y-60706
X149860Y-48006
X152400Y-48006
X139700Y-140081
X142240Y-140081
X139700Y-111506
X142240Y-111506
X139700Y-35306
X142240Y-35306
X149860Y-101981
X152400Y-101981
X139700Y-82931
X142240Y-82931
X149860Y-98806
X152400Y-98806
X139700Y-146431
X142240Y-146431
X149860Y-54356
X152400Y-54356
X149860Y-79756
X152400Y-79756
X149860Y-108331
X152400Y-108331
X139700Y-57531
X142240Y-57531
X149860Y-44831
X152400Y-44831
X139700Y-136906
X142240Y-136906
X149860Y-86106
X152400Y-86106
X139700Y-32131
X142240Y-32131
X139700Y-79756
X142240Y-79756
X149860Y-76581
X152400Y-76581
X139700Y-54356
X142240Y-54356
X149860Y-38481
X152400Y-38481
X149860Y-41656
X152400Y-41656
X139700Y-130556
X142240Y-130556
X149860Y-130556
X152400Y-130556
X149860Y-149479
X152400Y-149479
X139700Y-76581
X142240Y-76581
X149860Y-105156
X152400Y-105156
X149860Y-32131
X152400Y-32131
X139700Y-89281
X142240Y-89281
X139700Y-101981
X142240Y-101981
X149860Y-73406
X152400Y-73406
X149860Y-35306
X152400Y-35306
X139700Y-51181
X142240Y-51181
X149860Y-121031
X152400Y-121031
X149860Y-127381
X152400Y-127381
X139700Y-73406
X142240Y-73406
X139700Y-105156
X142240Y-105156
X139700Y-149479
X142240Y-149479
X149860Y-95631
X152400Y-95631
X139700Y-98806
X142240Y-98806
X149860Y-70231
X152400Y-70231
X139700Y-48006
X142240Y-48006
X149860Y-117856
X152400Y-117856
T0
M30
