G04 #@! TF.GenerationSoftware,KiCad,Pcbnew,(5.1.2-1)-1*
G04 #@! TF.CreationDate,2019-05-31T08:15:57+01:00*
G04 #@! TF.ProjectId,A500 Expansion Blinkenlights,41353030-2045-4787-9061-6e73696f6e20,rev?*
G04 #@! TF.SameCoordinates,Original*
G04 #@! TF.FileFunction,Copper,L3,Inr*
G04 #@! TF.FilePolarity,Positive*
%FSLAX46Y46*%
G04 Gerber Fmt 4.6, Leading zero omitted, Abs format (unit mm)*
G04 Created by KiCad (PCBNEW (5.1.2-1)-1) date 2019-05-31 08:15:57*
%MOMM*%
%LPD*%
G04 APERTURE LIST*
%ADD10O,2.000000X1.200000*%
%ADD11C,1.800000*%
%ADD12R,1.800000X1.800000*%
%ADD13C,0.800000*%
%ADD14C,0.250000*%
G04 APERTURE END LIST*
D10*
X177165000Y-139573000D03*
X182245000Y-139573000D03*
X177165000Y-137033000D03*
X182245000Y-137033000D03*
X177165000Y-134493000D03*
X182245000Y-134493000D03*
X177165000Y-131953000D03*
X182245000Y-131953000D03*
X177165000Y-129413000D03*
X182245000Y-129413000D03*
X177165000Y-126873000D03*
X182245000Y-126873000D03*
X177165000Y-124333000D03*
X182245000Y-124333000D03*
X177165000Y-121793000D03*
X182245000Y-121793000D03*
X177165000Y-119253000D03*
X182245000Y-119253000D03*
X177165000Y-116713000D03*
X182245000Y-116713000D03*
X177165000Y-114173000D03*
X182245000Y-114173000D03*
X177165000Y-111633000D03*
X182245000Y-111633000D03*
X177165000Y-109093000D03*
X182245000Y-109093000D03*
X177165000Y-106553000D03*
X182245000Y-106553000D03*
X177165000Y-104013000D03*
X182245000Y-104013000D03*
X177165000Y-101473000D03*
X182245000Y-101473000D03*
X177165000Y-98933000D03*
X182245000Y-98933000D03*
X177165000Y-96393000D03*
X182245000Y-96393000D03*
X177165000Y-93853000D03*
X182245000Y-93853000D03*
X177165000Y-91313000D03*
X182245000Y-91313000D03*
X177165000Y-88773000D03*
X182245000Y-88773000D03*
X177165000Y-86233000D03*
X182245000Y-86233000D03*
X177165000Y-83693000D03*
X182245000Y-83693000D03*
X177165000Y-81153000D03*
X182245000Y-81153000D03*
X177165000Y-78613000D03*
X182245000Y-78613000D03*
X177165000Y-76073000D03*
X182245000Y-76073000D03*
X177165000Y-73533000D03*
X182245000Y-73533000D03*
X177165000Y-70993000D03*
X182245000Y-70993000D03*
X177165000Y-68453000D03*
X182245000Y-68453000D03*
X177165000Y-65913000D03*
X182245000Y-65913000D03*
X177165000Y-63373000D03*
X182245000Y-63373000D03*
X177165000Y-60833000D03*
X182245000Y-60833000D03*
X177165000Y-58293000D03*
X182245000Y-58293000D03*
X177165000Y-55753000D03*
X182245000Y-55753000D03*
X177165000Y-53213000D03*
X182245000Y-53213000D03*
X177165000Y-50673000D03*
X182245000Y-50673000D03*
X177165000Y-48133000D03*
X182245000Y-48133000D03*
X177165000Y-45593000D03*
X182245000Y-45593000D03*
X177165000Y-43053000D03*
X182245000Y-43053000D03*
X177165000Y-40513000D03*
X182245000Y-40513000D03*
X177165000Y-37973000D03*
X182245000Y-37973000D03*
X177165000Y-35433000D03*
X182245000Y-35433000D03*
X177165000Y-32893000D03*
X182245000Y-32893000D03*
D11*
X142240000Y-146431000D03*
D12*
X139700000Y-146431000D03*
D11*
X152400000Y-108331000D03*
D12*
X149860000Y-108331000D03*
D11*
X152400000Y-105156000D03*
D12*
X149860000Y-105156000D03*
D11*
X142240000Y-114681000D03*
D12*
X139700000Y-114681000D03*
D11*
X142240000Y-121031000D03*
D12*
X139700000Y-121031000D03*
D11*
X142240000Y-127381000D03*
D12*
X139700000Y-127381000D03*
D11*
X142240000Y-143256000D03*
D12*
X139700000Y-143256000D03*
D11*
X142240000Y-111506000D03*
D12*
X139700000Y-111506000D03*
D11*
X152400000Y-143256000D03*
D12*
X149860000Y-143256000D03*
D11*
X152400000Y-140081000D03*
D12*
X149860000Y-140081000D03*
D11*
X152400000Y-136906000D03*
D12*
X149860000Y-136906000D03*
D11*
X142240000Y-140081000D03*
D12*
X139700000Y-140081000D03*
D11*
X142240000Y-136906000D03*
D12*
X139700000Y-136906000D03*
D11*
X142240000Y-130556000D03*
D12*
X139700000Y-130556000D03*
D11*
X152400000Y-121031000D03*
D12*
X149860000Y-121031000D03*
D11*
X152400000Y-117856000D03*
D12*
X149860000Y-117856000D03*
D11*
X152400000Y-114681000D03*
D12*
X149860000Y-114681000D03*
D11*
X152400000Y-146431000D03*
D12*
X149860000Y-146431000D03*
D11*
X152400000Y-92456000D03*
D12*
X149860000Y-92456000D03*
D11*
X152400000Y-79756000D03*
D12*
X149860000Y-79756000D03*
D11*
X152400000Y-76581000D03*
D12*
X149860000Y-76581000D03*
D11*
X152400000Y-73406000D03*
D12*
X149860000Y-73406000D03*
D11*
X152400000Y-70231000D03*
D12*
X149860000Y-70231000D03*
D11*
X152400000Y-67056000D03*
D12*
X149860000Y-67056000D03*
D11*
X152400000Y-63881000D03*
D12*
X149860000Y-63881000D03*
D11*
X152400000Y-60706000D03*
D12*
X149860000Y-60706000D03*
D11*
X152400000Y-57531000D03*
D12*
X149860000Y-57531000D03*
D11*
X152400000Y-54356000D03*
D12*
X149860000Y-54356000D03*
D11*
X152400000Y-51181000D03*
D12*
X149860000Y-51181000D03*
D11*
X152400000Y-48006000D03*
D12*
X149860000Y-48006000D03*
D11*
X152400000Y-44831000D03*
D12*
X149860000Y-44831000D03*
D11*
X152400000Y-41656000D03*
D12*
X149860000Y-41656000D03*
D11*
X152400000Y-38481000D03*
D12*
X149860000Y-38481000D03*
D11*
X152400000Y-35306000D03*
D12*
X149860000Y-35306000D03*
D11*
X152400000Y-32131000D03*
D12*
X149860000Y-32131000D03*
D11*
X142240000Y-149479000D03*
D12*
X139700000Y-149479000D03*
D11*
X152400000Y-130556000D03*
D12*
X149860000Y-130556000D03*
D11*
X152400000Y-127381000D03*
D12*
X149860000Y-127381000D03*
D11*
X152400000Y-101981000D03*
D12*
X149860000Y-101981000D03*
D11*
X152400000Y-95631000D03*
D12*
X149860000Y-95631000D03*
D11*
X152400000Y-98806000D03*
D12*
X149860000Y-98806000D03*
D11*
X152400000Y-86106000D03*
D12*
X149860000Y-86106000D03*
D11*
X142240000Y-117856000D03*
D12*
X139700000Y-117856000D03*
D11*
X142240000Y-105156000D03*
D12*
X139700000Y-105156000D03*
D11*
X142240000Y-101981000D03*
D12*
X139700000Y-101981000D03*
D11*
X142240000Y-98806000D03*
D12*
X139700000Y-98806000D03*
D11*
X142240000Y-95631000D03*
D12*
X139700000Y-95631000D03*
D11*
X142240000Y-92456000D03*
D12*
X139700000Y-92456000D03*
D11*
X142240000Y-89281000D03*
D12*
X139700000Y-89281000D03*
D11*
X142240000Y-86106000D03*
D12*
X139700000Y-86106000D03*
D11*
X142240000Y-82931000D03*
D12*
X139700000Y-82931000D03*
D11*
X142240000Y-79756000D03*
D12*
X139700000Y-79756000D03*
D11*
X142240000Y-76581000D03*
D12*
X139700000Y-76581000D03*
D11*
X142240000Y-73406000D03*
D12*
X139700000Y-73406000D03*
D11*
X142240000Y-70231000D03*
D12*
X139700000Y-70231000D03*
D11*
X142240000Y-67056000D03*
D12*
X139700000Y-67056000D03*
D11*
X142240000Y-63881000D03*
D12*
X139700000Y-63881000D03*
D11*
X142240000Y-60706000D03*
D12*
X139700000Y-60706000D03*
D11*
X142240000Y-57531000D03*
D12*
X139700000Y-57531000D03*
D11*
X142240000Y-54356000D03*
D12*
X139700000Y-54356000D03*
D11*
X142240000Y-51181000D03*
D12*
X139700000Y-51181000D03*
D11*
X142240000Y-48006000D03*
D12*
X139700000Y-48006000D03*
D11*
X142240000Y-44831000D03*
D12*
X139700000Y-44831000D03*
D11*
X142240000Y-41656000D03*
D12*
X139700000Y-41656000D03*
D11*
X142240000Y-38481000D03*
D12*
X139700000Y-38481000D03*
D11*
X142240000Y-35306000D03*
D12*
X139700000Y-35306000D03*
D11*
X142240000Y-32131000D03*
D12*
X139700000Y-32131000D03*
D11*
X152400000Y-149479000D03*
D12*
X149860000Y-149479000D03*
D13*
X169179100Y-43759100D03*
X132204700Y-134806700D03*
X165412900Y-52110800D03*
X166402700Y-53177200D03*
X131810800Y-40400400D03*
X163822800Y-53123700D03*
X133001900Y-41138700D03*
X133724300Y-42425800D03*
X131873600Y-66451100D03*
X132227200Y-65200100D03*
X132916200Y-64474400D03*
X132685200Y-83526500D03*
X162698100Y-81869300D03*
X160791100Y-85101600D03*
X132682500Y-79312300D03*
X133434000Y-81109000D03*
X165227000Y-116669200D03*
X168557700Y-151115700D03*
X160112700Y-146906400D03*
X129007800Y-140543600D03*
X165040500Y-50533100D03*
X167942700Y-43756400D03*
X132551000Y-125479900D03*
X154720900Y-43380100D03*
X169037000Y-129562600D03*
X131279500Y-106830500D03*
X167975000Y-129559700D03*
X131955400Y-103507900D03*
X165435100Y-125368200D03*
X136180900Y-95645700D03*
X164607100Y-126222800D03*
X136523800Y-93139400D03*
X163831100Y-125581900D03*
X136523800Y-94147200D03*
X162211100Y-127956000D03*
X128776200Y-98371400D03*
X161417000Y-129580300D03*
X129124300Y-90115800D03*
X161085500Y-125596700D03*
X130367000Y-96110900D03*
X169037000Y-142270600D03*
X127995000Y-101150300D03*
X166513100Y-141685200D03*
X128761300Y-117358800D03*
X166497000Y-142709200D03*
X129306400Y-107393700D03*
X165227000Y-142712800D03*
X133502900Y-102836000D03*
X162590200Y-141637900D03*
X132777500Y-104594600D03*
X162536500Y-142678700D03*
X132201000Y-106319900D03*
X161070100Y-142709100D03*
X131384100Y-108560700D03*
X159499600Y-142863300D03*
X130367000Y-109966200D03*
X129571800Y-135953200D03*
X154853700Y-93380800D03*
X164167400Y-151139800D03*
X168692400Y-94543600D03*
X129482400Y-138157000D03*
X167642100Y-97948800D03*
X128753400Y-147607600D03*
X166497000Y-94562300D03*
X131805700Y-146943800D03*
X167562500Y-110670100D03*
X175757900Y-143863100D03*
X147841600Y-47714000D03*
X147847400Y-50899600D03*
X165735000Y-91321800D03*
X154117200Y-96711700D03*
X154577400Y-94751400D03*
X162378700Y-111166600D03*
X147846800Y-52440300D03*
X167688000Y-107273400D03*
X175932200Y-145530700D03*
X166763400Y-151138100D03*
X175753900Y-149166900D03*
X175745500Y-147447000D03*
X159631800Y-113916100D03*
X172001200Y-81864700D03*
X172480800Y-93176400D03*
X172479300Y-118721800D03*
X172503000Y-131141000D03*
X172479300Y-105625300D03*
X148233100Y-45695200D03*
X161417000Y-48621300D03*
X162754500Y-47142600D03*
X163836900Y-47161900D03*
X165324200Y-48050000D03*
X166537500Y-49844900D03*
X170191300Y-47163200D03*
X161417000Y-59860600D03*
X162687000Y-59847300D03*
X164078400Y-59864100D03*
X165227000Y-59876800D03*
X166881600Y-60412600D03*
X167767000Y-59871900D03*
X169182600Y-59852400D03*
X170307000Y-59869800D03*
X161417000Y-72556400D03*
X163024400Y-72543700D03*
X163957000Y-74556100D03*
X165415300Y-75412800D03*
X166497000Y-72544600D03*
X167767000Y-73245500D03*
X169037000Y-74508000D03*
X170307000Y-75773200D03*
X164927800Y-103712900D03*
X165928400Y-104088900D03*
X167767000Y-116574400D03*
X166996100Y-128554000D03*
X161417000Y-133417100D03*
X163312900Y-129735400D03*
X164007000Y-133211400D03*
X165266300Y-133391200D03*
X167090900Y-133541400D03*
X170580600Y-129167200D03*
X169037000Y-133402400D03*
X170934200Y-133578200D03*
D14*
X152400000Y-149479000D02*
X162875300Y-149479000D01*
X162875300Y-149479000D02*
X169837500Y-142516800D01*
X169837500Y-142516800D02*
X169837500Y-104153500D01*
X169837500Y-104153500D02*
X171034400Y-102956600D01*
X171034400Y-102956600D02*
X171034400Y-49213700D01*
X171034400Y-49213700D02*
X169179100Y-47358400D01*
X169179100Y-47358400D02*
X169179100Y-43759100D01*
X138474700Y-60706000D02*
X133980600Y-65200100D01*
X133980600Y-65200100D02*
X132227200Y-65200100D01*
X139700000Y-60706000D02*
X138474700Y-60706000D01*
X139700000Y-100755700D02*
X139317100Y-100755700D01*
X139317100Y-100755700D02*
X135101900Y-96540500D01*
X135101900Y-96540500D02*
X135101900Y-81731700D01*
X135101900Y-81731700D02*
X132682500Y-79312300D01*
X139700000Y-101981000D02*
X139700000Y-100755700D01*
X139700000Y-103930700D02*
X139317100Y-103930700D01*
X139317100Y-103930700D02*
X133434000Y-98047600D01*
X133434000Y-98047600D02*
X133434000Y-81109000D01*
X139700000Y-105156000D02*
X139700000Y-103930700D01*
X160112700Y-146906400D02*
X155754300Y-142548000D01*
X155754300Y-142548000D02*
X155754300Y-93225600D01*
X155754300Y-93225600D02*
X149860000Y-87331300D01*
X149860000Y-86106000D02*
X149860000Y-87331300D01*
X142240000Y-149479000D02*
X148156700Y-143562300D01*
X148156700Y-143562300D02*
X148156700Y-84619600D01*
X148156700Y-84619600D02*
X151130100Y-81646200D01*
X151130100Y-81646200D02*
X151130100Y-44342400D01*
X151130100Y-44342400D02*
X152092400Y-43380100D01*
X152092400Y-43380100D02*
X154720900Y-43380100D01*
X152400000Y-32131000D02*
X160672000Y-40403000D01*
X160672000Y-40403000D02*
X160672000Y-67722100D01*
X160672000Y-67722100D02*
X162142400Y-69192500D01*
X162142400Y-69192500D02*
X162142400Y-73989000D01*
X162142400Y-73989000D02*
X164020900Y-75867500D01*
X164020900Y-75867500D02*
X164020900Y-93277300D01*
X164020900Y-93277300D02*
X169037000Y-98293400D01*
X169037000Y-98293400D02*
X169037000Y-129562600D01*
X149860000Y-32131000D02*
X149860000Y-33356300D01*
X149860000Y-33356300D02*
X149477100Y-33356300D01*
X149477100Y-33356300D02*
X143465400Y-39368000D01*
X143465400Y-39368000D02*
X143465400Y-58074500D01*
X143465400Y-58074500D02*
X142421400Y-59118500D01*
X142421400Y-59118500D02*
X142076600Y-59118500D01*
X142076600Y-59118500D02*
X140925400Y-60269700D01*
X140925400Y-60269700D02*
X140925400Y-61759100D01*
X140925400Y-61759100D02*
X140073500Y-62611000D01*
X140073500Y-62611000D02*
X138653900Y-62611000D01*
X138653900Y-62611000D02*
X131228000Y-70036900D01*
X131228000Y-70036900D02*
X131228000Y-106779000D01*
X131228000Y-106779000D02*
X131279500Y-106830500D01*
X152400000Y-35306000D02*
X160054700Y-42960700D01*
X160054700Y-42960700D02*
X160054700Y-75907800D01*
X160054700Y-75907800D02*
X163423500Y-79276600D01*
X163423500Y-79276600D02*
X163423500Y-103244300D01*
X163423500Y-103244300D02*
X166169900Y-105990700D01*
X166169900Y-105990700D02*
X166169900Y-126702000D01*
X166169900Y-126702000D02*
X167975000Y-128507100D01*
X167975000Y-128507100D02*
X167975000Y-129559700D01*
X149860000Y-36531300D02*
X149477100Y-36531300D01*
X149477100Y-36531300D02*
X143915700Y-42092700D01*
X143915700Y-42092700D02*
X143915700Y-60801700D01*
X143915700Y-60801700D02*
X142423900Y-62293500D01*
X142423900Y-62293500D02*
X142076600Y-62293500D01*
X142076600Y-62293500D02*
X140925400Y-63444700D01*
X140925400Y-63444700D02*
X140925400Y-64934100D01*
X140925400Y-64934100D02*
X140523800Y-65335700D01*
X140523800Y-65335700D02*
X139084800Y-65335700D01*
X139084800Y-65335700D02*
X131955400Y-72465100D01*
X131955400Y-72465100D02*
X131955400Y-103507900D01*
X149860000Y-35306000D02*
X149860000Y-36531300D01*
X152400000Y-38481000D02*
X159340700Y-45421700D01*
X159340700Y-45421700D02*
X159340700Y-80119700D01*
X159340700Y-80119700D02*
X162960100Y-83739100D01*
X162960100Y-83739100D02*
X162960100Y-104041200D01*
X162960100Y-104041200D02*
X163571600Y-104652700D01*
X163571600Y-104652700D02*
X163571600Y-120489400D01*
X163571600Y-120489400D02*
X165435100Y-122352900D01*
X165435100Y-122352900D02*
X165435100Y-125368200D01*
X149860000Y-39706300D02*
X149477100Y-39706300D01*
X149477100Y-39706300D02*
X144591200Y-44592200D01*
X144591200Y-44592200D02*
X144591200Y-69695100D01*
X144591200Y-69695100D02*
X142813400Y-71472900D01*
X142813400Y-71472900D02*
X142422200Y-71472900D01*
X142422200Y-71472900D02*
X140925400Y-72969700D01*
X140925400Y-72969700D02*
X140925400Y-74459100D01*
X140925400Y-74459100D02*
X140073500Y-75311000D01*
X140073500Y-75311000D02*
X138638300Y-75311000D01*
X138638300Y-75311000D02*
X135759700Y-78189600D01*
X135759700Y-78189600D02*
X135759700Y-95224500D01*
X135759700Y-95224500D02*
X136180900Y-95645700D01*
X149860000Y-38481000D02*
X149860000Y-39706300D01*
X164607100Y-126222800D02*
X164607100Y-125054200D01*
X164607100Y-125054200D02*
X163104000Y-123551100D01*
X163104000Y-123551100D02*
X163104000Y-105071600D01*
X163104000Y-105071600D02*
X162178100Y-104145700D01*
X162178100Y-104145700D02*
X162178100Y-83725500D01*
X162178100Y-83725500D02*
X158890400Y-80437800D01*
X158890400Y-80437800D02*
X158890400Y-46469100D01*
X158890400Y-46469100D02*
X154077300Y-41656000D01*
X154077300Y-41656000D02*
X152400000Y-41656000D01*
X136523800Y-93139400D02*
X136523800Y-80672100D01*
X136523800Y-80672100D02*
X138709900Y-78486000D01*
X138709900Y-78486000D02*
X140073500Y-78486000D01*
X140073500Y-78486000D02*
X140925400Y-77634100D01*
X140925400Y-77634100D02*
X140925400Y-76144700D01*
X140925400Y-76144700D02*
X142076600Y-74993500D01*
X142076600Y-74993500D02*
X142423900Y-74993500D01*
X142423900Y-74993500D02*
X145266600Y-72150800D01*
X145266600Y-72150800D02*
X145266600Y-46999100D01*
X145266600Y-46999100D02*
X149384400Y-42881300D01*
X149384400Y-42881300D02*
X149860000Y-42881300D01*
X149860000Y-41656000D02*
X149860000Y-42881300D01*
X152400000Y-44831000D02*
X158440100Y-50871100D01*
X158440100Y-50871100D02*
X158440100Y-80630200D01*
X158440100Y-80630200D02*
X161586500Y-83776600D01*
X161586500Y-83776600D02*
X161586500Y-111521800D01*
X161586500Y-111521800D02*
X162445900Y-112381200D01*
X162445900Y-112381200D02*
X162445900Y-124196700D01*
X162445900Y-124196700D02*
X163831100Y-125581900D01*
X136523800Y-94147200D02*
X136541800Y-94147200D01*
X136541800Y-94147200D02*
X137424400Y-93264600D01*
X137424400Y-93264600D02*
X137424400Y-92458000D01*
X137424400Y-92458000D02*
X138696400Y-91186000D01*
X138696400Y-91186000D02*
X140113100Y-91186000D01*
X140113100Y-91186000D02*
X140925400Y-90373700D01*
X140925400Y-90373700D02*
X140925400Y-79304800D01*
X140925400Y-79304800D02*
X142061700Y-78168500D01*
X142061700Y-78168500D02*
X142387900Y-78168500D01*
X142387900Y-78168500D02*
X145716900Y-74839500D01*
X145716900Y-74839500D02*
X145716900Y-47185700D01*
X145716900Y-47185700D02*
X148071600Y-44831000D01*
X148071600Y-44831000D02*
X148634700Y-44831000D01*
X149860000Y-44831000D02*
X148634700Y-44831000D01*
X152400000Y-48006000D02*
X157989800Y-53595800D01*
X157989800Y-53595800D02*
X157989800Y-82164100D01*
X157989800Y-82164100D02*
X159670100Y-83844400D01*
X159670100Y-83844400D02*
X159670100Y-85617500D01*
X159670100Y-85617500D02*
X160995200Y-86942600D01*
X160995200Y-86942600D02*
X160995200Y-111567400D01*
X160995200Y-111567400D02*
X161995600Y-112567800D01*
X161995600Y-112567800D02*
X161995600Y-124445700D01*
X161995600Y-124445700D02*
X162335700Y-124785800D01*
X162335700Y-124785800D02*
X162335700Y-127831400D01*
X162335700Y-127831400D02*
X162211100Y-127956000D01*
X161417000Y-129580300D02*
X161417000Y-126291000D01*
X161417000Y-126291000D02*
X161835700Y-125872300D01*
X161835700Y-125872300D02*
X161835700Y-124922700D01*
X161835700Y-124922700D02*
X161545300Y-124632300D01*
X161545300Y-124632300D02*
X161545300Y-112754400D01*
X161545300Y-112754400D02*
X160544900Y-111754000D01*
X160544900Y-111754000D02*
X160544900Y-87129200D01*
X160544900Y-87129200D02*
X159219800Y-85804100D01*
X159219800Y-85804100D02*
X159219800Y-84031000D01*
X159219800Y-84031000D02*
X157539500Y-82350700D01*
X157539500Y-82350700D02*
X157539500Y-56320500D01*
X157539500Y-56320500D02*
X152400000Y-51181000D01*
X161085500Y-125596700D02*
X161085500Y-112931500D01*
X161085500Y-112931500D02*
X160094600Y-111940600D01*
X160094600Y-111940600D02*
X160094600Y-87315800D01*
X160094600Y-87315800D02*
X158769500Y-85990700D01*
X158769500Y-85990700D02*
X158769500Y-84217700D01*
X158769500Y-84217700D02*
X157089200Y-82537400D01*
X157089200Y-82537400D02*
X157089200Y-59045200D01*
X157089200Y-59045200D02*
X152400000Y-54356000D01*
X152400000Y-57531000D02*
X156638800Y-61769800D01*
X156638800Y-61769800D02*
X156638800Y-84046600D01*
X156638800Y-84046600D02*
X158319100Y-85726900D01*
X158319100Y-85726900D02*
X158319100Y-86328100D01*
X158319100Y-86328100D02*
X159644200Y-87653200D01*
X159644200Y-87653200D02*
X159644200Y-112728800D01*
X159644200Y-112728800D02*
X160357300Y-113441900D01*
X160357300Y-113441900D02*
X160357300Y-133590900D01*
X160357300Y-133590900D02*
X169037000Y-142270600D01*
X152400000Y-60706000D02*
X156188400Y-64494400D01*
X156188400Y-64494400D02*
X156188400Y-84233100D01*
X156188400Y-84233100D02*
X157531200Y-85575900D01*
X157531200Y-85575900D02*
X157531200Y-86531400D01*
X157531200Y-86531400D02*
X158906400Y-87906600D01*
X158906400Y-87906600D02*
X158906400Y-134078500D01*
X158906400Y-134078500D02*
X166513100Y-141685200D01*
X152400000Y-63881000D02*
X155437800Y-66918800D01*
X155437800Y-66918800D02*
X155437800Y-84119400D01*
X155437800Y-84119400D02*
X156518000Y-85199600D01*
X156518000Y-85199600D02*
X156518000Y-87632500D01*
X156518000Y-87632500D02*
X158456100Y-89570600D01*
X158456100Y-89570600D02*
X158456100Y-134668300D01*
X158456100Y-134668300D02*
X166497000Y-142709200D01*
X152400000Y-67056000D02*
X154987400Y-69643400D01*
X154987400Y-69643400D02*
X154987400Y-84305900D01*
X154987400Y-84305900D02*
X156067700Y-85386200D01*
X156067700Y-85386200D02*
X156067700Y-88371000D01*
X156067700Y-88371000D02*
X158005800Y-90309100D01*
X158005800Y-90309100D02*
X158005800Y-135491600D01*
X158005800Y-135491600D02*
X165227000Y-142712800D01*
X152400000Y-70231000D02*
X154537100Y-72368100D01*
X154537100Y-72368100D02*
X154537100Y-84492500D01*
X154537100Y-84492500D02*
X155617400Y-85572800D01*
X155617400Y-85572800D02*
X155617400Y-89164900D01*
X155617400Y-89164900D02*
X157555500Y-91103000D01*
X157555500Y-91103000D02*
X157555500Y-136603200D01*
X157555500Y-136603200D02*
X162590200Y-141637900D01*
X152400000Y-73406000D02*
X154086800Y-75092800D01*
X154086800Y-75092800D02*
X154086800Y-84679100D01*
X154086800Y-84679100D02*
X155167100Y-85759400D01*
X155167100Y-85759400D02*
X155167100Y-89351500D01*
X155167100Y-89351500D02*
X157105200Y-91289600D01*
X157105200Y-91289600D02*
X157105200Y-137247400D01*
X157105200Y-137247400D02*
X162536500Y-142678700D01*
X152400000Y-76581000D02*
X153636400Y-77817400D01*
X153636400Y-77817400D02*
X153636400Y-84865600D01*
X153636400Y-84865600D02*
X154716800Y-85946000D01*
X154716800Y-85946000D02*
X154716800Y-89538100D01*
X154716800Y-89538100D02*
X156654900Y-91476200D01*
X156654900Y-91476200D02*
X156654900Y-138293900D01*
X156654900Y-138293900D02*
X161070100Y-142709100D01*
X152400000Y-79756000D02*
X152400000Y-84266100D01*
X152400000Y-84266100D02*
X154266500Y-86132600D01*
X154266500Y-86132600D02*
X154266500Y-89953100D01*
X154266500Y-89953100D02*
X156204600Y-91891200D01*
X156204600Y-91891200D02*
X156204600Y-139568300D01*
X156204600Y-139568300D02*
X159499600Y-142863300D01*
X152400000Y-146431000D02*
X155304000Y-143527000D01*
X155304000Y-143527000D02*
X155304000Y-93831100D01*
X155304000Y-93831100D02*
X154853700Y-93380800D01*
X142240000Y-136906000D02*
X146167200Y-132978800D01*
X146167200Y-132978800D02*
X146167200Y-49388400D01*
X146167200Y-49388400D02*
X147841600Y-47714000D01*
X142240000Y-140081000D02*
X146617500Y-135703500D01*
X146617500Y-135703500D02*
X146617500Y-52129500D01*
X146617500Y-52129500D02*
X147847400Y-50899600D01*
X152400000Y-140081000D02*
X154117200Y-138363800D01*
X154117200Y-138363800D02*
X154117200Y-96711700D01*
X152400000Y-143256000D02*
X154853700Y-140802300D01*
X154853700Y-140802300D02*
X154853700Y-95027700D01*
X154853700Y-95027700D02*
X154577400Y-94751400D01*
X142240000Y-143256000D02*
X147096100Y-138399900D01*
X147096100Y-138399900D02*
X147096100Y-53191000D01*
X147096100Y-53191000D02*
X147846800Y-52440300D01*
X177165000Y-48133000D02*
X178490300Y-48133000D01*
X178490300Y-48133000D02*
X178490300Y-63373000D01*
X177165000Y-63373000D02*
X178490300Y-63373000D01*
X178490300Y-63373000D02*
X178490300Y-78613000D01*
X177165000Y-78613000D02*
X178490300Y-78613000D01*
X178391800Y-93853000D02*
X178490300Y-93754500D01*
X178490300Y-93754500D02*
X178490300Y-78613000D01*
X178391800Y-93853000D02*
X178490300Y-93951500D01*
X178490300Y-93951500D02*
X178490300Y-108980400D01*
X178490300Y-108980400D02*
X178377700Y-109093000D01*
X178377700Y-93853000D02*
X178391800Y-93853000D01*
X177165000Y-139573000D02*
X178490300Y-139573000D01*
X178490300Y-139573000D02*
X178490300Y-124333000D01*
X177165000Y-124333000D02*
X178490300Y-124333000D01*
X178490300Y-124333000D02*
X178490300Y-109205600D01*
X178490300Y-109205600D02*
X178377700Y-109093000D01*
X177165000Y-93853000D02*
X178377700Y-93853000D01*
X177165000Y-109093000D02*
X178377700Y-109093000D01*
X177165000Y-32893000D02*
X177165000Y-35433000D01*
X182245000Y-32893000D02*
X182245000Y-35433000D01*
X149860000Y-106381300D02*
X149477100Y-106381300D01*
X149477100Y-106381300D02*
X148634600Y-107223800D01*
X148634600Y-107223800D02*
X148634600Y-150515800D01*
X148634600Y-150515800D02*
X149299800Y-151181000D01*
X149299800Y-151181000D02*
X163076100Y-151181000D01*
X163076100Y-151181000D02*
X165090200Y-149166900D01*
X165090200Y-149166900D02*
X175753900Y-149166900D01*
X149860000Y-105156000D02*
X149860000Y-106381300D01*
X149860000Y-108331000D02*
X149860000Y-109556300D01*
X149860000Y-109556300D02*
X151085300Y-110781600D01*
X151085300Y-110781600D02*
X151085300Y-149949500D01*
X151085300Y-149949500D02*
X151850600Y-150714800D01*
X151850600Y-150714800D02*
X162857500Y-150714800D01*
X162857500Y-150714800D02*
X166125300Y-147447000D01*
X166125300Y-147447000D02*
X175745500Y-147447000D01*
X172480800Y-93176400D02*
X172480800Y-82344300D01*
X172480800Y-82344300D02*
X172001200Y-81864700D01*
X172479300Y-105625300D02*
X172480800Y-105623800D01*
X172480800Y-105623800D02*
X172480800Y-93176400D01*
X172479300Y-118721800D02*
X172479300Y-105625300D01*
X172479300Y-118721800D02*
X172479300Y-131117300D01*
X172479300Y-131117300D02*
X172503000Y-131141000D01*
X148233100Y-45695200D02*
X148584400Y-46046500D01*
X148584400Y-46046500D02*
X148584400Y-54416800D01*
X148584400Y-54416800D02*
X147706300Y-55294900D01*
X147706300Y-55294900D02*
X147706300Y-140964700D01*
X147706300Y-140964700D02*
X142240000Y-146431000D01*
X177165000Y-68453000D02*
X175839700Y-68453000D01*
X175839700Y-68453000D02*
X175839700Y-52811600D01*
X175839700Y-52811600D02*
X170191300Y-47163200D01*
M02*
